SplineFontDB: 3.2
FontName: SeriousShannsBold
FullName: Serious Shanns Bold
FamilyName: Serious Shanns Bold
Weight: Bold
Copyright: https://github.com/kaBeech/serious-shanns/blob/main/LICENSE
Version: 6.0.0
ItalicAngle: 0
UnderlinePosition: 0
UnderlineWidth: 0
Ascent: 800
Descent: 200
InvalidEm: 0
sfntRevision: 0x00003333
LayerCount: 2
Layer: 0 0 "Back" 1
Layer: 1 0 "Fore" 0
XUID: [1021 45 630387186 1689187]
StyleMap: 0x0040
FSType: 0
OS2Version: 3
OS2_WeightWidthSlopeOnly: 0
OS2_UseTypoMetrics: 0
CreationTime: 1532631502
ModificationTime: 315532800
PfmFamily: 49
TTFWeight: 700
TTFWidth: 5
LineGap: 0
VLineGap: 0
Panose: 0 0 0 0 0 0 0 0 0 0
OS2TypoAscent: 613
OS2TypoAOffset: 0
OS2TypoDescent: -188
OS2TypoDOffset: 0
OS2TypoLinegap: 98
OS2WinAscent: 778
OS2WinAOffset: 0
OS2WinDescent: 308
OS2WinDOffset: 0
HheadAscent: 796
HheadAOffset: 0
HheadDescent: -317
HheadDOffset: 0
OS2SubXSize: 317
OS2SubYSize: 293
OS2SubXOff: 0
OS2SubYOff: 37
OS2SupXSize: 317
OS2SupYSize: 293
OS2SupXOff: 0
OS2SupYOff: 171
OS2StrikeYSize: 0
OS2StrikeYPos: 132
OS2CapHeight: 576
OS2XHeight: 485
OS2Vendor: 'NONE'
OS2CodePages: 00000001.00000000
OS2UnicodeRanges: 00000001.00000000.00000000.00000000
MarkAttachClasses: 1
DEI: 91125
LangName: 1033 "" "" "Normal" "" "" "Version 0.2.0"
Encoding: UnicodeBmp
UnicodeInterp: none
NameList: AGL For New Fonts
DisplaySize: -48
AntiAlias: 1
FitToEm: 0
WinInfo: 16 16 14
BeginPrivate: 9
BlueValues 32 [-39 -6 502 523 708 718 765 769]
OtherBlues 11 [-297 -287]
BlueScale 9 0.0291667
BlueShift 1 2
StdHW 5 [110]
StdVW 5 [128]
StemSnapH 5 [110]
StemSnapV 9 [128 134]
ForceBold 4 true
EndPrivate
BeginChars: 65537 105

StartChar: .notdef
Encoding: 65536 -1 0
Width: 593
GlyphClass: 1
Flags: W
LayerCount: 2
Fore
SplineSet
71 -280 m 1
 71 761 l 1
 523 761 l 1
 523 -280 l 1
 71 -280 l 1
149 683 m 1
 149 -202 l 1
 445 -202 l 1
 445 683 l 1
 149 683 l 1
EndSplineSet
Validated: 1
EndChar

StartChar: exclam
Encoding: 33 33 1
Width: 593
GlyphClass: 2
Flags: W
HStem: -37.002 179.001<239.867 356.872>
VStem: 203.002 187.036<-3.98231 106.918> 237 122.001<248.311 379.795> 245 115.001<294.405 784.434>
LayerCount: 2
Fore
SplineSet
367 738 m 0x90
 367 732 365.66796875 694.665039062 363.000976562 625.998046875 c 0
 361.000976562 557.331054688 360.000976562 502.331054688 360.000976562 460.998046875 c 0
 360.000976562 441.665039062 360.333984375 421.33203125 361.000976562 399.999023438 c 0
 361.66796875 379.33203125 362.000976562 361.33203125 362.000976562 345.999023438 c 0
 362.000976562 330.666015625 361.333984375 320.333007812 360.000976562 315 c 0x90
 359.333984375 309.666992188 359.000976562 302.666992188 359.000976562 294 c 0xa0
 359.000976562 285.333007812 359.333984375 277.333007812 360.000976562 270 c 0x90
 358.000976562 251.333007812 350.66796875 237 338.000976562 227 c 0
 326.66796875 217.666992188 313.000976562 212.666992188 297.000976562 212 c 2
 293.000976562 212 l 2
 276.333984375 212 262.666992188 218 252 230 c 0
 242 240 237 253.333007812 237 270 c 0xa0
 237 278 238.333007812 288.333007812 241 301 c 0
 243 314.333007812 244.333007812 324 245 330 c 0
 245.666992188 336 246 346.333007812 246 361 c 2
 246 402 l 2
 246 415.333007812 245.666992188 435.666015625 245 462.999023438 c 0
 243.666992188 494.999023438 243 525.666015625 243 554.999023438 c 2
 243 623.999023438 l 2
 243.666992188 640.666015625 244.333984375 661.333007812 245.000976562 686 c 0
 245.66796875 710.666992188 246.000976562 727 246.000976562 735 c 1
 246.66796875 756.333007812 253.000976562 773 265.000976562 785 c 0
 276.333984375 796.333007812 290.666992188 802 308 802 c 2
 311 802 l 2
 327 802 340.333007812 796.666992188 351 786 c 0
 361.666992188 775.333007812 367 759.333007812 367 738 c 0x90
289.000976562 -37.001953125 m 2
 265.66796875 -37.001953125 246.001953125 -29.0009765625 230.001953125 -13.0009765625 c 0
 212.001953125 5.666015625 203.001953125 27.9990234375 203.001953125 53.9990234375 c 0
 203.001953125 77.9990234375 213.001953125 98.33203125 233.001953125 114.999023438 c 0
 253.668945312 132.999023438 276.668945312 141.999023438 302.001953125 141.999023438 c 0
 327.334960938 141.999023438 348.334960938 133.999023438 365.001953125 117.999023438 c 0
 381.692684226 101.308292337 390.038049776 81.2172956514 390.038049776 57.7260333802 c 0xc0
 390.038049776 44.6736274185 389.468423227 17.443781264 366.000976562 -7.001953125 c 0
 349.333984375 -23.6689453125 327.333984375 -33.6689453125 300.000976562 -37.001953125 c 2
 289.000976562 -37.001953125 l 2
EndSplineSet
Validated: 1
EndChar

StartChar: quotedbl
Encoding: 34 34 2
Width: 593
GlyphClass: 2
Flags: W
VStem: 152 122.001<438.439 586.418> 155 127<442.249 783.227> 312.001 130<442.134 783.794>
LayerCount: 2
Fore
SplineSet
442.000976562 738 m 2x20
 442.000976562 719 l 2
 442.000976562 685 441.669921875 641.666992188 441.002929688 589 c 0
 439.669921875 533.666992188 437.669921875 495 435.002929688 473 c 0
 432.3359375 456.333007812 424.668945312 443.666015625 412.001953125 434.999023438 c 0
 401.334960938 426.999023438 389.66796875 422.999023438 377.000976562 422.999023438 c 0
 360.333984375 422.999023438 345.333984375 427.999023438 332.000976562 437.999023438 c 0
 319.333984375 447.33203125 313.000976562 459.999023438 313.000976562 475.999023438 c 2
 313.000976562 481.999023438 l 2
 314.333984375 504.666015625 315.000976562 531.999023438 315.000976562 563.999023438 c 0
 315.000976562 631.33203125 314.000976562 690.999023438 312.000976562 742.999023438 c 2
 312.000976562 745.999023438 l 2
 312.000976562 755.33203125 314.333984375 763.83203125 319.000976562 771.499023438 c 0
 323.66796875 779.166015625 330.334960938 784.666015625 339.001953125 787.999023438 c 0
 351.001953125 792.666015625 363.001953125 795.333007812 375.001953125 796 c 0
 385.001953125 796 393.168945312 795 399.501953125 793 c 0
 405.834960938 791 412.001953125 788.333007812 418.001953125 785 c 0
 425.334960938 781 431.16796875 774.833007812 435.500976562 766.5 c 0
 439.833984375 758.166992188 442.000976562 748.666992188 442.000976562 738 c 2x20
282 739 m 2x60
 282 697 l 2x60
 282 677.666992188 281.333984375 641.666992188 280.000976562 589 c 0
 278.66796875 533.666992188 276.66796875 495 274.000976562 473 c 0
 271.333984375 456.333007812 264.000976562 443.666015625 252.000976562 434.999023438 c 0
 241.333984375 426.999023438 229.666992188 422.999023438 217 422.999023438 c 0
 200.333007812 422.999023438 185 427.999023438 171 437.999023438 c 0
 158.333007812 447.33203125 152 459.999023438 152 475.999023438 c 0xa0
 152 477.999023438 152.333007812 480.33203125 153 482.999023438 c 0
 154.499954238 502.498428526 155.250137331 525.18532222 155.250137331 551.059292572 c 0
 155.250137331 559.685001883 155.166763309 568.664917259 155 577.999023438 c 2
 155 611.999023438 l 2
 154.333007812 679.33203125 153 724.33203125 151 746.999023438 c 0
 151 755.666015625 153.333007812 763.666015625 158 770.999023438 c 0
 163.333007812 778.999023438 170 784.666015625 178 787.999023438 c 0
 190 792.666015625 202.333007812 795.333007812 215 796 c 0
 225 796 233.166992188 795 239.5 793 c 0
 245.833007812 791 252.333007812 788 259 784 c 0
 265.666992188 780 271 774 275 766 c 0
 279 758 281.333007812 749 282 739 c 2x60
EndSplineSet
Validated: 1
EndChar

StartChar: numbersign
Encoding: 35 35 3
Width: 593
GlyphClass: 2
Flags: W
HStem: -13.999 20.9G<123.333 131.333 349.998 357.998> 179.001 107.003<37.5032 97 245.003 317.999 463 530.621> 433.004 109<76.4746 148 294.999 364.003 508 553.404>
LayerCount: 2
Fore
SplineSet
364.002929688 433.00390625 m 1
 274.002929688 433.00390625 l 1
 245.002929688 286.00390625 l 1
 269.002929688 286.670898437 299.669921875 287.001953125 337.002929688 287.001953125 c 1
 346.3359375 334.334960938 355.3359375 383.00390625 364.002929688 433.00390625 c 1
148 431 m 1
 130 430.333007812 120.002929688 430.333007813 118.002929688 431 c 0
 100.002929688 431 86.0029296875 435.334960938 76.0029296875 444.001953125 c 0
 64.669921875 454.001953125 58.669921875 466.668945312 58.0029296875 482.001953125 c 2
 58.0029296875 485.001953125 l 2
 58.0029296875 499.001953125 63.3330078125 511.334960938 74 522.001953125 c 0
 84.6669921875 532.668945312 100.002929688 538.3359375 120.002929688 539.002929688 c 0
 131.3359375 539.669921875 147.668945312 540.002929688 169.001953125 540.002929688 c 1
 196.001953125 686.002929688 l 2
 202.001953125 706.669921875 212.334960938 720.669921875 227.001953125 728.002929688 c 0
 236.334960938 733.3359375 246.334960938 736.3359375 257.001953125 737.002929688 c 0
 261.668945312 737.002929688 266.33203125 736.3359375 270.999023438 735.002929688 c 0
 288.33203125 731.669921875 301.668945312 723.336914062 311.001953125 710.00390625 c 0
 317.668945312 700.670898438 321.001953125 689.670898438 321.001953125 677.00390625 c 0
 321.001953125 671.00390625 320.334960938 665.00390625 319.001953125 659.00390625 c 2
 294.999023438 542.00390625 l 1
 383.001953125 542.00390625 l 1
 408.001953125 678.00390625 l 2
 414.001953125 699.336914062 424.334960938 714.00390625 439.001953125 722.00390625 c 0
 448.334960938 727.336914062 458.334960938 730.00390625 469.001953125 730.00390625 c 0
 474.334960938 730.00390625 479.334960938 729.3359375 484.001953125 728.002929688 c 0
 501.334960938 724.669921876 514.66796875 716.337890625 524.000976562 703.004882812 c 0
 530.000976562 694.337890625 533.333007813 684.004882812 534 672.004882812 c 0
 534 665.337890625 533 658.337890625 531 651.004882812 c 0
 524.333007813 626.337890625 516.666992188 590.337890625 508 543.004882812 c 1
 526 542.337890625 541.333007812 537.004882812 554 527.004882812 c 0
 567.333007812 515.671875 574.333007812 503.004882812 575 489.004882812 c 0
 575 473.671875 570 460.671875 560 450.004882812 c 0
 550 439.337890625 535 433.670898438 515 433.00390625 c 2
 514 433.00390625 l 1
 488 433.00390625 l 1
 463 286.00390625 l 1
 490 286.00390625 l 2
 509.333007812 286.00390625 523 281.336914062 531 272.00390625 c 0
 539 262.670898438 543.666992188 251.00390625 545 237.00390625 c 2
 545 236.00390625 l 2
 545 220.00390625 541.333007812 207.336914062 534 198.00390625 c 0
 524.666992188 186.00390625 510 180.00390625 490 180.00390625 c 2
 445 180.00390625 l 1
 432.333007812 109.336914062 423 60.669921875 417 34.0029296875 c 0
 410.333007812 16.0029296875 398.666015625 2.669921875 381.999023438 -5.9970703125 c 0
 372.398496235 -11.3972020648 362.797969033 -14.0990478564 353.19744183 -14.0990478564 c 0
 349.998046875 -13.9990234375 l 0
 344.665039062 -13.9990234375 339.33203125 -13.33203125 333.999023438 -11.9990234375 c 0
 317.999023438 -8.666015625 305.999023438 1.6689453125 297.999023438 19.001953125 c 0
 293.999023438 28.3349609375 291.666015625 37.66796875 290.999023438 47.0009765625 c 0
 290.999023438 55.0009765625 292.33203125 63.333984375 294.999023438 72.0009765625 c 0
 300.999023438 96.0009765625 308.666015625 131.66796875 317.999023438 179.000976562 c 1
 270.999023438 179.000976562 l 2
 251.666015625 179.000976562 235.999023438 178.66796875 223.999023438 178.000976562 c 1
 205.999023438 88.0009765625 195.999023438 41.0009765625 193.999023438 37.0009765625 c 0
 187.999023438 20.333984375 176.666015625 7.0009765625 159.999023438 -2.9990234375 c 0
 147.999023438 -10.33203125 136.666015625 -13.9990234375 125.999023438 -13.9990234375 c 0
 120.666015625 -13.9990234375 115.333007812 -13.33203125 110 -11.9990234375 c 0
 94 -8.666015625 82 2.333984375 74 21.0009765625 c 0
 70 30.333984375 68 39.333984375 68 48.0009765625 c 0
 68 57.333984375 69.6669921875 66.6669921875 73 76 c 0
 77.6669921875 92 85.6669921875 125.666992188 97 177 c 1
 82 177 l 2
 62.6669921875 177 47.6669921875 181 37 189 c 0
 25 197.666992188 19 209.666992188 19 225 c 2
 19 228 l 2
 19 242 24 254.333007812 34 265 c 0
 44 275 59 280.666992188 79 282 c 0
 84.3330078125 282 91.3330078125 282.333007812 100 283 c 2
 119 283 l 1
 148 431 l 1
EndSplineSet
Validated: 1
EndChar

StartChar: dollar
Encoding: 36 36 4
Width: 593
GlyphClass: 2
Flags: W
HStem: -32.0029 106.998<176.387 235.001>
VStem: 46.001 118<485.148 581.759> 240.001 117.001<-87.3984 -32.0029 92.9971 317.997 456.997 612.974> 448.033 117.967<146.588 273.466>
LayerCount: 2
Fore
SplineSet
332.5 -130 m 0
 319.5 -140 304.333984375 -145.002929688 287.000976562 -145.002929688 c 2
 285.000976562 -145.002929688 l 2
 267.000976562 -145.002929688 253.333984375 -139.002929688 244.000976562 -127.002929688 c 0
 236.66796875 -118.3359375 233.000976562 -106.668945312 233.000976562 -92.001953125 c 0
 233.000976562 -88.6689453125 233.333984375 -82.8359375 234.000976562 -74.5029296875 c 0
 234.66796875 -66.169921875 235.000976562 -52.0029296875 235.000976562 -32.0029296875 c 1
 211.000976562 -31.3359375 188.000976562 -28.0029296875 166.000976562 -22.0029296875 c 0
 144.000976562 -16.0029296875 125.000976562 -8.0029296875 109.000976562 1.9970703125 c 0
 77.0009765625 21.9970703125 53.333984375 45.9970703125 38.0009765625 73.9970703125 c 0
 31.333984375 88.6640625 28.0009765625 101.997070312 28.0009765625 113.997070312 c 0
 28.0009765625 117.997070312 28.333984375 121.6640625 29.0009765625 124.997070312 c 0
 32.333984375 140.330078125 41.6669921875 151.330078125 57 157.997070312 c 0
 65.6669921875 161.997070312 72.333984375 164.497070312 77.0009765625 165.497070312 c 0
 81.66796875 166.497070312 85.66796875 166.997070312 89.0009765625 166.997070312 c 0
 92.333984375 166.997070312 95.333984375 166.6640625 98.0009765625 165.997070312 c 0
 106.000976562 165.330078125 113.333984375 162.163085938 120.000976562 156.49609375 c 0
 126.66796875 150.829101562 133.66796875 143.329101562 141.000976562 133.99609375 c 0
 154.333984375 115.329101562 169.333984375 100.662109375 186.000976562 89.9951171875 c 0
 200.000976562 81.328125 217.333984375 76.328125 238.000976562 74.9951171875 c 1
 239.333984375 174.328125 240.000976562 263.661132812 240.000976562 342.994140625 c 1
 238.000976562 342.994140625 234.333984375 343.661132812 229.000976562 344.994140625 c 0
 225.000976562 345.661132812 219.66796875 345.994140625 213.000976562 345.994140625 c 0
 185.66796875 348.661132812 160.66796875 355.328125 138.000976562 365.995117188 c 0
 117.333984375 376.662109375 100.333984375 389.329101562 87.0009765625 403.99609375 c 0
 73.66796875 418.663085938 63.5009765625 434.330078125 56.5009765625 450.997070312 c 0
 49.5009765625 467.6640625 46.0009765625 484.6640625 46.0009765625 501.997070312 c 0
 46.0009765625 526.6640625 49.833984375 550.331054688 57.5009765625 572.998046875 c 0
 65.16796875 595.665039062 77.0009765625 616.83203125 93.0009765625 636.499023438 c 0
 109.000976562 656.166015625 130.333984375 672.999023438 157.000976562 686.999023438 c 0
 182.333984375 699.666015625 210.666992188 708.999023438 242 714.999023438 c 1
 242.666992188 728.33203125 243 743.999023438 243 761.999023438 c 1
 243.666992188 793.999023438 254.666992188 814.33203125 276 822.999023438 c 0
 283.333007812 825.666015625 292.333007812 826.999023438 303 826.999023438 c 0
 325 826.999023438 341 819.999023438 351 805.999023438 c 0
 358.333007812 795.999023438 362.333007812 782.33203125 363 764.999023438 c 2
 363 723.999023438 l 1
 378.333007812 722.666015625 398.666015625 718.999023438 423.999023438 712.999023438 c 0
 449.33203125 707.666015625 468.665039062 702.666015625 481.998046875 697.999023438 c 0
 497.331054688 692.666015625 508.6640625 683.666015625 515.997070312 670.999023438 c 0
 521.330078125 661.666015625 523.997070312 651.999023438 523.997070312 641.999023438 c 0
 523.997070312 638.666015625 523.6640625 635.333007812 522.997070312 632 c 0
 521.6640625 622 517.831054688 613.833007812 511.498046875 607.5 c 0
 505.165039062 601.166992188 497.33203125 597.333984375 487.999023438 596.000976562 c 0
 483.33203125 595.333984375 479.33203125 595.000976562 475.999023438 595.000976562 c 0
 472.666015625 595.000976562 468.833007812 595.16796875 464.5 595.500976562 c 0
 460.166992188 595.833984375 454.666992188 597.000976562 448 599.000976562 c 0
 440.666992188 600.333984375 432 603.333984375 422 608.000976562 c 0
 402 616.66796875 381.666992188 621.66796875 361 623.000976562 c 1
 359.666992188 558.333984375 358.666992188 497.000976562 358 439.000976562 c 1
 388 434.333984375 415.666992188 427.333984375 441 418.000976562 c 0
 465 408.000976562 484.833007812 396.000976562 500.5 382.000976562 c 0
 516.166992188 368.000976562 529.166992188 352.000976562 539.5 334.000976562 c 0
 549.833007812 316.000976562 556.833007812 298.333984375 560.5 281.000976562 c 0
 564.166992188 263.66796875 566 245.66796875 566 227.000976562 c 0
 566 195.66796875 560.5 166.16796875 549.5 138.500976562 c 0
 538.5 110.833984375 523.166992188 86.6669921875 503.5 66 c 0
 483.833007812 45.3330078125 461 27.666015625 435 12.9990234375 c 0
 410.333007812 -0.333984375 383.333007812 -10.6669921875 354 -18 c 1
 354 -52 354.666992188 -75.3330078125 356 -88 c 0
 353.333007812 -106 345.5 -120 332.5 -130 c 0
189.000976562 584.997070312 m 0
 172.333984375 569.6640625 164.000976562 551.6640625 164.000976562 530.997070312 c 0
 164.000976562 512.997070312 171.66796875 497.330078125 187.000976562 483.997070312 c 0
 200.333984375 471.997070312 218.000976562 462.997070312 240.000976562 456.997070312 c 1
 240.66796875 498.330078125 241.000976562 551.330078125 241.000976562 615.997070312 c 1
 220.333984375 607.997070312 203.000976562 597.6640625 189.000976562 584.997070312 c 0
418.000976562 136.997070312 m 0
 438.02188691 157.01798066 448.033229892 179.855170123 448.033229892 205.506863085 c 0
 448.033229892 214.470752537 447.656993174 226.20741423 444.001953125 238.998046875 c 0
 441.334960938 248.331054688 436.334960938 258.6640625 429.001953125 269.997070312 c 0
 416.334960938 288.6640625 392.334960938 304.6640625 357.001953125 317.997070312 c 1
 356.334960938 241.330078125 355.834960938 191.330078125 355.501953125 167.997070312 c 0
 355.168945312 144.6640625 354.668945312 119.6640625 354.001953125 92.9970703125 c 1
 379.334960938 104.997070312 400.66796875 119.6640625 418.000976562 136.997070312 c 0
EndSplineSet
Validated: 1
EndChar

StartChar: percent
Encoding: 37 37 5
Width: 593
GlyphClass: 2
Flags: W
LayerCount: 2
Fore
SplineSet
28.5 491.5 m 0
 18.8330078125 511.833007812 13.998046875 533.333007812 13.998046875 556 c 2
 13.998046875 558 l 2
 13.998046875 600 26.498046875 635 51.498046875 663 c 0
 76.498046875 691 112.665039062 705 159.998046875 705 c 0
 200.665039062 705 234.33203125 693 260.999023438 669 c 0
 274.999023438 656.333007812 285.666015625 640 292.999023438 620 c 0
 298.33203125 604 300.999023438 586 300.999023438 566 c 0
 300.999023438 516 286.666015625 478.333007812 257.999023438 453 c 0
 232.666015625 431 194.999023438 420 144.999023438 420 c 0
 117.666015625 420 93.8330078125 426.833007812 73.5 440.5 c 0
 53.1669921875 454.166992188 38.1669921875 471.166992188 28.5 491.5 c 0
61.998046875 -45 m 0
 53.3310546875 -41 46.3310546875 -36.00390625 40.998046875 -30.00390625 c 0
 33.6650390625 -22.00390625 29.998046875 -12.50390625 29.998046875 -1.50390625 c 0
 29.998046875 9.49609375 33.3310546875 21.3291015625 39.998046875 33.99609375 c 0
 53.998046875 61.99609375 87.3310546875 120.329101562 139.998046875 208.99609375 c 0
 253.331054688 387.663085938 309.998046875 477.330078125 309.998046875 477.997070312 c 0
 366.665039062 567.997070312 404.665039062 632.6640625 423.998046875 671.997070312 c 1
 423.998046875 664.6640625 424.331054688 664.997070312 424.998046875 672.997070312 c 1
 435.665039062 687.6640625 449.33203125 696.331054688 465.999023438 698.998046875 c 0
 470.666015625 700.331054688 475.333007812 700.998046875 480 700.998046875 c 0
 490.666992188 700.998046875 501 698.331054688 511 692.998046875 c 0
 526.333007812 685.665039062 535 675.33203125 537 661.999023438 c 0
 537.666992188 659.33203125 538 656.665039062 538 653.998046875 c 0
 538 642.665039062 533.666992188 630.33203125 525 616.999023438 c 0
 500.333007812 577.666015625 438.666015625 477.333007812 339.999023438 316 c 0
 239.33203125 154.666992188 172.665039062 45.6669921875 139.998046875 -11 c 0
 124.665039062 -37.6669921875 106.665039062 -51 85.998046875 -51 c 0
 78.6650390625 -51 70.6650390625 -49 61.998046875 -45 c 0
186.498046875 597.49609375 m 0
 178.831054688 604.49609375 166.998046875 607.99609375 150.998046875 607.99609375 c 0
 138.331054688 607.99609375 128.998046875 604.329101562 122.998046875 596.99609375 c 0
 115.665039062 588.329101562 111.33203125 575.99609375 109.999023438 559.99609375 c 2
 109.999023438 556.99609375 l 2
 109.999023438 544.99609375 112.666015625 535.99609375 117.999023438 529.99609375 c 0
 123.33203125 523.99609375 135.665039062 520.329101562 154.998046875 518.99609375 c 2
 155.998046875 518.99609375 l 2
 168.665039062 518.99609375 178.33203125 522.329101562 184.999023438 528.99609375 c 0
 192.33203125 536.99609375 196.665039062 547.663085938 197.998046875 560.99609375 c 2
 197.998046875 563.99609375 l 2
 197.998046875 579.329101562 194.165039062 590.49609375 186.498046875 597.49609375 c 0
308.498046875 34.49609375 m 0
 298.165039062 55.49609375 292.998046875 77.9970703125 292.998046875 101.997070312 c 2
 292.998046875 103.997070312 l 2
 292.998046875 147.997070312 306.665039062 184.497070312 333.998046875 213.497070312 c 0
 361.331054688 242.497070312 399.331054688 256.997070312 447.998046875 256.997070312 c 0
 485.998046875 256.997070312 517.998046875 244.6640625 543.998046875 219.997070312 c 0
 557.331054688 207.330078125 566.998046875 189.997070312 572.998046875 167.997070312 c 0
 577.665039062 151.997070312 579.998046875 134.330078125 579.998046875 114.997070312 c 0
 579.998046875 108.330078125 579.665039062 101.663085938 578.998046875 94.99609375 c 0
 576.998046875 50.99609375 564.331054688 17.49609375 540.998046875 -5.50390625 c 0
 517.665039062 -28.50390625 482.665039062 -40.00390625 435.998046875 -40.00390625 c 2
 430.998046875 -40.00390625 l 2
 402.998046875 -39.3369140625 378.165039062 -32.00390625 356.498046875 -18.00390625 c 0
 334.831054688 -4.00390625 318.831054688 13.49609375 308.498046875 34.49609375 c 0
442.998046875 60.9970703125 m 0
 443.665039062 60.9970703125 444.666992188 60.6640625 446 59.9970703125 c 0
 458 59.9970703125 466.666992188 63.6640625 472 70.9970703125 c 0
 479.333007812 79.6640625 483.666015625 91.6640625 484.999023438 106.997070312 c 2
 484.999023438 108.997070312 l 2
 484.999023438 124.997070312 481.999023438 136.997070312 475.999023438 144.997070312 c 0
 469.33203125 154.330078125 457.665039062 158.997070312 440.998046875 158.997070312 c 0
 428.331054688 158.997070312 418.6640625 154.6640625 411.997070312 145.997070312 c 0
 403.997070312 135.997070312 399.330078125 122.6640625 397.997070312 105.997070312 c 2
 397.997070312 102.997070312 l 2
 397.997070312 89.6640625 400.830078125 79.4970703125 406.497070312 72.4970703125 c 0
 412.1640625 65.4970703125 424.331054688 61.6640625 442.998046875 60.9970703125 c 0
EndSplineSet
Validated: 1
EndChar

StartChar: ampersand
Encoding: 38 38 6
Width: 593
GlyphClass: 2
Flags: W
LayerCount: 2
Fore
SplineSet
554 11 m 0
 554 7.6669921875 553.666015625 4.0048828125 552.999023438 0.0048828125 c 0
 550.33203125 -23.328125 542.33203125 -38.6611328125 528.999023438 -45.994140625 c 0
 516.33203125 -50.6611328125 508.33203125 -52.994140625 504.999023438 -52.994140625 c 2
 503.999023438 -52.994140625 l 2
 495.33203125 -52.994140625 485.999023438 -50.6611328125 475.999023438 -45.994140625 c 0
 458.666015625 -37.3271484375 443.999023438 -22.3271484375 431.999023438 -0.994140625 c 0
 429.999023438 2.3388671875 426.83203125 9.8388671875 422.499023438 21.505859375 c 0
 418.166015625 33.1728515625 414.999023438 41.6728515625 412.999023438 47.005859375 c 1
 397.999023438 27.505859375 l 2
 394.666015625 23.1728515625 388.999023438 16.83984375 380.999023438 8.5068359375 c 0
 372.999023438 0.173828125 366.166015625 -6.326171875 360.499023438 -10.9931640625 c 0
 354.83203125 -15.66015625 347.165039062 -21.16015625 337.498046875 -27.4931640625 c 0
 327.831054688 -33.826171875 318.331054688 -38.4931640625 308.998046875 -41.4931640625 c 0
 299.665039062 -44.4931640625 288.998046875 -47.326171875 276.998046875 -49.9931640625 c 0
 264.998046875 -52.66015625 252.665039062 -53.9931640625 239.998046875 -53.9931640625 c 0
 199.998046875 -53.9931640625 163.498046875 -43.826171875 130.498046875 -23.4931640625 c 0
 97.498046875 -3.16015625 71.8310546875 23.6728515625 53.498046875 57.005859375 c 0
 35.1650390625 90.3388671875 25.998046875 126.338867188 25.998046875 165.005859375 c 0
 25.998046875 223.005859375 36.6650390625 272.672851562 57.998046875 314.005859375 c 0
 83.3310546875 362.672851562 122.998046875 400.672851562 176.998046875 428.005859375 c 1
 159.498046875 455.505859375 l 2
 152.498046875 466.505859375 147.165039062 475.005859375 143.498046875 481.005859375 c 0
 139.831054688 487.005859375 135.498046875 494.838867188 130.498046875 504.505859375 c 0
 125.498046875 514.172851562 121.998046875 522.672851562 119.998046875 530.005859375 c 0
 115.331054688 550.005859375 112.998046875 569.672851562 112.998046875 589.005859375 c 0
 112.998046875 601.672851562 114.665039062 614.505859375 117.998046875 627.505859375 c 0
 121.331054688 640.505859375 127.331054688 653.672851562 135.998046875 667.005859375 c 0
 144.665039062 680.338867188 155.33203125 692.171875 167.999023438 702.504882812 c 0
 180.666015625 712.837890625 196.999023438 721.004882812 216.999023438 727.004882812 c 0
 236.999023438 733.004882812 259.33203125 736.004882812 283.999023438 736.004882812 c 0
 304.666015625 736.004882812 324.999023438 732.837890625 344.999023438 726.504882812 c 0
 364.999023438 720.171875 383.33203125 710.671875 399.999023438 698.004882812 c 0
 416.666015625 685.337890625 429.999023438 668.670898438 439.999023438 648.00390625 c 0
 449.999023438 627.336914062 454.999023438 604.336914062 454.999023438 579.00390625 c 0
 454.999023438 556.336914062 451.999023438 535.169921875 445.999023438 515.502929688 c 0
 439.999023438 495.8359375 432.499023438 479.3359375 423.499023438 466.002929688 c 0
 414.499023438 452.669921875 403.33203125 440.169921875 389.999023438 428.502929688 c 0
 376.666015625 416.8359375 365.333007812 408.002929688 356 402.002929688 c 0
 346.666992188 396.002929688 337 390.669921875 327 386.002929688 c 1
 339 366.002929688 355.833007812 340.8359375 377.5 310.502929688 c 0
 399.166992188 280.169921875 415 257.669921875 425 243.002929688 c 1
 427 247.002929688 429.833007812 253.169921875 433.5 261.502929688 c 0
 437.166992188 269.8359375 440.833984375 278.002929688 444.500976562 286.002929688 c 0
 448.16796875 294.002929688 451.334960938 300.002929688 454.001953125 304.002929688 c 0
 467.334960938 324.002929688 480.66796875 336.3359375 494.000976562 341.002929688 c 0
 499.333984375 343.002929688 505.000976562 344.002929688 511.000976562 344.002929688 c 0
 520.333984375 344.002929688 529.666992188 341.669921875 539 337.002929688 c 0
 554.333007812 329.669921875 563.333007812 317.002929688 566 299.002929688 c 0
 566.666992188 295.002929688 567.333984375 290.669921875 568.000976562 286.002929688 c 0
 568.000976562 272.002929688 564.000976562 257.3359375 556.000976562 242.002929688 c 0
 552.66796875 235.3359375 543.000976562 222.168945312 527.000976562 202.501953125 c 0
 511.000976562 182.834960938 498.000976562 165.66796875 488.000976562 151.000976562 c 1
 495.333984375 139.000976562 505.166992188 122.16796875 517.5 100.500976562 c 0
 529.833007812 78.833984375 537.333007812 65.6669921875 540 61 c 0
 549.333007812 45 554 28.3330078125 554 11 c 0
231.999023438 572.004882812 m 0
 231.999023438 557.337890625 235.999023438 541.338867188 243.999023438 524.005859375 c 0
 251.999023438 506.672851562 260.999023438 491.672851562 270.999023438 479.005859375 c 1
 281.666015625 482.338867188 291.166015625 486.171875 299.499023438 490.504882812 c 0
 307.83203125 494.837890625 315.999023438 500.337890625 323.999023438 507.004882812 c 0
 331.999023438 513.671875 337.83203125 522.004882812 341.499023438 532.004882812 c 0
 345.166015625 542.004882812 346.999023438 554.337890625 346.999023438 569.004882812 c 0
 346.999023438 589.671875 340.666015625 605.504882812 327.999023438 616.504882812 c 0
 315.33203125 627.504882812 299.83203125 633.004882812 281.499023438 633.004882812 c 0
 263.166015625 633.004882812 249.999023438 627.337890625 241.999023438 616.004882812 c 0
 235.33203125 606.004882812 231.999023438 591.337890625 231.999023438 572.004882812 c 0
149.999023438 174.005859375 m 0
 149.999023438 142.005859375 158.50390625 115.673828125 175.50390625 95.0068359375 c 0
 192.50390625 74.33984375 214.336914062 64.0068359375 241.00390625 64.0068359375 c 0
 255.670898438 64.0068359375 271.00390625 66.673828125 287.00390625 72.0068359375 c 0
 292.336914062 74.0068359375 298.169921875 77.173828125 304.502929688 81.5068359375 c 0
 310.8359375 85.83984375 315.668945312 89.33984375 319.001953125 92.0068359375 c 0
 322.334960938 94.673828125 326.66796875 99.0068359375 332.000976562 105.006835938 c 0
 337.333984375 111.006835938 341.000976562 115.173828125 343.000976562 117.506835938 c 0
 345.000976562 119.83984375 347.66796875 123.506835938 351.000976562 128.506835938 c 0
 354.333984375 133.506835938 356.666992188 136.673828125 358 138.006835938 c 0
 348.666992188 158.006835938 339.666992188 176.006835938 331 192.006835938 c 0
 323 207.33984375 308 230.672851562 286 262.005859375 c 0
 264 293.338867188 247.666992188 317.338867188 237 334.005859375 c 1
 222.333007812 326.672851562 209.666015625 318.005859375 198.999023438 308.005859375 c 0
 186.33203125 296.005859375 176.499023438 283.005859375 169.499023438 269.005859375 c 0
 162.499023438 255.005859375 157.499023438 240.338867188 154.499023438 225.005859375 c 0
 151.499023438 209.672851562 149.999023438 192.672851562 149.999023438 174.005859375 c 0
EndSplineSet
Validated: 1
EndChar

StartChar: quotesingle
Encoding: 39 39 7
Width: 593
GlyphClass: 2
Flags: W
VStem: 231.999 130.001<452.314 772.656> 231.999 122<449.441 601.295>
LayerCount: 2
Fore
SplineSet
362 728 m 2x80
 362 687.000976562 l 2x80
 362 669.000976562 361.665039062 641.333984375 360.998046875 604.000976562 c 0
 359.665039062 546.000976562 357.33203125 506.000976562 353.999023438 484.000976562 c 0x40
 351.33203125 466.66796875 343.999023438 453.66796875 331.999023438 445.000976562 c 0
 321.33203125 437.66796875 309.665039062 434.000976562 296.998046875 434.000976562 c 0
 279.665039062 434.000976562 264.33203125 439.000976562 250.999023438 449.000976562 c 0
 238.33203125 458.333984375 231.999023438 471.333984375 231.999023438 488.000976562 c 0
 231.999023438 490.000976562 232.33203125 491.66796875 232.999023438 493.000976562 c 0
 234.33203125 519.66796875 234.999023438 549.66796875 234.999023438 583.000976562 c 0
 234.999023438 630.333984375 233.999023438 680.000976562 231.999023438 732.000976562 c 2
 231.999023438 735.000976562 l 2
 231.999023438 744.333984375 233.999023438 752.666992188 237.999023438 760 c 0
 242.666015625 768 249.333007812 774 258 778 c 0
 270 782.666992188 282.333007812 785 295 785 c 0
 305 785 313 784 319 782 c 0
 325.666992188 780 332 777.333007812 338 774 c 0
 345.333007812 770 351 763.666992188 355 755 c 0
 359 747 361.333007812 738 362 728 c 2x80
EndSplineSet
Validated: 1
EndChar

StartChar: parenleft
Encoding: 40 40 8
Width: 593
GlyphClass: 2
Flags: W
HStem: -144 109<365.684 443.529> 721 105.053<351.655 441.498>
VStem: 134.998 122.75<154.284 548.553>
LayerCount: 2
Fore
SplineSet
458 -93 m 0
 458 -107.666992188 452.330078125 -119.666992188 440.997070312 -129 c 0
 429.6640625 -138.333007812 417.6640625 -143.333007812 404.997070312 -144 c 0
 356.997070312 -144 313.997070312 -127 275.997070312 -93 c 0
 237.997070312 -59 207.330078125 -13 183.997070312 45 c 0
 160.6640625 103 145.331054688 169.666992188 137.998046875 245 c 0
 135.998046875 265.666992188 134.998046875 291.333984375 134.998046875 322.000976562 c 0
 134.998046875 352.66796875 136.998046875 391.000976562 140.998046875 437.000976562 c 0
 147.665039062 516.333984375 160.998046875 581.666992188 180.998046875 633 c 0
 189.665039062 656.333007812 201.33203125 679 215.999023438 701 c 0
 230.666015625 723 247.999023438 743.666992188 267.999023438 763 c 0
 287.33203125 781.666992188 308.999023438 797 332.999023438 809 c 0
 356.367247196 820.368175048 379.435730639 826.052677717 402.205304052 826.052677717 c 0
 403.470800454 826.052677717 404.735373535 826.035118526 405.999023438 826 c 0
 424.666015625 826 438.666015625 820.333007812 447.999023438 809 c 0
 455.33203125 800.333007812 458.999023438 788.333007812 458.999023438 773 c 0
 458.999023438 755 453.33203125 741.666992188 441.999023438 733 c 0
 431.33203125 725 418.665039062 721 403.998046875 721 c 0
 389.331054688 721 375.331054688 716.333007812 361.998046875 707 c 0
 348.665039062 698.333007812 336.665039062 686 325.998046875 670 c 0
 304.665039062 638 288.665039062 598 277.998046875 550 c 0
 269.331054688 514.666992188 263.331054688 467.666992188 259.998046875 409 c 0
 258.498092637 386.000457556 257.747909544 364.876166896 257.747909544 345.626716072 c 0
 257.747909544 339.209449418 257.831283567 333.000549148 257.998046875 327 c 0
 257.998046875 303 258.665039062 281.666992188 259.998046875 263 c 0
 263.331054688 223.666992188 270.331054688 185 280.998046875 147 c 0
 291.665039062 109 304.33203125 77 318.999023438 51 c 0
 332.999023438 24.3330078125 347.999023438 3 363.999023438 -13 c 0
 378.666015625 -27.6669921875 392.333007812 -35 405 -35 c 0
 421 -35 434 -39.3330078125 444 -48 c 0
 453.333007812 -56.6669921875 458 -71.6669921875 458 -93 c 0
EndSplineSet
Validated: 1
EndChar

StartChar: parenright
Encoding: 41 41 9
Width: 593
GlyphClass: 2
Flags: W
HStem: -144 109<150.412 228.234> 721.001 105.1<152.501 242.734>
VStem: 336.251 122.748<154.284 545.5>
LayerCount: 2
Fore
SplineSet
189 -144 m 0
 176.333007812 -144 164.333984375 -138.999023438 153.000976562 -128.999023438 c 0
 141.66796875 -119.666015625 136.000976562 -107.666015625 136.000976562 -92.9990234375 c 0
 136.000976562 -71.666015625 140.66796875 -56.666015625 150.000976562 -47.9990234375 c 0
 158.711480045 -39.2885199547 170.61611835 -34.9332682133 185.714891477 -34.9332682133 c 0
 186.793939509 -34.9332682133 187.889301204 -34.9555121422 189.000976562 -35 c 0
 201.000976562 -35 214.333984375 -27.6669921875 229.000976562 -13 c 0
 245.66796875 3 261.000976562 24.3330078125 275.000976562 51 c 0
 289.000976562 77.6669921875 301.66796875 109.666992188 313.000976562 147 c 0
 323.66796875 185 330.66796875 223.666992188 334.000976562 263 c 0
 335.5009308 277.999542375 336.251113893 294.124016108 336.251113893 311.373421198 c 0
 336.251113893 317.123924583 336.167739871 322.99945085 336.000976562 329 c 0
 336.000976562 352.333007812 335.333984375 379 334.000976562 409 c 0
 330.66796875 467.666992188 324.66796875 514.666992188 316.000976562 550 c 0
 305.333984375 597.333007812 289.333984375 637.333007812 268.000976562 670 c 0
 258.000976562 686 246.000976562 698.333007812 232.000976562 707 c 0
 218.66796875 715.666992188 204.66796875 720.333984375 190.000976562 721.000976562 c 0
 175.333984375 721.000976562 162.666992188 725.000976562 152 733.000976562 c 0
 140.666992188 741.66796875 135 755.000976562 135 773.000976562 c 0
 135 783.000976562 136.666992188 792.000976562 140 800.000976562 c 0
 143.333007812 807.333984375 148.333007812 813.333984375 155 818.000976562 c 0
 163.399419979 823.400792022 173.149011343 826.101055673 184.248774094 826.101055673 c 0
 185.482502551 826.101055673 186.732911187 826.067696295 188 826.000976562 c 0
 212.666992188 826.000976562 237 820.333984375 261 809.000976562 c 0
 285 797.000976562 306.666992188 781.66796875 326 763.000976562 c 0
 345.333007812 744.333984375 362.333007812 723.666992188 377 701 c 0
 391.666992188 679 403.666992188 656.333007812 413 633 c 0
 432.333007812 581.666992188 445.666015625 516.333984375 452.999023438 437.000976562 c 0
 456.999023438 391.000976562 458.999023438 352.66796875 458.999023438 322.000976562 c 0
 458.999023438 291.333984375 457.999023438 265.666992188 455.999023438 245 c 0
 448.666015625 169.666992188 433.333007812 103 410 45 c 0
 386.666992188 -13 355.666992188 -59 317 -93 c 0
 279.666992188 -127 237 -144 189 -144 c 0
EndSplineSet
Validated: 1
EndChar

StartChar: asterisk
Encoding: 42 42 10
Width: 593
GlyphClass: 2
Flags: W
HStem: 281.004 127.999<50.5315 193.973> 289.002 119.001<391.145 546.84> 294.001 101.002<390 505.872>
LayerCount: 2
Fore
SplineSet
210 102 m 2x20
 199.997070312 102 l 2
 195.330078125 102 189.497070312 102.670898438 182.497070312 104.00390625 c 0
 175.497070312 105.336914062 168.6640625 108 161.997070312 112 c 0
 155.330078125 116 149.330078125 122.00390625 143.997070312 130.00390625 c 0
 138.6640625 138.00390625 134.997070312 147.336914062 132.997070312 158.00390625 c 2
 132.997070312 165.00390625 l 2
 132.997070312 175.00390625 135.6640625 185.333984374 140.997070312 196.000976562 c 2
 195.997070312 285.00390625 l 1
 152.6640625 282.336914062 119.6640625 281.00390625 96.9970703125 281.00390625 c 0
 76.9970703125 281.00390625 61.330078125 287.670898438 49.9970703125 301.00390625 c 0
 39.9970703125 313.00390625 34.6640625 327.00390625 33.9970703125 343.00390625 c 2
 33.9970703125 346.00390625 l 2
 33.9970703125 359.336914062 37.6640625 372.669921875 44.9970703125 386.002929688 c 0
 49.6640625 394.002929688 56.6640625 400.002929688 65.9970703125 404.002929688 c 0
 73.330078125 407.3359375 81.330078125 409.002929688 89.9970703125 409.002929688 c 2
 94.9970703125 409.002929688 l 2x80
 121.6640625 407.002929688 159.331054688 404.3359375 207.998046875 401.002929688 c 1
 184.665039062 439.669921875 164.998046875 470.002929688 148.998046875 492.002929688 c 0
 139.665039062 507.3359375 134.998046875 522.3359375 134.998046875 537.002929688 c 0
 134.998046875 539.669921875 135.331054688 542.336914062 135.998046875 545.00390625 c 0
 137.998046875 563.670898438 145.998046875 576.670898438 159.998046875 584.00390625 c 0
 168.665039062 589.336914062 178.498046875 592.00390625 189.498046875 592.00390625 c 0
 200.498046875 592.00390625 211.665039062 588.669921876 222.998046875 582.002929688 c 0
 234.331054688 575.3359375 243.331054688 565.669921875 249.998046875 553.002929688 c 0
 256.665039062 539.002929688 272.665039062 507.669921875 297.998046875 459.002929688 c 1
 317.331054688 493.669921875 333.331054688 524.669921875 345.998046875 552.002929688 c 0
 351.998046875 564.669921875 360.331054688 574.169921875 370.998046875 580.502929688 c 0
 381.665039062 586.8359375 391.998046875 590.002929688 401.998046875 590.002929688 c 0
 412.665039062 590.002929688 422.665039062 587.3359375 431.998046875 582.002929688 c 0
 440.665039062 577.3359375 447.665039062 570.502929688 452.998046875 561.502929688 c 0
 458.331054688 552.502929688 460.998046875 542.002929688 460.998046875 530.002929688 c 0
 460.998046875 516.669921875 456.998046875 504.336914062 448.998046875 493.00390625 c 0
 430.998046875 466.336914062 410.998046875 433.669921875 388.998046875 395.002929688 c 1x20
 434.998046875 395.669921875 468.331054688 399.002929688 488.998046875 405.002929688 c 0
 497.665039062 407.002929688 503.33203125 408.002929688 505.999023438 408.002929688 c 0x40
 518.666015625 408.002929688 529.666015625 403.669921875 538.999023438 395.002929688 c 0x20
 552.33203125 382.3359375 559.33203125 368.668945312 559.999023438 354.001953125 c 0
 559.999023438 339.334960938 556.33203125 325.334960938 548.999023438 312.001953125 c 0
 544.33203125 304.001953125 537.999023438 297.668945312 529.999023438 293.001953125 c 0
 523.999023438 290.334960938 517.666015625 289.001953125 510.999023438 289.001953125 c 0x40
 507.666015625 289.001953125 504.333007812 289.334960938 501 290.001953125 c 0
 487.112196211 292.779188394 464.4302661 294.167806028 432.953644691 294.167806028 c 0
 426.654631369 294.167806028 420.003417981 294.112196206 413 294.000976562 c 2
 390 294.000976562 l 1
 447 196.000976562 l 2
 454.333007812 181.333984375 458 168.000976562 458 156.000976562 c 0
 458 153.333984375 457.666992188 150.666992188 457 148 c 0
 455 132 448 120.666992188 436 114 c 0
 426.666992188 108 415 105 401 105 c 0
 390.333007812 105 379.666015625 107.333007812 368.999023438 112 c 0
 355.666015625 118 346.666015625 128 341.999023438 142 c 0
 334.666015625 164 321.333007812 194.666992188 302 234 c 1
 277.333007812 184.666992188 261.666015625 151.666992188 254.999023438 135 c 0
 251.666015625 124.333007812 245.833007812 116.333007812 237.5 111 c 0
 229.166992188 105.666992188 220 102.666992188 210 102 c 2x20
EndSplineSet
Validated: 1
EndChar

StartChar: plus
Encoding: 43 43 11
Width: 593
GlyphClass: 2
Flags: W
LayerCount: 2
Fore
SplineSet
347 347 m 1
 347.999023438 249.999023438 l 2
 347.999023438 230.666015625 343.33203125 216.999023438 333.999023438 208.999023438 c 0
 324.666015625 200.33203125 312.999023438 195.665039062 298.999023438 194.998046875 c 2
 297.999023438 194.998046875 l 2
 281.999023438 194.998046875 269.666015625 198.665039062 260.999023438 205.998046875 c 0
 248.999023438 215.331054688 242.999023438 229.998046875 242.999023438 249.998046875 c 2
 242.999023438 344.998046875 l 1
 153.999023438 343.998046875 l 2
 133.999023438 343.998046875 118.999023438 349.331054688 108.999023438 359.998046875 c 0
 98.33203125 370.665039062 92.9990234375 383.665039062 92.9990234375 398.998046875 c 2
 92.9990234375 401.998046875 l 2
 92.9990234375 415.998046875 97.666015625 428.331054688 106.999023438 438.998046875 c 0
 116.999023438 449.665039062 131.33203125 454.998046875 149.999023438 454.998046875 c 0
 151.33203125 454.998046875 161.999023438 454.665039062 181.999023438 453.998046875 c 0
 201.999023438 453.331054688 222.33203125 452.998046875 242.999023438 452.998046875 c 1
 242.999023438 492.331054688 241.999023438 525.6640625 239.999023438 552.997070312 c 0
 239.999023438 571.6640625 246.33203125 585.331054688 258.999023438 593.998046875 c 0
 268.33203125 600.665039062 280.33203125 603.998046875 294.999023438 603.998046875 c 2
 298.999023438 603.998046875 l 2
 312.999023438 603.998046875 324.999023438 600.665039062 334.999023438 593.998046875 c 0
 346.33203125 585.998046875 351.999023438 572.998046875 351.999023438 554.998046875 c 2
 351.999023438 548.998046875 l 2
 349.999023438 514.998046875 348.666015625 482.665039062 347.999023438 451.998046875 c 1
 445.999023438 451.998046875 l 2
 465.33203125 451.998046875 478.999023438 447.331054688 486.999023438 437.998046875 c 0
 494.999023438 428.665039062 499.666015625 416.998046875 500.999023438 402.998046875 c 2
 500.999023438 401.998046875 l 2
 500.999023438 394.665039062 500.33203125 388.33203125 498.999023438 382.999023438 c 0
 497.666015625 376.999023438 494.999023438 370.999023438 490.999023438 364.999023438 c 0
 486.33203125 357.666015625 479.999023438 352.333007812 471.999023438 349 c 0
 465.999023438 347 459.33203125 346 451.999023438 346 c 2
 444.999023438 346 l 2
 434.999023438 347.333007812 420.666015625 348 401.999023438 348 c 0
 382.666015625 348 364.333007812 347.666992188 347 347 c 1
EndSplineSet
Validated: 1
EndChar

StartChar: comma
Encoding: 44 44 12
Width: 593
GlyphClass: 2
Flags: W
LayerCount: 2
Fore
SplineSet
268 -223 m 0
 257.333007812 -227 248.001953125 -228.999023438 240.001953125 -228.999023438 c 0
 232.001953125 -228.999023438 225.001953125 -227.666015625 219.001953125 -224.999023438 c 0
 210.334960938 -222.33203125 202.334960938 -217.33203125 195.001953125 -209.999023438 c 0
 187.668945312 -202.666015625 183.3359375 -193.333007812 182.002929688 -182 c 2
 182.002929688 -176 l 2
 182.002929688 -166 185.3359375 -156 192.002929688 -146 c 0
 205.3359375 -127.333007812 224.002929688 -84.3330078125 248.002929688 -17 c 0
 272.002929688 49 287.002929688 96 293.002929688 124 c 0
 295.669921875 136 301.669921875 145.333007812 311.002929688 152 c 0
 320.3359375 159.333007812 330.668945312 163 342.001953125 163 c 2
 344.001953125 163 l 2
 352.001953125 163 360.334960938 162.333007812 369.001953125 161 c 0
 382.334960938 157 393.334960938 149 402.001953125 137 c 0
 408.668945312 127.666992188 412.001953125 117.333984375 412.001953125 106.000976562 c 0
 412.001953125 101.333984375 411.668945312 97.333984375 411.001953125 94.0009765625 c 0
 404.334960938 61.333984375 389.66796875 10.6669921875 367.000976562 -58 c 0
 344.333984375 -127.333007812 327.000976562 -170.333007812 315.000976562 -187 c 0
 302.333984375 -204.333007812 286.666992188 -216.333007812 268 -223 c 0
EndSplineSet
Validated: 1
EndChar

StartChar: hyphen
Encoding: 45 45 13
Width: 593
GlyphClass: 2
Flags: W
LayerCount: 2
Fore
SplineSet
184 342 m 0
 222 342 267 342.333984375 319 343.000976562 c 0
 371.666992188 343.66796875 401.666992188 344.334960938 409 345.001953125 c 0
 428.333007812 345.001953125 442 340.334960938 450 331.001953125 c 0
 458 321.668945312 462.666992188 310.001953125 464 296.001953125 c 2
 464 295.001953125 l 2
 464 279.001953125 460.333007812 266.668945312 453 258.001953125 c 0
 443.666992188 246.001953125 429 239.668945312 409 239.001953125 c 0
 400.333007812 239.001953125 366.666015625 237.668945312 307.999023438 235.001953125 c 0
 249.33203125 232.334960938 208.33203125 230.66796875 184.999023438 230.000976562 c 0
 169.666015625 230.000976562 157.333007812 234.000976562 148 242.000976562 c 0
 136 251.333984375 130 265.666992188 130 285 c 2
 130 290 l 2
 130 308.666992188 136 322.666992188 148 332 c 0
 156.666992188 338.666992188 168.666992188 342 184 342 c 0
EndSplineSet
Validated: 1
EndChar

StartChar: period
Encoding: 46 46 14
Width: 593
GlyphClass: 2
Flags: W
HStem: -26 178.037<238.663 356.871>
VStem: 203.001 187.036<6.96988 117.608>
LayerCount: 2
Fore
SplineSet
289 -26 m 2
 265.666992188 -26 246.000976562 -18 230.000976562 -2 c 0
 212.000976562 16.6669921875 203.000976562 38.333984375 203.000976562 63.0009765625 c 0
 203.000976562 87.66796875 213.000976562 108.66796875 233.000976562 126.000976562 c 0
 252.92955161 143.357849183 275.02739928 152.036723285 299.294519573 152.036723285 c 0
 300.193693625 152.036723285 301.095845955 152.024807725 302.000976562 152.000976562 c 0
 327.333984375 152.000976562 348.333984375 144.000976562 365.000976562 128.000976562 c 0
 381.691707665 111.31024546 390.037073216 91.5280345416 390.037073216 68.6552157814 c 0
 390.037073216 55.523275484 389.401392622 28.3769267509 366 4 c 0
 349.333007812 -12.6669921875 327.333007812 -22.6669921875 300 -26 c 2
 289 -26 l 2
EndSplineSet
Validated: 1
EndChar

StartChar: slash
Encoding: 47 47 15
Width: 593
GlyphClass: 2
Flags: W
LayerCount: 2
Fore
SplineSet
113 -67 m 0
 103.666992188 -71.6669921875 94.33203125 -73.9970703125 84.9990234375 -73.9970703125 c 0
 75.666015625 -73.9970703125 66.9990234375 -71.330078125 58.9990234375 -65.9970703125 c 0
 45.666015625 -57.9970703125 37.666015625 -42.6640625 34.9990234375 -19.9970703125 c 0
 34.33203125 -16.6640625 34.33203125 -12.9970703125 34.9990234375 -8.9970703125 c 0
 34.9990234375 9.0029296875 39.666015625 25.669921875 48.9990234375 41.0029296875 c 0
 146.33203125 201.002929688 229.665039062 343.002929688 298.998046875 467.002929688 c 1
 298.998046875 467.002929688 l 1
 342.331054688 543.002929688 388.331054688 629.669921875 436.998046875 727.002929688 c 0
 443.665039062 739.669921875 452.33203125 749.002929688 462.999023438 755.002929688 c 0
 473.666015625 761.669921875 484.333007812 765.336914062 495 766.00390625 c 0
 505.666992188 766.00390625 516.333984375 763.670898438 527.000976562 759.00390625 c 0
 542.333984375 751.00390625 552.333984375 739.00390625 557.000976562 723.00390625 c 0
 558.333984375 718.336914062 559.000976562 713.669921875 559.000976562 709.002929688 c 0
 559.000976562 697.669921875 555.66796875 685.002929688 549.000976562 671.002929688 c 0
 531.66796875 636.3359375 483.000976562 552.668945312 403.000976562 420.001953125 c 0
 323.000976562 287.334960938 274.333984375 204.66796875 257.000976562 172.000976562 c 0
 246.333984375 151.333984375 229.000976562 116.333984375 205.000976562 67.0009765625 c 0
 181.000976562 17.66796875 166.000976562 -12.33203125 160.000976562 -22.9990234375 c 0
 147.333984375 -43.666015625 131.666992188 -58.3330078125 113 -67 c 0
EndSplineSet
Validated: 1
EndChar

StartChar: zero
Encoding: 48 48 16
Width: 593
GlyphClass: 2
Flags: W
HStem: -24.001 107.996<207.582 367.455> 611.995 106.005<223.514 374.24>
VStem: 38.001 121<228.996 530.163> 436.001 115.999<165.933 399.325 400.71 457.995>
LayerCount: 2
Fore
SplineSet
436.000976562 457.995117188 m 1
 363.333984375 330.662109375 279.668945312 221.995117188 185.001953125 131.995117188 c 1
 203.001953125 100.662109375 232.333984375 84.662109375 273.000976562 83.9951171875 c 0
 292.333984375 83.9951171875 309.001953125 85.4951171875 323.001953125 88.4951171875 c 0
 337.001953125 91.4951171875 350.334960938 96.328125 363.001953125 102.995117188 c 0
 388.334960938 116.328125 407.66796875 143.328125 421.000976562 183.995117188 c 0
 423.66796875 191.995117188 426.66796875 213.495117188 430.000976562 248.495117188 c 0
 433.333984375 283.495117188 435.666992188 323.995117188 437 369.995117188 c 0
 437.222439289 379.999999998 437.333658934 389.930700174 437.333658934 399.787253938 c 0
 437.333658934 419.485930209 436.889431476 438.888454912 436.000976562 457.995117188 c 1
358.001953125 599.997070312 m 0
 340.668945312 607.997070312 321.66796875 611.995117188 301.000976562 611.995117188 c 0
 264.333984375 611.995117188 235.833984375 602.828125 215.500976562 584.495117188 c 0
 195.16796875 566.162109375 179.334960938 534.995117188 168.001953125 490.995117188 c 0
 163.334960938 473.662109375 160.001953125 455.329101562 158.001953125 435.99609375 c 0
 156.668945312 415.99609375 156.001953125 393.329101562 156.001953125 367.99609375 c 0
 156.001953125 327.99609375 157.000976562 281.663085938 159.000976562 228.99609375 c 1
 245.667968749 339.663085938 325.001953125 453.330078125 397.001953125 569.997070312 c 1
 385.668945312 582.6640625 372.668945312 592.6640625 358.001953125 599.997070312 c 0
552 490.995117188 m 2
 552 489.998046875 l 2
 555.333007813 450.665039062 557.001953125 410.662109375 557.001953125 369.995117188 c 0
 557.001953125 329.328125001 555.668945312 289.331054688 553.001953125 249.998046875 c 0
 550.334960938 210.665039062 546.001953125 179.665039062 540.001953125 156.998046875 c 0
 528.001953125 114.331054688 513.001953125 79.6640625 495.001953125 52.9970703125 c 0
 485.668945312 39.6640625 475.168945312 28.3310546875 463.501953125 18.998046875 c 0
 451.834960938 9.6650390625 439.66796875 2.33203125 427.000976562 -3.0009765625 c 0
 413.66796875 -8.333984375 398.66796875 -13.0009765625 382.000976562 -17.0009765625 c 0
 364.66796875 -20.333984375 347.66796875 -22.333984375 331.000976562 -23.0009765625 c 0
 314.333984375 -23.66796875 295.000976562 -24.0009765625 273.000976562 -24.0009765625 c 0
 237.000976562 -24.0009765625 203.66796875 -18.333984375 173.000976562 -7.0009765625 c 0
 144.333984375 4.33203125 120.000976562 20.4990234375 100.000976562 41.4990234375 c 0
 80.0009765625 62.4990234375 64.66796875 87.666015625 54.0009765625 116.999023438 c 0
 43.333984375 146.33203125 38.0009765625 177.999023438 38.0009765625 211.999023438 c 2
 38.0009765625 217.999023438 l 2
 38.0009765625 250.666015625 37.66796875 281.333007812 37.0009765625 310 c 0
 37.0009765625 330.666992188 37.5009765625 356 38.5009765625 386 c 0
 39.5009765625 416 41.16796875 440.833007812 43.5009765625 460.5 c 0
 45.833984375 480.166992188 49.333984375 501.333984375 54.0009765625 524.000976562 c 0
 58.66796875 547.333984375 64.66796875 567.666992188 72.0009765625 585 c 0
 89.333984375 628.333007812 118.333984375 661.333007812 159.000976562 684 c 0
 203.000976562 706.666992188 256.333984375 718 319.000976562 718 c 0
 350.333984375 718 379.666992188 713.333007812 407 704 c 0
 433.666992188 694.666992188 457.166992188 680.666992188 477.5 662 c 0
 497.833007812 643.333007812 514.5 619.5 527.5 590.5 c 0
 540.5 561.5 548.666992188 528.328125 552 490.995117188 c 2
EndSplineSet
Validated: 1
EndChar

StartChar: one
Encoding: 49 49 17
Width: 593
GlyphClass: 2
Flags: W
HStem: -9.00098 110.501<86.3245 233.996 365 548.559> -5.00098 114.001<42.437 233.996 365 433.522>
VStem: 233.996 131.004<107 552.809> 244.997 123.003<266.377 552.809>
LayerCount: 2
Fore
SplineSet
565 49.9990234375 m 1xa0
 565 46.9990234375 l 2
 565 31.666015625 560.330078125 18.666015625 550.997070312 7.9990234375 c 0
 540.997070312 -3.333984375 523.997070312 -9.0009765625 499.997070312 -9.0009765625 c 0xa0
 247.330078125 -7.0009765625 108.663085938 -5.66796875 83.99609375 -5.0009765625 c 0
 65.3291015625 -5.0009765625 51.3291015625 0.33203125 41.99609375 10.9990234375 c 0
 33.3291015625 21.666015625 28.99609375 34.666015625 28.99609375 49.9990234375 c 2
 28.99609375 52.9990234375 l 2
 28.99609375 67.666015625 32.99609375 80.3330078125 40.99609375 91 c 0
 50.3291015625 103 64.99609375 109 84.99609375 109 c 0
 112.99609375 109 162.663085938 108.333007812 233.99609375 107 c 1x60
 233.99609375 127 233.663085938 143.666992188 232.99609375 157 c 0
 232.329101562 163 231.99609375 180.333007812 231.99609375 209 c 0
 231.99609375 234.333007812 232.329101562 255 232.99609375 271 c 0
 232.99609375 289 234.329101562 325 236.99609375 379 c 0
 241.663085938 480.333007812 244.330078125 539.333007812 244.997070312 556 c 1
 201.6640625 526 168.6640625 507 145.997070312 499 c 0
 137.997070312 497 132.6640625 496 129.997070312 496 c 0
 117.997070312 496 105.997070312 501 93.9970703125 511 c 0
 77.9970703125 524.333007812 69.9970703125 538 69.9970703125 552 c 0
 69.9970703125 565.333007812 72.9970703125 576.833007812 78.9970703125 586.5 c 0
 84.9970703125 596.166992188 94.6640625 606 107.997070312 616 c 0
 126.6640625 630 151.331054688 648.666992188 181.998046875 672 c 1
 194.665039062 674 207.33203125 683 219.999023438 699 c 0
 231.33203125 707 242.999023438 714.333007812 254.999023438 721 c 0
 265.907678564 727.060659875 276.265144516 730.090989813 286.072154912 730.090989813 c 0
 287.053286904 730.090989813 288.028909501 730.060659875 288.999023438 730 c 0
 307.666015625 730 326.333007812 723.333007812 345 710 c 0
 355 702.666992188 362.5 696 367.5 690 c 0
 372.5 684 375 678 375 672 c 2
 375 671 l 2
 374.333007812 655.666992188 372 603.166992188 368 513.5 c 0x50
 364 423.833007812 362 371.333007812 362 356 c 0
 362 292 362.333007812 238.666992188 363 196 c 0
 363 174 363.666992188 143 365 103 c 1
 401 102.333007812 424 102 434 102 c 0
 443.333007812 102 455.833007812 101.833007812 471.5 101.5 c 0
 487.166992188 101.166992188 497.333984375 101 502.000976562 101 c 0
 524.000976562 101 539.66796875 96.1669921875 549.000976562 86.5 c 0
 558.333984375 76.8330078125 563.666992188 65 565 51 c 2
 565 49.9990234375 l 1xa0
EndSplineSet
Validated: 1
EndChar

StartChar: two
Encoding: 50 50 18
Width: 593
GlyphClass: 2
Flags: W
HStem: -18.0029 108.432<165.593 479.109> -12.0029 113.999<482.313 539.625> 506.999 21G<113.668 118.668> 612.998 109.001<225.89 389.111>
VStem: 414.002 126<456.851 587.935>
LayerCount: 2
Fore
SplineSet
482 101 m 1xb8
 488.666992188 109.666992188 495.669921875 109.99609375 503.002929688 101.99609375 c 0
 505.002929688 101.99609375 508.8359375 101.829101562 514.502929688 101.49609375 c 0
 520.169921875 101.163085938 524.669921875 100.163085938 528.002929688 98.49609375 c 0
 531.3359375 96.8291015625 534.668945312 94.99609375 538.001953125 92.99609375 c 0
 543.334960938 89.6630859375 547.001953125 85.6630859375 549.001953125 80.99609375 c 0
 553.001953125 72.99609375 555.001953125 63.6630859375 555.001953125 52.99609375 c 0
 555.001953125 33.6630859375 550.001953125 17.330078125 540.001953125 3.9970703125 c 0
 532.001953125 -6.669921875 521.668945312 -12.0029296875 509.001953125 -12.0029296875 c 0x78
 461.668945312 -12.0029296875 385.668945312 -14.0029296875 281.001953125 -18.0029296875 c 0
 245.668945312 -19.3359375 209.3359375 -20.0029296875 172.002929688 -20.0029296875 c 0
 137.3359375 -20.0029296875 110.3359375 -18.669921875 91.0029296875 -16.0029296875 c 0
 80.3359375 -14.669921875 71.0029296875 -10.3369140625 63.0029296875 -3.00390625 c 0
 57.0029296875 2.3291015625 52.3359375 9.3291015625 49.0029296875 17.99609375 c 0
 42.3359375 35.3291015625 39.0029296875 59.3291015625 39.0029296875 89.99609375 c 0
 39.0029296875 120.663085938 45.3359375 151.663085938 58.0029296875 182.99609375 c 0
 70.669921875 214.329101562 89.669921875 244.49609375 115.002929688 273.49609375 c 0
 140.3359375 302.49609375 170.668945312 325.99609375 206.001953125 343.99609375 c 0
 284.001953125 381.99609375 334.001953125 408.663085938 356.001953125 423.99609375 c 0
 382.668945312 442.663085938 400.001953125 462.330078125 408.001953125 482.997070312 c 0
 412.001953125 495.6640625 414.001953125 511.331054688 414.001953125 529.998046875 c 0
 414.001953125 559.331054688 405.001953125 580.331054688 387.001953125 592.998046875 c 0
 367.668945312 606.331054688 338.668945312 612.998046875 300.001953125 612.998046875 c 0
 274.001953125 612.998046875 249.168945312 605.665039062 225.501953125 590.998046875 c 0
 201.834960938 576.331054688 183.334960938 559.998046875 170.001953125 541.998046875 c 0
 163.334960938 532.665039062 156.334960938 524.83203125 149.001953125 518.499023438 c 0
 141.668945312 512.166015625 134.001953125 508.666015625 126.001953125 507.999023438 c 0
 123.334960938 507.999023438 120.334960938 507.666015625 117.001953125 506.999023438 c 0
 110.334960938 506.999023438 99.3349609375 510.33203125 84.001953125 516.999023438 c 0
 69.3349609375 524.999023438 60.001953125 536.33203125 56.001953125 550.999023438 c 0
 55.3349609375 554.999023438 55.001953125 558.666015625 55.001953125 561.999023438 c 0
 55.001953125 573.33203125 58.6689453125 586.999023438 66.001953125 602.999023438 c 0
 73.3349609375 616.999023438 84.001953125 630.83203125 98.001953125 644.499023438 c 0
 112.001953125 658.166015625 128.001953125 670.999023438 146.001953125 682.999023438 c 0
 165.334960938 694.999023438 188.334960938 704.499023438 215.001953125 711.499023438 c 0
 241.668945312 718.499023438 268.668945312 721.999023438 296.001953125 721.999023438 c 0
 378.001953125 721.999023438 439.334960938 704.999023438 480.001953125 670.999023438 c 0
 520.001953125 636.999023438 540.001953125 585.999023438 540.001953125 517.999023438 c 0
 540.001953125 461.999023438 525.001953125 416.666015625 495.001953125 381.999023438 c 0
 473.001953125 357.33203125 433.001953125 330.33203125 375.001953125 300.999023438 c 0
 360.334960938 293.666015625 335.001953125 281.666015625 299.001953125 264.999023438 c 0
 269.001953125 250.999023438 244.001953125 233.83203125 224.001953125 213.499023438 c 0
 204.001953125 193.166015625 189.334960938 172.333007812 180.001953125 151 c 0
 172.668945312 133 167.668945312 113.666992188 165.001953125 93 c 1
 198.718648661 91.285577564 230.965722051 90.4286739086 261.743173297 90.4286739086 c 0
 266.869884991 90.4286739086 271.955819412 90.4524502201 277.000976562 90.5 c 0
 312.333984375 90.8330078125 339.666992188 91.3330078125 359 92 c 0
 379 93.3330078125 420 96.3330078125 482 101 c 1xb8
EndSplineSet
Validated: 1
EndChar

StartChar: three
Encoding: 51 51 19
Width: 593
GlyphClass: 2
Flags: W
HStem: -24.0169 108.017<214.007 374.043> 306 125<176.22 340.449> 520.002 21G<116.001 123.334> 613.001 109.001<209.346 373.71>
VStem: 400.002 126.997<479.219 589.309> 425 124<130.061 255.137>
LayerCount: 2
Fore
SplineSet
538 279.5 m 0xf8
 545.333007812 257.833007812 549 232.330078125 549 202.997070312 c 0
 549 133.6640625 526.666992188 78.3310546875 482 36.998046875 c 0
 436.730515253 -3.6785610971 371.768702228 -24.0168650831 287.113630153 -24.0168650831 c 0
 285.747548304 -24.0168650831 284.376338255 -24.0115689096 283 -24.0009765625 c 0
 255.666992188 -24.0009765625 228.666992188 -20.333984375 202 -13.0009765625 c 0
 175.333007812 -5.66796875 152.833007812 3.6650390625 134.5 14.998046875 c 0
 116.166992188 26.3310546875 100 38.998046875 86 52.998046875 c 0
 72 66.998046875 61.5 80.8310546875 54.5 94.498046875 c 0
 47.5 108.165039062 44 120.998046875 44 132.998046875 c 0
 44 136.998046875 44.6669921875 140.998046875 46 144.998046875 c 0
 49.3330078125 161.665039062 58.3330078125 173.33203125 73 179.999023438 c 0
 83.6669921875 185.33203125 93.6669921875 187.999023438 103 187.999023438 c 0
 123 187.999023438 141 177.33203125 157 155.999023438 c 0
 171.666992188 136.666015625 190.666992188 119.833007812 214 105.5 c 0
 237.333007812 91.1669921875 262 84 288 84 c 0
 328.666992188 84 361.666992188 93.8330078125 387 113.5 c 0
 412.333007812 133.166992188 425 158 425 188 c 0xf4
 425 207.333007812 421.666992188 223.833007812 415 237.5 c 0
 408.333007812 251.166992188 397.833007812 263.166992188 383.5 273.5 c 0
 369.166992188 283.833007812 348.833984375 291.833007812 322.500976562 297.5 c 0
 296.16796875 303.166992188 264.000976562 306 226.000976562 306 c 0
 206.66796875 306 190.66796875 312.666992188 178.000976562 326 c 0
 164.66796875 339.333007812 158.000976562 354.333007812 158.000976562 371 c 0
 158.000976562 387.666992188 162.66796875 401.666992188 172.000976562 413 c 0
 182.66796875 425 198.000976562 431 218.000976562 431 c 0
 276.66796875 431 322.334960938 440.666992188 355.001953125 460 c 0
 385.001953125 478 400.001953125 504 400.001953125 538 c 2
 400.001953125 541 l 1
 400.001953125 545 l 2
 400.001953125 567.666992188 390.668945312 584.333984375 372.001953125 595.000976562 c 0
 350.001953125 607.000976562 318.001953125 613.000976562 276.001953125 613.000976562 c 0
 263.334960938 613.000976562 249.66796875 611.000976562 235.000976562 607.000976562 c 0
 231.000976562 605.66796875 226.333984375 603.16796875 221.000976562 599.500976562 c 0
 215.66796875 595.833984375 211.500976562 592.833984375 208.500976562 590.500976562 c 0
 205.500976562 588.16796875 201.500976562 584.334960938 196.500976562 579.001953125 c 0
 191.500976562 573.668945312 188.000976562 569.668945312 186.000976562 567.001953125 c 0
 182.000976562 554.334960938 178.333984375 549.66796875 175.000976562 553.000976562 c 1
 161.66796875 535.66796875 148.000976562 525.334960938 134.000976562 522.001953125 c 0
 130.000976562 520.668945312 125.66796875 520.001953125 121.000976562 520.001953125 c 0
 111.000976562 520.001953125 100.66796875 523.001953125 90.0009765625 529.001953125 c 0
 75.333984375 536.334960938 66.333984375 548.001953125 63.0009765625 564.001953125 c 0
 62.333984375 568.001953125 62.0009765625 572.001953125 62.0009765625 576.001953125 c 0
 62.0009765625 588.001953125 65.333984375 601.001953125 72.0009765625 615.001953125 c 0
 86.0009765625 643.668945312 107.66796875 668.001953125 137.000976562 688.001953125 c 0
 152.333984375 698.668945312 171.666992188 707.001953125 195 713.001953125 c 0
 218.333007812 719.001953125 243.666015625 722.001953125 270.999023438 722.001953125 c 0
 358.999023438 722.001953125 423.999023438 705.668945312 465.999023438 673.001953125 c 0
 506.666015625 640.334960938 526.999023438 592.66796875 526.999023438 530.000976562 c 2
 526.999023438 526.000976562 l 1
 526.999023438 523.000976562 l 2
 526.999023438 504.333984375 524.166015625 486.833984375 518.499023438 470.500976562 c 0
 512.83203125 454.16796875 505.165039062 440.334960938 495.498046875 429.001953125 c 0
 485.831054688 417.668945312 474.331054688 407.668945312 460.998046875 399.001953125 c 0
 447.665039062 390.334960938 433.998046875 383.66796875 419.998046875 379.000976562 c 1
 430.665039062 375.66796875 440.33203125 372.334960938 448.999023438 369.001953125 c 0
 469.666015625 360.334960938 487.833007812 348.66796875 503.5 334.000976562 c 0
 519.166992188 319.333984375 530.666992188 301.166992188 538 279.5 c 0xf8
EndSplineSet
Validated: 1
EndChar

StartChar: four
Encoding: 52 52 20
Width: 593
GlyphClass: 2
Flags: W
HStem: -23 21G<424.999 440.333> 218.999 90.001<167.215 368.998 470 538.168>
VStem: 362 98.999<456.567 587.448> 367.998 102.002<37.313 218 309 587.448> 368.998 109.002<-7.4969 213.685>
LayerCount: 2
Fore
SplineSet
476 59 m 0xd0
 477.333007812 51 478 43.6669921875 478 37 c 0xc8
 478 23.6669921875 475.333007812 12 470 2 c 0xd0
 461.333007812 -14.6669921875 448.666015625 -23 431.999023438 -23 c 0
 417.999023438 -23 404.166015625 -17.8330078125 390.499023438 -7.5 c 0
 376.83203125 2.8330078125 369.665039062 13.666015625 368.998046875 24.9990234375 c 0xc8
 368.331054688 32.9990234375 367.998046875 45.666015625 367.998046875 62.9990234375 c 2
 367.998046875 138.999023438 l 2xd0
 367.998046875 166.33203125 368.331054688 192.999023438 368.998046875 218.999023438 c 1xc8
 323.998046875 218.999023438 l 2
 225.331054688 218.999023438 155.6640625 214.666015625 114.997070312 205.999023438 c 0
 110.330078125 204.666015625 105.330078125 204.166015625 99.9970703125 204.499023438 c 0
 94.6640625 204.83203125 89.3310546875 205.665039062 83.998046875 206.998046875 c 0
 74.6650390625 210.331054688 67.1650390625 215.498046875 61.498046875 222.498046875 c 0
 55.8310546875 229.498046875 51.498046875 237.498046875 48.498046875 246.498046875 c 0
 45.498046875 255.498046875 43.998046875 264.665039062 43.998046875 273.998046875 c 0
 43.998046875 284.665039062 45.6650390625 294.665039062 48.998046875 303.998046875 c 0
 55.6650390625 323.331054688 73.6650390625 353.831054688 102.998046875 395.498046875 c 0
 132.331054688 437.165039062 170.998046875 488.998046875 218.998046875 550.998046875 c 0
 261.665039062 605.665039062 295.665039062 650.33203125 320.998046875 684.999023438 c 0
 330.331054688 697.666015625 340.998046875 707.499023438 352.998046875 714.499023438 c 0
 364.998046875 721.499023438 376.665039062 724.999023438 387.998046875 724.999023438 c 2
 394.998046875 724.999023438 l 2
 406.998046875 724.999023438 417.998046875 722.666015625 427.998046875 717.999023438 c 0
 440.665039062 711.33203125 448.33203125 699.999023438 450.999023438 683.999023438 c 2
 450.999023438 682.999023438 l 1
 454.999023438 659.666015625 458.33203125 624.166015625 460.999023438 576.499023438 c 0xe0
 463.666015625 528.83203125 465.333007812 488.33203125 466 454.999023438 c 0
 466.666992188 405.666015625 467.666992188 356.666015625 469 307.999023438 c 1
 479 307.33203125 490 306.999023438 502 306.999023438 c 0
 519.333007812 306.999023438 531.5 303.166015625 538.5 295.499023438 c 0
 545.5 287.83203125 549.333007812 277.999023438 550 265.999023438 c 2
 550 265 l 2
 550 251 546.666992188 240 540 232 c 0
 532 222 519.333007812 217 502 217 c 0
 490.666992188 217 480 217.333007812 470 218 c 1
 471.333007812 125.333007812 473.333007812 72.3330078125 476 59 c 0xd0
301 309 m 2
 368.998046875 309 l 1xc8
 368.998046875 424.333007812 366.666992188 517.666015625 362 588.999023438 c 1xe0
 267.333007812 469.666015625 202 375.333007812 166 306 c 1
 203.333007812 308 248.333007812 309 301 309 c 2
EndSplineSet
Validated: 1
EndChar

StartChar: five
Encoding: 53 53 21
Width: 593
GlyphClass: 2
Flags: W
HStem: -18.002 109.001<191.264 353.338> 407.998 113.043<227.815 397.174> 594.995 112.998<273.102 533.618> 605.995 103.998<166.999 496.386>
VStem: 45 118.999<466.431 602.995> 434.997 124.002<181.147 368.764>
LayerCount: 2
Fore
SplineSet
50 561 m 0xdc
 51.3330078125 581.666992188 51.994140625 596.993164062 51.994140625 606.993164062 c 1
 45.2725151777 617.992675781 41.9117024541 630.672593861 41.9117024541 645.032918304 c 0
 41.9117024541 658.096258006 42.4409028501 681.39394149 61.9951171875 698.993164062 c 0
 71.328125 707.66015625 81.9951171875 711.993164062 93.9951171875 711.993164062 c 0
 118.662109375 711.993164062 180.662109375 711.326171875 279.995117188 709.993164062 c 0xdc
 380.662109375 708.66015625 454.995117188 707.993164062 502.995117188 707.993164062 c 0
 515.662109375 707.993164062 525.995117188 702.66015625 533.995117188 691.993164062 c 0
 543.995117188 678.66015625 548.995117188 662.327148438 548.995117188 642.994140625 c 0
 548.995117188 622.994140625 543.328125 609.661132812 531.995117188 602.994140625 c 0
 528.662109375 600.994140625 525.329101562 599.327148438 521.99609375 597.994140625 c 0
 518.663085938 596.661132812 514.163085938 595.828125 508.49609375 595.495117188 c 0
 502.829101562 595.162109375 498.829101562 594.995117188 496.49609375 594.995117188 c 0xec
 494.163085938 594.995117188 490.49609375 595.162109375 485.49609375 595.495117188 c 0
 480.49609375 595.828125 477.329101562 595.995117188 475.99609375 595.995117188 c 1
 466.663085938 595.995117188 449.330078125 597.328125 423.997070312 599.995117188 c 0
 397.330078125 601.995117188 373.830078125 603.495117188 353.497070312 604.495117188 c 0
 333.1640625 605.495117188 305.831054688 605.995117188 271.498046875 605.995117188 c 0
 237.165039062 605.995117188 202.33203125 604.995117188 166.999023438 602.995117188 c 1
 164.865585926 562.998046308 163.798867171 535.79910086 163.798867171 521.398280843 c 0
 163.798867171 517.796757564 163.865585926 514.995703012 163.999023438 512.995117188 c 0
 163.999023438 500.995117188 163.83203125 492.495117188 163.499023438 487.495117188 c 0
 163.166015625 482.495117188 163.333007812 475.328125 164 465.995117188 c 1
 182 479.328125 203.666992188 490.995117188 229 500.995117188 c 0
 263.999639893 514.358497418 303.25058973 521.040612186 346.75369882 521.040612186 c 0
 348.826148965 521.040612186 350.908249328 521.025447217 353 520.995117188 c 0
 387.666992188 520.995117188 418.666992188 515.328125 446 503.995117188 c 0
 471.333007812 492.662109375 492.166015625 476.829101562 508.499023438 456.49609375 c 0
 524.83203125 436.163085938 537.33203125 412.830078125 545.999023438 386.497070312 c 0
 554.666015625 360.1640625 558.999023438 331.6640625 558.999023438 300.997070312 c 0
 558.999023438 251.6640625 552.666015625 206.831054688 539.999023438 166.498046875 c 0
 527.33203125 126.165039062 509.165039062 92.498046875 485.498046875 65.498046875 c 0
 461.831054688 38.498046875 432.331054688 17.998046875 396.998046875 3.998046875 c 0
 360.998046875 -10.6689453125 321.998046875 -18.001953125 279.998046875 -18.001953125 c 0
 246.665039062 -18.001953125 215.665039062 -14.6689453125 186.998046875 -8.001953125 c 0
 158.998046875 -1.3349609375 136.331054688 7.33203125 118.998046875 17.9990234375 c 0
 101.665039062 28.666015625 86.998046875 40.3330078125 74.998046875 53 c 0
 62.998046875 65.6669921875 52.998046875 79 44.998046875 93 c 0
 37.6650390625 109 33.998046875 122.666992188 33.998046875 134 c 0
 33.998046875 138 34.6650390625 142 35.998046875 146 c 0
 39.3310546875 160.666992188 48.6640625 172 63.9970703125 180 c 0
 71.9970703125 183.333007812 78.4970703125 185.666015625 83.4970703125 186.999023438 c 0
 88.4970703125 188.33203125 92.830078125 188.999023438 96.4970703125 188.999023438 c 0
 100.1640625 188.999023438 102.997070312 188.666015625 104.997070312 187.999023438 c 0
 113.6640625 187.33203125 121.6640625 183.665039062 128.997070312 176.998046875 c 0
 134.997070312 171.665039062 141.330078125 164.33203125 147.997070312 154.999023438 c 0
 177.997070312 112.33203125 218.330078125 90.9990234375 268.997070312 90.9990234375 c 0
 319.6640625 90.9990234375 359.6640625 108.33203125 388.997070312 142.999023438 c 0
 419.6640625 178.999023438 434.997070312 227.666015625 434.997070312 288.999023438 c 0
 434.997070312 326.33203125 425.6640625 355.665039062 406.997070312 376.998046875 c 0
 389.6640625 397.665039062 362.331054688 407.998046875 324.998046875 407.998046875 c 0
 307.665039062 407.998046875 289.33203125 405.998046875 269.999023438 401.998046875 c 0
 260.666015625 399.998046875 247.666015625 395.331054688 230.999023438 387.998046875 c 0
 226.999023438 385.998046875 221.83203125 382.665039062 215.499023438 377.998046875 c 0
 209.166015625 373.331054688 204.999023438 369.998046875 202.999023438 367.998046875 c 0
 191.666015625 358.665039062 182.333007812 350.665039062 175 343.998046875 c 0
 159.666992188 331.331054688 142 323.998046875 122 321.998046875 c 2
 115 321.998046875 l 2
 105.666992188 321.998046875 96.6669921875 323.998046875 88 327.998046875 c 0
 74 333.998046875 63.3330078125 346.665039062 56 365.998046875 c 0
 50 382.665039062 46.3330078125 403.33203125 45 427.999023438 c 0
 44.6665039062 433.332519531 44.4997558594 438.666015625 44.4997558594 443.999511719 c 0
 44.4997558594 449.333007812 44.6665039062 454.666503906 45 460 c 0
 45 483.333007812 46.6669921875 517 50 561 c 0xdc
EndSplineSet
Validated: 1
EndChar

StartChar: six
Encoding: 54 54 22
Width: 593
GlyphClass: 2
Flags: W
HStem: -22.002 107.997<223.313 364.936> 379.996 114.002<219.446 400.643>
VStem: 32.001 116<167.545 324.488> 439 123.001<163.55 341.372>
LayerCount: 2
Fore
SplineSet
547 361 m 0
 557 329.666992188 562.000976562 293.331054688 562.000976562 251.998046875 c 0
 562.000976562 213.998046875 555.333984375 178.331054688 542.000976562 144.998046875 c 0
 516.000976562 76.998046875 470.66796875 28.3310546875 406.000976562 -1.001953125 c 0
 373.479896445 -15.0309657135 338.824355045 -22.0454720077 302.033497769 -22.0454720077 c 0
 300.36040665 -22.0454720077 298.682899608 -22.0309657135 297.000976562 -22.001953125 c 0
 250.333984375 -22.001953125 209.000976562 -14.001953125 173.000976562 1.998046875 c 0
 139.000976562 18.6650390625 111.833984375 41.998046875 91.5009765625 71.998046875 c 0
 71.16796875 101.998046875 56.16796875 136.831054688 46.5009765625 176.498046875 c 0
 36.833984375 216.165039062 32.0009765625 259.665039062 32.0009765625 306.998046875 c 0
 32.0009765625 366.998046875 37.833984375 420.498046875 49.5009765625 467.498046875 c 0
 61.16796875 514.498046875 76.8349609375 553.831054688 96.501953125 585.498046875 c 0
 116.168945312 617.165039062 141.001953125 643.665039062 171.001953125 664.998046875 c 0
 202.334960938 686.998046875 236.334960938 703.665039062 273.001953125 714.998046875 c 0
 309.668945312 726.331054688 350.001953125 733.6640625 394.001953125 736.997070312 c 2
 405.001953125 736.997070312 l 2
 420.334960938 736.997070312 433.66796875 734.330078125 445.000976562 728.997070312 c 0
 460.333984375 721.6640625 469.333984375 709.997070312 472.000976562 693.997070312 c 2
 472.000976562 689.997070312 l 2
 472.000976562 679.997070312 467.000976562 669.6640625 457.000976562 658.997070312 c 0
 446.333984375 648.330078125 434.000976562 640.997070312 420.000976562 636.997070312 c 0
 412.000976562 634.997070312 399.66796875 632.497070312 383.000976562 629.497070312 c 0
 366.333984375 626.497070312 352.333984375 623.6640625 341.000976562 620.997070312 c 0
 329.66796875 618.330078125 316.66796875 614.330078125 302.000976562 608.997070312 c 0
 272.66796875 598.330078125 243.000976562 577.997070312 213.000976562 547.997070312 c 0
 197.66796875 531.997070312 183.66796875 510.330078125 171.000976562 482.997070312 c 0
 165.000976562 468.997070312 159.66796875 455.997070312 155.000976562 443.997070312 c 1
 173.000976562 456.6640625 193.333984375 466.6640625 216.000976562 473.997070312 c 0
 253.333984375 486.6640625 295.333984375 493.331054688 342.000976562 493.998046875 c 0
 377.333984375 493.998046875 408.666992188 489.331054688 436 479.998046875 c 0
 462 470.665039062 484.5 456.33203125 503.5 436.999023438 c 0
 522.5 417.666015625 537 392.333007812 547 361 c 0
247.000976562 94.9970703125 m 0
 262.333984375 88.9970703125 278.666992188 85.9951171875 296 85.9951171875 c 2
 298 85.9951171875 l 1
 299 85.9951171875 l 2
 322.333007812 85.9951171875 345 93.662109375 367 108.995117188 c 0
 389 124.328125 406.5 143.828125 419.5 167.495117188 c 0
 432.5 191.162109375 439 215.329101562 439 239.99609375 c 0
 439 297.329101562 428 335.329101562 406 353.99609375 c 0
 394.666992188 363.329101562 381.833984375 369.99609375 367.500976562 373.99609375 c 0
 353.16796875 377.99609375 335.000976562 379.99609375 313.000976562 379.99609375 c 0
 279.000976562 379.99609375 247.333984375 372.49609375 218.000976562 357.49609375 c 0
 188.66796875 342.49609375 165.000976562 323.329101562 147.000976562 299.99609375 c 1
 147.000976562 274.663085938 147.333984375 253.663085938 148.000976562 236.99609375 c 0
 150.66796875 208.99609375 160.334960938 181.663085938 177.001953125 154.99609375 c 0
 185.668945312 141.663085938 195.668945312 129.830078125 207.001953125 119.497070312 c 0
 218.334960938 109.1640625 231.66796875 100.997070312 247.000976562 94.9970703125 c 0
EndSplineSet
Validated: 1
EndChar

StartChar: seven
Encoding: 55 55 23
Width: 593
GlyphClass: 2
Flags: W
HStem: -23 21G<121.998 129.665> 602 112.001<83.733 411.999>
LayerCount: 2
Fore
SplineSet
225 601 m 0
 159 599.666992188 116.33203125 596.669921875 96.9990234375 592.002929688 c 0
 92.9990234375 590.669921875 88.4990234375 590.002929688 83.4990234375 590.002929688 c 0
 78.4990234375 590.002929688 73.33203125 591.002929688 67.9990234375 593.002929688 c 0
 59.33203125 596.3359375 52.6650390625 601.3359375 47.998046875 608.002929688 c 0
 38.6650390625 620.002929688 33.6650390625 633.669921875 32.998046875 649.002929688 c 1
 32.998046875 642.3359375 32.998046875 642.668945312 32.998046875 650.001953125 c 0
 32.998046875 664.001953125 36.998046875 675.668945312 44.998046875 685.001953125 c 0
 52.998046875 694.334960938 66.6650390625 700.66796875 85.998046875 704.000976562 c 0
 121.998046875 710.66796875 182.331054688 714.000976562 266.998046875 714.000976562 c 0
 301.665039062 714.000976562 349.33203125 712.66796875 409.999023438 710.000976562 c 0
 467.33203125 708.000976562 497.33203125 707.000976562 499.999023438 707.000976562 c 0
 508.666015625 707.000976562 517.166015625 705.16796875 525.499023438 701.500976562 c 0
 533.83203125 697.833984375 541.665039062 692.000976562 548.998046875 684.000976562 c 0
 556.331054688 675.333984375 560.331054688 664.000976562 560.998046875 650.000976562 c 0
 560.998046875 638.000976562 557.331054688 624.66796875 549.998046875 610.000976562 c 0
 540.665039062 590.000976562 523.665039062 560.500976562 498.998046875 521.500976562 c 0
 474.331054688 482.500976562 448.331054688 442.66796875 420.998046875 402.000976562 c 0
 392.331054688 361.333984375 357.331054688 307.166992188 315.998046875 239.5 c 0
 274.665039062 171.833007812 235.665039062 102.666015625 198.998046875 31.9990234375 c 0
 189.665039062 12.666015625 176.665039062 -1.6669921875 159.998046875 -11 c 0
 147.331054688 -19 135.331054688 -23 123.998046875 -23 c 0
 119.998046875 -23 115.998046875 -22.6669921875 111.998046875 -22 c 0
 93.998046875 -18 81.3310546875 -8 73.998046875 8 c 0
 70.6650390625 15.3330078125 68.998046875 23.166015625 68.998046875 31.4990234375 c 0
 68.998046875 39.83203125 71.3310546875 48.9990234375 75.998046875 58.9990234375 c 0
 109.998046875 125.666015625 147.665039062 191.999023438 188.998046875 257.999023438 c 0
 231.665039062 323.999023438 266.83203125 376.33203125 294.499023438 414.999023438 c 0
 322.166015625 453.666015625 346.499023438 489.333007812 367.499023438 522 c 0
 388.499023438 554.666992188 403.33203125 581 411.999023438 601 c 1
 383.332519531 601.666503906 353.416015625 601.999755859 322.249511719 601.999755859 c 0
 291.083007812 601.999755859 258.666503906 601.666503906 225 601 c 0
EndSplineSet
Validated: 1
EndChar

StartChar: eight
Encoding: 56 56 24
Width: 593
GlyphClass: 2
Flags: W
HStem: -28.001 110<200.683 382.136> 621.999 96.002<218.262 354.578>
VStem: 25.998 111.003<137.082 263.615> 52.998 121.003<482.059 579.145> 406 117.001<478.907 573.656> 450.001 116.998<140 269.94>
LayerCount: 2
Fore
SplineSet
215.000976562 96.9990234375 m 0xe4
 238.333984375 86.9990234375 263.333984375 81.9990234375 290.000976562 81.9990234375 c 0
 308.66796875 81.9990234375 327.500976562 84.666015625 346.500976562 89.9990234375 c 0
 365.500976562 95.33203125 382.833984375 102.999023438 398.500976562 112.999023438 c 0
 414.16796875 122.999023438 426.66796875 135.666015625 436.000976562 150.999023438 c 0
 445.333984375 166.33203125 450.000976562 182.999023438 450.000976562 200.999023438 c 0
 450.000976562 210.999023438 449.000976562 220.33203125 447.000976562 228.999023438 c 0
 445.000976562 237.666015625 441.000976562 247.666015625 435.000976562 258.999023438 c 0
 429.000976562 270.33203125 420.66796875 280.999023438 410.000976562 290.999023438 c 0
 399.333984375 300.999023438 384.500976562 311.33203125 365.500976562 321.999023438 c 0
 346.500976562 332.666015625 324.000976562 342.333007812 298.000976562 351 c 1
 250.000976562 339 211.000976562 318.666992188 181.000976562 290 c 0
 151.66796875 261.333007812 137.000976562 230.666015625 137.000976562 197.999023438 c 0
 137.000976562 175.999023438 144.000976562 155.999023438 158.000976562 137.999023438 c 0
 173.333984375 119.999023438 192.333984375 106.33203125 215.000976562 96.9990234375 c 0xe4
207.499023438 591.499023438 m 0
 185.166015625 571.166015625 174.000976562 549.333007812 174.000976562 526 c 0
 174.000976562 507.333007812 183.66796875 490.666015625 203.000976562 475.999023438 c 0
 223.000976562 460.666015625 256.66796875 444.999023438 304.000976562 428.999023438 c 1
 331.333984375 439.666015625 355.166992188 453.666015625 375.5 470.999023438 c 0
 395.833007812 488.33203125 406 503.33203125 406 515.999023438 c 0xd8
 406 532.666015625 400.833007812 548.999023438 390.5 564.999023438 c 0
 380.166992188 580.999023438 365.666992188 594.499023438 347 605.499023438 c 0
 328.333007812 616.499023438 308.666015625 621.999023438 287.999023438 621.999023438 c 2
 285.999023438 621.999023438 l 2
 255.999023438 621.999023438 229.83203125 611.83203125 207.499023438 591.499023438 c 0
563.5 246 m 0
 565.833007812 234 566.999023438 221.33203125 566.999023438 207.999023438 c 0
 566.999023438 185.999023438 563.999023438 164.33203125 557.999023438 142.999023438 c 0
 551.999023438 121.666015625 541.999023438 100.499023438 527.999023438 79.4990234375 c 0
 513.999023438 58.4990234375 496.666015625 40.33203125 475.999023438 24.9990234375 c 0
 455.33203125 9.666015625 428.165039062 -3.0009765625 394.498046875 -13.0009765625 c 0
 360.831054688 -23.0009765625 324.1640625 -28.0009765625 284.497070312 -28.0009765625 c 0
 244.830078125 -28.0009765625 209.330078125 -23.333984375 177.997070312 -14.0009765625 c 0
 147.997070312 -4.66796875 123.830078125 7.4990234375 105.497070312 22.4990234375 c 0
 87.1640625 37.4990234375 71.8310546875 55.166015625 59.498046875 75.4990234375 c 0
 47.1650390625 95.83203125 38.498046875 116.33203125 33.498046875 136.999023438 c 0
 28.498046875 157.666015625 25.998046875 179.333007812 25.998046875 202 c 0xe4
 25.998046875 224.666992188 31.998046875 249.166992188 43.998046875 275.5 c 0
 55.998046875 301.833007812 73.6650390625 326.333007812 96.998046875 349 c 0
 112.998046875 365 130.331054688 377.666992188 148.998046875 387 c 1
 122.331054688 402.333007812 100.998046875 420.666015625 84.998046875 441.999023438 c 0
 63.6650390625 469.999023438 52.998046875 498.666015625 52.998046875 527.999023438 c 0
 52.998046875 536.666015625 53.6650390625 545.666015625 54.998046875 554.999023438 c 0
 56.3310546875 564.33203125 59.1640625 575.33203125 63.4970703125 587.999023438 c 0
 67.830078125 600.666015625 73.330078125 612.83203125 79.9970703125 624.499023438 c 0
 86.6640625 636.166015626 95.8310546875 647.833007813 107.498046875 659.5 c 0
 119.165039062 671.166992188 132.33203125 681.000976562 146.999023438 689.000976562 c 0
 163.666015625 697.66796875 183.999023438 704.66796875 207.999023438 710.000976562 c 0
 231.999023438 715.333984375 258.33203125 718.000976562 286.999023438 718.000976562 c 0
 315.666015625 718.000976562 341.999023438 715.333984375 365.999023438 710.000976562 c 0
 389.999023438 704.66796875 410.33203125 698.000976562 426.999023438 690.000976562 c 0
 443.666015625 681.333984375 457.833007812 671.166992188 469.5 659.5 c 0
 481.166992188 647.833007812 490.333984375 636.166015625 497.000976562 624.499023438 c 0
 503.66796875 612.83203125 509.000976562 600.499023438 513.000976562 587.499023438 c 0
 517.000976562 574.499023438 519.66796875 563.166015625 521.000976562 553.499023438 c 0
 522.333984375 543.83203125 523.000976562 534.33203125 523.000976562 524.999023438 c 0
 523.000976562 515.666015625 521.833984375 506.833007812 519.500976562 498.5 c 0
 517.16796875 490.166992188 514.334960938 482.666015626 511.001953125 475.999023438 c 0
 507.668945312 469.33203125 503.000976562 462.5 497.000976562 455.5 c 0
 491.000976562 448.5 485.501953125 442.666992188 480.501953125 438 c 0
 475.501953125 433.333007812 469.168945312 428 461.501953125 422 c 0
 453.834960938 416 447.66796875 411.666992188 443.000976562 409 c 0
 438.333984375 406.333007812 432.333984375 402.333007812 425.000976562 397 c 1
 443.66796875 389 460.000976562 380 474.000976562 370 c 0
 493.333984375 356.666992188 508.833984375 343.166992188 520.500976562 329.5 c 0
 532.16796875 315.833007812 541.66796875 301.5 549.000976562 286.5 c 0
 556.333984375 271.5 561.166992188 258 563.5 246 c 0
EndSplineSet
Validated: 1
EndChar

StartChar: nine
Encoding: 57 57 25
Width: 593
GlyphClass: 2
Flags: W
HStem: -22.9951 21G<156.667 165.667> 223.002 113.005<208.64 390.074> 630.006 108.993<225.43 372.931>
VStem: 32 122.002<391.618 557.824> 448.002 113.997<379.658 542.364>
LayerCount: 2
Fore
SplineSet
174 555.004882812 m 0
 160.666992188 532.337890625 154.001953125 509.006835938 154.001953125 485.006835938 c 0
 154.001953125 385.673828125 201 336.006835938 295 336.006835938 c 0
 325 336.006835938 354.001953125 342.006835938 382.001953125 354.006835938 c 0
 410.001953125 366.006835938 432.001953125 381.33984375 448.001953125 400.006835938 c 1
 448.001953125 409.006835938 l 2
 448.001953125 427.006835938 447.001953125 450.673828125 445.001953125 480.006835938 c 0
 442.334960938 508.006835938 432.66796875 535.33984375 416.000976562 562.006835938 c 0
 407.333984375 575.33984375 397.500976562 587.172851562 386.500976562 597.505859375 c 0
 375.500976562 607.838867188 362.16796875 615.838867188 346.500976562 621.505859375 c 0
 330.833984375 627.172851562 314.666992188 630.005859375 298 630.005859375 c 2
 295 630.005859375 l 2
 271 630.005859375 248.166992188 623.172851562 226.5 609.505859375 c 0
 204.833007812 595.838867188 187.333007812 577.671875 174 555.004882812 c 0
174 -22 m 0
 170.666992188 -22 167.333984375 -22.328125 164.000976562 -22.9951171875 c 0
 149.333984375 -22.9951171875 136.333984375 -19.9951171875 125.000976562 -13.9951171875 c 0
 109.66796875 -6.662109375 101.000976562 5.0048828125 99.0009765625 21.0048828125 c 0
 99.0009765625 22.337890625 98.66796875 23.337890625 98.0009765625 24.0048828125 c 0
 98.0009765625 34.671875 103.16796875 45.171875 113.500976562 55.5048828125 c 0
 123.833984375 65.837890625 135.333984375 73.0048828125 148.000976562 77.0048828125 c 0
 156.000976562 79.0048828125 169.16796875 81.671875 187.500976562 85.0048828125 c 0
 205.833984375 88.337890625 222.000976562 91.6708984375 236.000976562 95.00390625 c 0
 250.000976562 98.3369140625 265.333984375 102.669921875 282.000976562 108.002929688 c 0
 317.333984375 120.002929688 348.333984375 139.002929688 375.000976562 165.002929688 c 0
 392.333984375 183.002929688 408.000976562 203.669921875 422.000976562 227.002929688 c 0
 427.333984375 236.3359375 432.000976562 245.668945312 436.000976562 255.001953125 c 1
 421.333984375 247.001953125 405.333984375 240.668945312 388.000976562 236.001953125 c 0
 355.333984375 228.001953125 315.000976562 223.668945312 267.000976562 223.001953125 c 0
 233.000976562 223.001953125 200.66796875 230.001953125 170.000976562 244.001953125 c 0
 140.66796875 258.001953125 116.16796875 276.668945312 96.5009765625 300.001953125 c 0
 76.833984375 323.334960938 61.1669921875 350.16796875 49.5 380.500976562 c 0
 37.8330078125 410.833984375 32 441.666992188 32 473 c 0
 32 511 38.5 546.5 51.5 579.5 c 0
 64.5 612.5 82.1669921875 640.666992188 104.5 664 c 0
 126.833007812 687.333007812 154.666015625 705.666015625 187.999023438 718.999023438 c 0
 221.999023438 732.33203125 257.999023438 738.999023438 295.999023438 738.999023438 c 0
 389.999023438 738.999023438 458.33203125 706.999023438 500.999023438 642.999023438 c 0
 540.999023438 582.999023438 561.33203125 498.33203125 561.999023438 388.999023438 c 0
 561.999023438 331.666015625 555.33203125 280.999023438 541.999023438 236.999023438 c 0
 528.666015625 192.999023438 510.833007812 155.83203125 488.5 125.499023438 c 0
 466.166992188 95.166015625 438.666992188 69.3330078125 406 48 c 0
 372 26.6669921875 335.833007812 10.5 297.5 -0.5 c 0
 259.166992188 -11.5 218 -18.6669921875 174 -22 c 0
EndSplineSet
Validated: 1
EndChar

StartChar: colon
Encoding: 58 58 26
Width: 593
GlyphClass: 2
Flags: W
LayerCount: 2
Fore
SplineSet
372 404 m 0
 372 384.666992188 369 364.668945312 363 344.001953125 c 0
 359 327.334960938 350 314.66796875 336 306.000976562 c 0
 324 298.66796875 312 295.000976562 300 295.000976562 c 2
 297 295.000976562 l 2
 277 296.333984375 261 300.333984375 249 307.000976562 c 0
 232.333007812 317.000976562 223 332.000976562 221 352.000976562 c 1
 221 352.000976562 l 1
 219.666992188 364.000976562 219 376.000976562 219 388.000976562 c 0
 219 400.66796875 219.333007812 412.334960938 220 423.001953125 c 0
 220.666992188 433.668945312 224 443.001953125 230 451.001953125 c 0
 236 458.334960938 243.333007812 463.66796875 252 467.000976562 c 0
 260.666992188 470.333984375 268.333984375 472.333984375 275.000976562 473.000976562 c 0
 281.66796875 473.66796875 286.66796875 474.000976562 290.000976562 474.000976562 c 0
 301.333984375 474.000976562 311.000976562 473.333984375 319.000976562 472.000976562 c 0
 326.333984375 470.66796875 333.666992188 468.000976562 341 464.000976562 c 0
 349 460.000976562 356 454.000976562 362 446.000976562 c 0
 367.333007812 438.000976562 370.333007812 428.66796875 371 418.000976562 c 0
 371.666992188 413.333984375 372 408.666992188 372 404 c 0
375 124.001953125 m 0
 375 108.001953125 372.66796875 91.6689453125 368.000976562 75.001953125 c 0
 364.000976562 58.3349609375 353.66796875 46.001953125 337.000976562 38.001953125 c 0
 323.000976562 31.3349609375 309.66796875 27.66796875 297.000976562 27.0009765625 c 0
 280.333984375 27.0009765625 264.000976562 32.0009765625 248.000976562 42.0009765625 c 0
 232.000976562 52.0009765625 223.333984375 66.0009765625 222.000976562 84.0009765625 c 0
 221.333984375 102.66796875 220.666992188 113.334960938 220 116.001953125 c 0
 220 118.668945312 220.333007812 124.668945312 221 134.001953125 c 0
 221.666992188 143.334960938 222.333984375 150.66796875 223.000976562 156.000976562 c 0
 223.000976562 166.66796875 226.000976562 176.000976562 232.000976562 184.000976562 c 0
 238.000976562 192.000976562 246.000976562 197.333984375 256.000976562 200.000976562 c 0
 269.333984375 204.66796875 282.333984375 207.000976562 295.000976562 207.000976562 c 0
 307.000976562 207.000976562 317.66796875 205.66796875 327.000976562 203.000976562 c 0
 336.333984375 200.333984375 345.666992188 194.333984375 355 185.000976562 c 0
 364.333007812 176.333984375 370 165.333984375 372 152.000976562 c 0
 374 142.66796875 375 133.334960938 375 124.001953125 c 0
EndSplineSet
Validated: 1
EndChar

StartChar: semicolon
Encoding: 59 59 27
Width: 593
GlyphClass: 2
Flags: W
HStem: 253 180.001<270.692 379.11>
VStem: 249.001 152.999<275.988 416.875>
LayerCount: 2
Fore
SplineSet
402 363 m 2
 402 343.666992188 398.999023438 323.333984375 392.999023438 302.000976562 c 0
 388.999023438 285.333984375 379.999023438 272.666992188 365.999023438 264 c 0
 353.999023438 256.666992188 341.999023438 253 329.999023438 253 c 0
 320.666015625 253 310.333007812 255 299 259 c 0
 287.666992188 263 277.333984375 269 268.000976562 277 c 0
 258.000976562 286.333007812 252.333984375 297.333007812 251.000976562 310 c 1
 249.66796875 322 249.000976562 334.333007812 249.000976562 347 c 0
 249.000976562 359.666992188 249.333984375 371 250.000976562 381 c 0
 250.66796875 391.666992188 254.000976562 401 260.000976562 409 c 0
 266.000976562 417 273.333984375 422.333007812 282.000976562 425 c 0
 296.66796875 429.666992188 310.66796875 432.333984375 324.000976562 433.000976562 c 0
 334.000976562 433.000976562 342.333984375 432.000976562 349.000976562 430.000976562 c 0
 356.333984375 428.66796875 364.000976562 426.000976562 372.000976562 422.000976562 c 0
 380.000976562 418.000976562 386.66796875 412.333984375 392.000976562 405.000976562 c 0
 397.333984375 396.333984375 400.666992188 386.666992188 402 376 c 2
 402 363 l 2
381.999023438 79 m 2
 382 73 l 2
 380 51 358.333007812 -36.6669921875 317 -190 c 0
 312.333007812 -206.666992188 303.666015625 -219 290.999023438 -227 c 0
 279.666015625 -234.333007812 268.333007812 -238 257 -238 c 0
 239.666992188 -238 224 -233 210 -223 c 0
 197.966635736 -214.13384764 191.949953604 -202.25891356 191.949953604 -187.376034983 c 0
 191.949953604 -168.400523367 202.454085228 -113.72999566 212 -65.9990234375 c 0
 225.333007812 0.0009765625 236 49.333984375 244 82.0009765625 c 0
 246.666992188 93.333984375 250.333984375 103.000976562 255.000976562 111.000976562 c 0
 260.333984375 119.000976562 266.333984375 124.000976562 273.000976562 126.000976562 c 0
 282.333984375 129.333984375 291.333984375 131.333984375 300.000976562 132.000976562 c 0
 303.333984375 132.000976562 306.666992188 131.66796875 310 131.000976562 c 0
 324 131.000976562 338.333007812 127.66796875 353 121.000976562 c 0
 362.333007812 117.000976562 369.666015625 110.66796875 374.999023438 102.000976562 c 0
 379.666015625 95.333984375 381.999023438 87.6669921875 381.999023438 79 c 2
EndSplineSet
Validated: 1
EndChar

StartChar: less
Encoding: 60 60 28
Width: 593
GlyphClass: 2
Flags: W
LayerCount: 2
Fore
SplineSet
493 -25 m 0
 482.333007812 -25 470.333007812 -22.662109375 457 -17.9951171875 c 0
 439 -12.662109375 417.333007812 -0.662109375 392 18.0048828125 c 0
 366.666992188 36.671875 339.666992188 58.671875 311 84.0048828125 c 0
 282.333007812 109.337890625 254 135.004882812 226 161.004882812 c 0
 198 187.004882812 168.666992188 213.671875 138 241.004882812 c 0
 107.333007812 268.337890625 81.3330078125 290.004882812 60 306.004882812 c 0
 49.3330078125 314.004882812 42 325.004882812 38 339.004882812 c 0
 36.6669921875 345.004882812 36 351.671875 36 359.004882812 c 0
 36 365.671875 37 372.671875 39 380.004882812 c 0
 43 394.004882812 50.3330078125 404.004882812 61 410.004882812 c 0
 98.3330078125 438.004882812 142.666015625 473.004882812 193.999023438 515.004882812 c 0
 244.666015625 557.671875 291.333007812 596.004882812 334 630.004882812 c 0
 376.666992188 664.671875 415 692.004882812 449 712.004882812 c 0
 462.333007812 720.671875 475.666015625 725.004882812 488.999023438 725.004882812 c 0
 498.999023438 725.004882812 507.666015625 722.671875 514.999023438 718.004882812 c 0
 529.666015625 709.337890625 540.333007812 697.670898438 547 683.00390625 c 0
 550.333007812 676.336914062 552 669.00390625 552 661.00390625 c 0
 552 653.00390625 549.666992188 644.670898438 545 636.00390625 c 0
 537 622.670898438 520.666992188 607.670898438 496 591.00390625 c 0
 459.333007812 565.00390625 406 524.670898438 336 470.00390625 c 0
 266 415.336914062 218.666992188 378.669921875 194 360.002929688 c 1
 216.666992188 342.002929688 242.666992188 319.669921875 272 293.002929688 c 0
 302 266.3359375 329 241.668945312 353 219.001953125 c 0
 377 196.334960938 403 173.001953125 431 149.001953125 c 0
 459 125.001953125 483.666992188 106.334960938 505 93.001953125 c 0
 527 79.001953125 542 65.6689453125 550 53.001953125 c 0
 555.333007812 45.001953125 558 36.6689453125 558 28.001953125 c 0
 558 21.3349609375 556.666992188 14.66796875 554 8.0009765625 c 0
 545.333007812 -10.666015625 528 -21.3330078125 502 -24 c 0
 499.333007812 -24.6669921875 496.333007812 -25 493 -25 c 0
EndSplineSet
Validated: 1
EndChar

StartChar: equal
Encoding: 61 61 29
Width: 593
GlyphClass: 2
Flags: W
HStem: 235 107<109.503 486.62> 435 106<111.565 486.621>
LayerCount: 2
Fore
SplineSet
446 541 m 0
 465.333007812 541 479 536.333007812 487 527 c 0
 495 517.666992188 499.666992188 506 501 492 c 2
 501 491 l 2
 501 483.666992188 500.333007812 477 499 471 c 0
 497.666992188 465 495 459 491 453 c 0
 487 447 480.666992188 442 472 438 c 0
 466 435.333007812 459.666992188 434.333007812 453 435 c 2
 445 435 l 2
 421 435.666992188 396.333007812 436 371 436 c 2
 261 433 l 2
 214.333007812 431.666992188 180 431 158 431 c 0
 138.666992188 431 123 436 111 446 c 0
 99 456 93 468.666992188 93 484 c 2
 93 487 l 2
 93 501 97.6669921875 513.666992188 107 525 c 0
 117 535.666992188 131.333007812 541 150 541 c 2
 154 541 l 2
 193.59922644 539.800023441 236.918190364 539.200140625 283.957102695 539.200140625 c 0
 315.317909069 539.200140625 348.332187336 539.466781252 383 540 c 0
 417.666992188 540.666992188 438.666992188 541 446 541 c 0
453 239 m 2
 445 239 l 2
 429.666992188 239.666992188 415.666992188 240 403 240 c 0
 375 240 332 239.333007812 274 238 c 0
 216 236 176.666992188 235 156 235 c 0
 135.333007812 235 119.666015625 240.333007812 108.999023438 251 c 0
 98.33203125 261.666992188 92.9990234375 274.666992188 92.9990234375 290 c 2
 92.9990234375 292 l 2
 92.9990234375 306 98.33203125 318 108.999023438 328 c 0
 119.666015625 337.333007812 134.666015625 342 153.999023438 342 c 2
 171.999023438 342 l 2
 186.228298661 341.777560711 201.940466273 341.666341066 219.135526273 341.666341066 c 0
 253.500470505 341.666341066 293.788302893 342.110568524 339.999023438 342.999023438 c 2
 445.999023438 344.999023438 l 2
 465.33203125 344.999023438 478.999023438 340.33203125 486.999023438 330.999023438 c 0
 494.999023438 321.666015625 499.666015625 309.999023438 500.999023438 295.999023438 c 2
 500.999023438 294.999023438 l 2
 500.999023438 287.666015625 500.33203125 281.333007812 498.999023438 276 c 0
 497.666015625 270 494.999023438 264 490.999023438 258 c 0
 486.999023438 251.333007812 480.666015625 246 471.999023438 242 c 0
 466.666015625 240 460.333007812 239 453 239 c 2
EndSplineSet
Validated: 1
EndChar

StartChar: greater
Encoding: 62 62 30
Width: 593
GlyphClass: 2
Flags: W
LayerCount: 2
Fore
SplineSet
105 -18 m 0
 95.6669921875 -18 86.998046875 -15.6708984375 78.998046875 -11.00390625 c 0
 71.6650390625 -6.3369140625 64.998046875 -1.00390625 58.998046875 4.99609375 c 0
 53.6650390625 10.99609375 49.6650390625 17.6630859375 46.998046875 24.99609375 c 0
 43.6650390625 31.6630859375 41.6650390625 38.6630859375 40.998046875 45.99609375 c 0
 40.998046875 53.99609375 43.6650390625 62.3291015625 48.998046875 70.99609375 c 0
 56.998046875 84.3291015625 72.998046875 99.3291015625 96.998046875 115.99609375 c 0
 133.665039062 141.99609375 187.33203125 182.329101562 257.999023438 236.99609375 c 0
 327.999023438 291.663085938 375.33203125 328.330078125 399.999023438 346.997070312 c 1
 377.33203125 364.997070312 350.999023438 387.330078125 320.999023438 413.997070312 c 0
 290.999023438 440.6640625 264.33203125 465.331054688 240.999023438 487.998046875 c 0
 216.999023438 510.665039062 190.999023438 533.998046875 162.999023438 557.998046875 c 0
 134.999023438 581.998046875 110.33203125 600.665039062 88.9990234375 613.998046875 c 0
 66.9990234375 627.998046875 51.9990234375 641.331054688 43.9990234375 653.998046875 c 0
 38.666015625 661.998046875 35.9990234375 670.665039062 35.9990234375 679.998046875 c 0
 35.9990234375 686.665039062 37.33203125 692.998046875 39.9990234375 698.998046875 c 0
 48.666015625 717.665039062 65.9990234375 728.33203125 91.9990234375 730.999023438 c 0
 95.33203125 731.666015625 98.33203125 731.999023438 100.999023438 731.999023438 c 0
 111.666015625 731.999023438 123.666015625 729.666015625 136.999023438 724.999023438 c 0
 154.999023438 719.666015625 176.666015625 707.666015625 201.999023438 688.999023438 c 0
 227.33203125 670.33203125 254.33203125 648.33203125 282.999023438 622.999023438 c 0
 311.666015625 597.666015625 339.999023438 571.999023438 367.999023438 545.999023438 c 0
 395.999023438 519.999023438 425.33203125 493.33203125 455.999023438 465.999023438 c 0
 486.666015625 438.666015625 512.666015625 417.333007812 533.999023438 402 c 0
 544.666015625 394 551.999023438 382.666992188 555.999023438 368 c 0
 557.33203125 362 557.999023438 355.333007812 557.999023438 348 c 0
 557.999023438 341.333007812 556.999023438 334.333007812 554.999023438 327 c 0
 550.999023438 313 543.666015625 303 532.999023438 297 c 0
 495.666015625 269.666992188 451.333007812 234.666992188 400 192 c 0
 349.333007812 149.333007812 302.666015625 111 259.999023438 77 c 0
 217.33203125 43 178.999023438 15.6669921875 144.999023438 -5 c 0
 131.666015625 -13.6669921875 118.333007812 -18 105 -18 c 0
EndSplineSet
Validated: 1
EndChar

StartChar: question
Encoding: 63 63 31
Width: 593
GlyphClass: 2
Flags: W
HStem: -26.002 178.001<216.892 333.37> 508.999 21G<137.334 152.001> 625 109.07<238.464 367.064>
VStem: 181.003 187.001<7.88811 117.73> 214.003 125.996<216.992 316.186> 392.038 124.961<484.855 602.144>
LayerCount: 2
Fore
SplineSet
284 201 m 0xec
 278 201 271.669921875 201.665039062 265.002929688 202.998046875 c 0
 231.669921875 211.665039062 214.669921875 232.33203125 214.002929688 264.999023438 c 0
 214.002929688 274.33203125 215.669921875 284.33203125 219.002929688 294.999023438 c 0
 223.669921875 314.33203125 230.669921875 332.33203125 240.002929688 348.999023438 c 0
 249.3359375 365.666015625 259.668945312 379.999023438 271.001953125 391.999023438 c 0
 281.668945312 403.999023438 293.001953125 414.999023438 305.001953125 424.999023438 c 0
 317.001953125 435.666015625 328.334960938 445.333007812 339.001953125 454 c 0
 349.668945312 462.666992188 359.001953125 471.666992188 367.001953125 481 c 0
 383.692684226 498.975284522 392.038049776 517.568140583 392.038049776 536.779440159 c 0
 392.038049776 554.662532669 390.403600383 586.278723677 367.000976562 605 c 0
 349.819487696 618.363380229 325.045611271 625.045494998 292.67849798 625.045494998 c 0
 291.136556953 625.045494998 289.577383177 625.03033003 288.000976562 625 c 0
 280.000976562 625 272.333984375 623.333007812 265.000976562 620 c 0
 257.000976562 616 249.66796875 611.666992188 243.000976562 607 c 0
 237.000976562 602.333007812 230.333984375 595.666015625 223.000976562 586.999023438 c 0
 215.66796875 578.33203125 210.000976562 570.999023438 206.000976562 564.999023438 c 0
 202.000976562 558.999023438 196.66796875 551.666015625 190.000976562 542.999023438 c 0
 184.000976562 533.666015625 177.333984375 525.999023438 170.000976562 519.999023438 c 0
 163.333984375 513.999023438 156.000976562 510.33203125 148.000976562 508.999023438 c 2
 139.000976562 508.999023438 l 2
 135.66796875 508.999023438 131.66796875 509.666015625 127.000976562 510.999023438 c 0
 122.333984375 512.33203125 115.666992188 514.665039062 107 517.998046875 c 0
 92.3330078125 525.998046875 83 537.331054688 79 551.998046875 c 2
 77 563.998046875 l 2
 77 575.331054688 80.6669921875 588.998046875 88 604.998046875 c 0
 95.3330078125 619.665039062 104.666015625 633.665039062 115.999023438 646.998046875 c 0
 127.33203125 660.998046875 140.999023438 674.665039062 156.999023438 687.998046875 c 0
 172.999023438 701.998046875 191.999023438 713.331054688 213.999023438 721.998046875 c 0
 234.426937229 730.045709112 256.004156203 734.069540231 278.731462179 734.069540231 c 0
 280.480504429 734.069540231 282.236358063 734.045709112 283.999023438 733.998046875 c 0
 359.33203125 733.998046875 416.999023438 716.331054688 456.999023438 680.998046875 c 0
 496.999023438 645.665039062 516.999023438 592.665039062 516.999023438 521.998046875 c 0
 516.999023438 502.665039062 513.666015625 484.998046875 506.999023438 468.998046875 c 0
 500.999023438 452.998046875 492.999023438 438.998046875 482.999023438 426.998046875 c 0
 472.999023438 415.665039062 461.999023438 405.33203125 449.999023438 395.999023438 c 2
 413.999023438 367.999023438 l 2
 401.999023438 358.666015625 390.999023438 349.333007812 380.999023438 340 c 0
 370.999023438 330.666992188 362.33203125 319 354.999023438 305 c 0
 347.666015625 291.666992188 342.666015625 276.666992188 339.999023438 260 c 0
 336.666015625 240 329.333007812 224.666992188 318 214 c 0
 309.333007812 205.333007812 298 201 284 201 c 0xec
267.002929688 -26.001953125 m 2
 243.669921875 -26.001953125 224.002929688 -18.0029296875 208.002929688 -2.0029296875 c 0
 190.002929688 16.6640625 181.002929688 38.3310546875 181.002929688 62.998046875 c 0
 181.002929688 87.6650390625 190.669921875 108.33203125 210.002929688 124.999023438 c 0
 230.669921875 142.999023438 254.336914062 151.999023438 281.00390625 151.999023438 c 0
 305.670898438 151.999023438 326.00390625 143.999023438 342.00390625 127.999023438 c 0
 359.336914062 110.666015625 368.00390625 89.9990234375 368.00390625 65.9990234375 c 0xf4
 368.00390625 41.33203125 359.670898438 20.6650390625 343.00390625 3.998046875 c 0
 326.336914062 -12.6689453125 304.669921875 -22.6689453125 278.002929688 -26.001953125 c 2
 267.002929688 -26.001953125 l 2
EndSplineSet
Validated: 1
EndChar

StartChar: at
Encoding: 64 64 32
Width: 593
GlyphClass: 2
Flags: W
HStem: -141.995 110<230.143 383.131> 105.006 104.999<259.361 319.779> 369.005 101.001<271.14 371.622> 601.005 113.998<252.093 390.154>
VStem: 27 110.996<95.6791 430.758> 150 100.998<212.861 350.422> 331.999 104.8<217.922 335.271> 469.997 97.002<192.56 481.464>
LayerCount: 2
Fore
SplineSet
370 148 m 1
 350.666992188 119.333007812 323 105.005859375 287 105.005859375 c 0
 243.666992188 105.005859375 210 118.672851562 186 146.005859375 c 0
 162 173.338867188 150 214.005859375 150 268.005859375 c 0
 150 294.672851562 153 319.005859375 159 341.005859375 c 0
 165 363.672851562 173 383.005859375 183 399.005859375 c 0
 193.666992188 415.005859375 206 428.672851562 220 440.005859375 c 0
 245.333007812 460.005859375 275 470.005859375 309 470.005859375 c 0
 329.666992188 470.005859375 350 466.338867188 370 459.005859375 c 0
 387.333007812 452.338867188 401 443.005859375 411 431.005859375 c 0
 419 421.672851562 423 412.672851562 423 404.005859375 c 0
 423 399.338867188 421.666992188 394.338867188 419 389.005859375 c 0
 416.333007812 383.672851562 412.666015625 378.672851562 407.999023438 374.005859375 c 0
 403.33203125 369.338867188 397.999023438 366.005859375 391.999023438 364.005859375 c 0
 383.33203125 361.338867188 376.665039062 360.005859375 371.998046875 360.005859375 c 0
 363.998046875 360.005859375 354.331054688 361.338867188 342.998046875 364.005859375 c 0
 339.665039062 364.672851562 334.665039062 366.005859375 327.998046875 368.005859375 c 0
 320.665039062 369.338867188 313.665039062 369.671875 306.998046875 369.004882812 c 0
 300.331054688 368.337890625 293.6640625 366.004882812 286.997070312 362.004882812 c 0
 280.330078125 358.004882812 274.330078125 352.671875 268.997070312 346.004882812 c 0
 263.6640625 339.337890625 259.331054688 330.337890625 255.998046875 319.004882812 c 0
 252.665039062 307.671875 250.998046875 294.671875 250.998046875 280.004882812 c 0
 250.998046875 272.004882812 251.665039062 264.337890625 252.998046875 257.004882812 c 0
 253.665039062 249.671875 255.33203125 242.004882812 257.999023438 234.004882812 c 0
 263.33203125 218.004882812 271.999023438 210.004882812 283.999023438 210.004882812 c 0
 291.33203125 210.004882812 297.999023438 211.337890625 303.999023438 214.004882812 c 0
 309.999023438 216.671875 314.666015625 221.338867188 317.999023438 228.005859375 c 0
 325.999023438 242.672851562 330.666015625 268.005859375 331.999023438 304.005859375 c 0
 332.666015625 320.005859375 343.666015625 332.338867188 364.999023438 341.005859375 c 0
 376.257884818 345.746021429 386.462862513 348.116102456 395.614642267 348.116102456 c 0
 396.75924318 348.116102456 397.88736979 348.079029241 398.999023438 348.004882812 c 0
 406.999023438 348.004882812 413.999023438 347.004882812 419.999023438 345.004882812 c 0
 433.33203125 339.671875 440.33203125 330.004882812 440.999023438 316.004882812 c 0
 440.999023438 314.671875 440.666015625 313.338867188 439.999023438 312.005859375 c 0
 437.865585926 293.340820028 436.798867171 277.021687072 436.798867171 263.048960396 c 0
 436.798867171 259.55449964 436.865585926 256.206796693 436.999023438 253.005859375 c 0
 436.999023438 234.338867188 438.666015625 219.005859375 441.999023438 207.005859375 c 0
 443.33203125 202.338867188 444.665039062 199.005859375 445.998046875 197.005859375 c 0
 447.998046875 193.672851562 450.665039062 192.005859375 453.998046875 192.005859375 c 0
 455.331054688 193.338867188 456.6640625 195.338867188 457.997070312 198.005859375 c 0
 461.330078125 206.005859375 463.997070312 216.338867188 465.997070312 229.005859375 c 0
 468.6640625 253.005859375 469.997070312 275.005859375 469.997070312 295.005859375 c 0
 469.997070312 328.338867188 468.330078125 359.338867188 464.997070312 388.005859375 c 0
 462.330078125 416.005859375 458.663085938 440.005859375 453.99609375 460.005859375 c 0
 449.329101562 480.005859375 443.662109375 497.672851562 436.995117188 513.005859375 c 0
 429.662109375 529.005859375 423.329101562 541.672851562 417.99609375 551.005859375 c 0
 411.99609375 560.338867188 404.663085938 568.338867188 395.99609375 575.005859375 c 0
 387.329101562 581.672851562 379.99609375 586.672851562 373.99609375 590.005859375 c 0
 367.99609375 593.338867188 360.99609375 595.671875 352.99609375 597.004882812 c 0
 344.99609375 599.004882812 338.663085938 600.004882812 333.99609375 600.004882812 c 0
 329.99609375 600.004882812 324.663085938 600.337890625 317.99609375 601.004882812 c 0
 293.99609375 601.004882812 271.329101562 593.337890625 249.99609375 578.004882812 c 0
 228.663085938 562.671875 209.663085938 540.671875 192.99609375 512.004882812 c 0
 176.329101562 483.337890625 162.99609375 447.670898438 152.99609375 405.00390625 c 0
 142.99609375 362.336914062 137.99609375 315.336914062 137.99609375 264.00390625 c 0
 137.99609375 219.336914062 141.329101562 179.336914062 147.99609375 144.00390625 c 0
 154.663085938 108.670898438 163.330078125 80.337890625 173.997070312 59.0048828125 c 0
 184.6640625 37.671875 196.997070312 20.0048828125 210.997070312 6.0048828125 c 0
 224.997070312 -7.9951171875 238.6640625 -17.9951171875 251.997070312 -23.9951171875 c 0
 265.330078125 -29.328125 279.997070312 -31.9951171875 295.997070312 -31.9951171875 c 0
 311.997070312 -31.9951171875 326.6640625 -30.328125 339.997070312 -26.9951171875 c 0
 353.330078125 -23.662109375 364.330078125 -19.9951171875 372.997070312 -15.9951171875 c 0
 381.6640625 -11.9951171875 389.6640625 -6.328125 396.997070312 1.0048828125 c 0
 404.997070312 8.337890625 411.330078125 15.337890625 415.997070312 22.0048828125 c 0
 420.6640625 28.671875 425.997070312 36.671875 431.997070312 46.0048828125 c 0
 434.6640625 51.337890625 436.997070312 55.337890625 438.997070312 58.0048828125 c 0
 440.997070312 60.671875 443.6640625 64.0048828125 446.997070312 68.0048828125 c 0
 449.6640625 72.0048828125 452.331054688 75.337890625 454.998046875 78.0048828125 c 0
 457.665039062 80.0048828125 460.998046875 82.0048828125 464.998046875 84.0048828125 c 0
 468.998046875 86.0048828125 473.665039062 87.0048828125 478.998046875 87.0048828125 c 0
 483.665039062 87.0048828125 488.665039062 86.0048828125 493.998046875 84.0048828125 c 0
 500.665039062 81.337890625 506.33203125 78.0048828125 510.999023438 74.0048828125 c 0
 515.666015625 70.0048828125 519.333007812 65.0048828125 522 59.0048828125 c 0
 524.666992188 53.671875 525.666992188 48.0048828125 525 42.0048828125 c 0
 525 30.671875 522 17.0048828125 516 1.0048828125 c 0
 512 -8.9951171875 508.333007812 -17.662109375 505 -24.9951171875 c 0
 501 -32.328125 495.666992188 -41.328125 489 -51.9951171875 c 0
 482.333007812 -62.662109375 475 -71.9951171875 467 -79.9951171875 c 0
 459 -87.9951171875 449.333007812 -95.9951171875 438 -103.995117188 c 0
 426 -111.995117188 413 -118.995117188 399 -124.995117188 c 0
 385 -130.328125 369 -134.328125 351 -136.995117188 c 0
 333 -140.328125 314.333007812 -141.995117188 295 -141.995117188 c 2
 289 -141.995117188 l 2
 251.666992188 -141.995117188 217 -132.662109375 185 -113.995117188 c 0
 152.333007812 -95.328125 124.333007812 -69.9951171875 101 -37.9951171875 c 0
 77.6669921875 -5.9951171875 59.6669921875 33.0048828125 47 79.0048828125 c 0
 33.6669921875 125.004882812 27 174.671875 27 228.004882812 c 0
 27 287.337890625 31.6669921875 342.670898438 41 394.00390625 c 0
 50.3330078125 445.336914062 63.3330078125 490.669921875 80 530.002929688 c 0
 97.3330078125 568.669921875 117.666015625 602.002929688 140.999023438 630.002929688 c 0
 164.33203125 658.002929688 190.33203125 679.002929688 218.999023438 693.002929688 c 0
 247.666015625 707.002929688 278.333007812 714.3359375 311 715.002929688 c 0
 334.333007812 715.002929688 355.333007812 713.002929688 374 709.002929688 c 0
 393.333007812 705.669921875 412 699.669921875 430 691.002929688 c 0
 448 681.669921875 464 669.669921875 478 655.002929688 c 0
 492 640.3359375 504.666992188 622.002929688 516 600.002929688 c 0
 527.333007812 578.002929688 536.666015625 552.3359375 543.999023438 523.002929688 c 0
 559.33203125 461.669921875 566.999023438 385.002929688 566.999023438 293.002929688 c 0
 566.999023438 242.3359375 559.666015625 197.668945312 544.999023438 159.001953125 c 0
 536.999023438 138.334960938 525.33203125 121.66796875 509.999023438 109.000976562 c 0
 494.666015625 96.333984375 476.333007812 89.6669921875 455 89 c 0
 424.333007812 89 401 99.3330078125 385 120 c 0
 379 128 374 137.333007812 370 148 c 1
EndSplineSet
Validated: 1
EndChar

StartChar: A
Encoding: 65 65 33
Width: 593
GlyphClass: 2
Flags: W
LayerCount: 2
Fore
SplineSet
120 49 m 0
 112.666992188 25 101.329101562 8.9990234375 85.99609375 0.9990234375 c 0
 77.3291015625 -3.66796875 68.99609375 -6.0009765625 60.99609375 -6.0009765625 c 0
 52.99609375 -6.0009765625 45.3291015625 -4.333984375 37.99609375 -1.0009765625 c 0
 25.99609375 4.33203125 17.3291015625 12.6650390625 11.99609375 23.998046875 c 0
 7.99609375 32.6650390625 5.99609375 42.1650390625 5.99609375 52.498046875 c 0
 5.99609375 62.8310546875 7.3291015625 73.998046875 9.99609375 85.998046875 c 0
 13.99609375 106.665039062 32.3291015625 154.665039062 64.99609375 229.998046875 c 1
 55.6630859375 238.665039062 50.330078125 249.33203125 48.9970703125 261.999023438 c 2
 48.9970703125 263.999023438 l 2
 48.9970703125 275.33203125 54.6640625 285.999023438 65.9970703125 295.999023438 c 0
 75.330078125 304.666015625 86.9970703125 311.333007812 100.997070312 316 c 1
 186.997070312 498.666992188 253.6640625 621 300.997070312 683 c 0
 312.330078125 697 322.997070312 707.333007812 332.997070312 714 c 0
 342.997070312 721.333007812 354.330078125 725 366.997070312 725 c 2
 374.997070312 725 l 2
 388.330078125 725 400.330078125 722 410.997070312 716 c 0
 425.6640625 708 434.6640625 695.333007812 437.997070312 678 c 0
 452.6640625 598 476.6640625 485 509.997070312 339 c 0
 528.6640625 257.666992188 543.331054688 197.833984375 553.998046875 159.500976562 c 0
 564.665039062 121.16796875 572.665039062 97.66796875 577.998046875 89.0009765625 c 0
 584.665039062 77.0009765625 587.998046875 65.66796875 587.998046875 55.0009765625 c 2
 587.998046875 49.0009765625 l 2
 586.665039062 37.0009765625 582.498046875 26.66796875 575.498046875 18.0009765625 c 0
 568.498046875 9.333984375 560.331054688 3.0009765625 550.998046875 -0.9990234375 c 0
 539.665039062 -4.33203125 532.33203125 -5.9990234375 528.999023438 -5.9990234375 c 1
 528.999023438 -5.9990234375 l 1
 520.33203125 -5.9990234375 511.665039062 -3.666015625 502.998046875 1.0009765625 c 0
 487.665039062 9.0009765625 475.33203125 24.66796875 465.999023438 48.0009765625 c 0
 456.666015625 69.333984375 438.999023438 137.000976562 412.999023438 251.000976562 c 1
 329.666015625 247.66796875 254.333007812 241.000976562 187 231.000976562 c 1
 164.333007812 178.333984375 142 117.666992188 120 49 c 0
231.995117188 331.999023438 m 1
 289.995117188 337.999023438 342.995117188 341.666015625 390.995117188 342.999023438 c 1
 340.995117188 568.999023438 l 1
 312.328125 520.33203125 275.995117188 441.33203125 231.995117188 331.999023438 c 1
EndSplineSet
Validated: 1
EndChar

StartChar: B
Encoding: 66 66 34
Width: 593
GlyphClass: 2
Flags: W
HStem: -23 21G<110.333 117.666> -9.65096 90.1539<202.37 242.727> 285.003 96.4491<154 345.74> 605.004 103.999<158.533 350.001>
VStem: 30 121<82.114 137.826 144.104 285.003 383.002 598.597> 405.001 119<431.807 557.715> 442 124.001<157.259 228.28>
LayerCount: 2
Fore
SplineSet
33 41 m 2xba
 34.3330078125 60.3330078125 35.3330078125 93.3369140625 36 140.00390625 c 0
 36 227.336914062 34 324.00390625 30 430.00390625 c 1
 28.6669921875 473.336914062 28 502.50390625 28 517.50390625 c 0
 28 532.50390625 28.5 552.50390625 29.5 577.50390625 c 0
 30.5 602.50390625 31 620.00390625 31 630.00390625 c 0
 31.6669921875 650.670898438 37.833984375 666.50390625 49.5009765625 677.50390625 c 0
 61.16796875 688.50390625 75.66796875 694.00390625 93.0009765625 694.00390625 c 2
 96.0009765625 694.00390625 l 1
 114.000976562 699.336914062 136.333984375 703.336914062 163.000976562 706.00390625 c 0
 173.66796875 707.336914062 185.16796875 708.169921875 197.500976562 708.502929688 c 0
 209.833984375 708.8359375 219.333984375 709.002929688 226.000976562 709.002929688 c 2
 248.000976562 709.002929688 l 1
 260.000976562 709.002929688 l 2
 311.333984375 709.002929688 357.333984375 700.669921875 398.000976562 684.002929688 c 0
 438.000976562 666.669921875 468.66796875 642.002929688 490.000976562 610.002929688 c 0
 512.66796875 576.669921875 524.000976562 537.669921875 524.000976562 493.002929688 c 0xbc
 524.000976562 455.002929688 514.66796875 422.002929688 496.000976562 394.002929688 c 0
 481.333984375 372.669921875 463.000976562 355.669921875 441.000976562 343.002929688 c 1
 455.66796875 336.3359375 470.000976562 328.668945312 484.000976562 320.001953125 c 0
 506.66796875 305.334960938 526.000976562 288.66796875 542.000976562 270.000976562 c 0
 558.000976562 251.333984375 566.000976562 233.000976562 566.000976562 215.000976562 c 2
 566.000976562 214.000976562 l 2
 566.000976562 188.000976562 559.16796875 162.333984375 545.500976562 137.000976562 c 0
 531.833984375 111.66796875 512.166992188 88.5009765625 486.5 67.5009765625 c 0
 460.833007812 46.5009765625 426.666015625 28.66796875 383.999023438 14.0009765625 c 0
 341.33203125 -0.666015625 294.33203125 -9.9990234375 242.999023438 -13.9990234375 c 1
 237.202026601 -11.1003127214 231.341893917 -9.65095736336 225.418705651 -9.65095736336 c 0x7a
 217.718647667 -9.65095736336 209.912028151 -12.1003127214 201.999023438 -16.9990234375 c 1
 167.33203125 -19.666015625 145.999023438 -21.3330078125 137.999023438 -22 c 0
 129.33203125 -22.6669921875 121.33203125 -23 113.999023438 -23 c 0
 106.666015625 -23 99.3330078125 -22.3330078125 92 -21 c 2
 90 -21 l 2
 73.3330078125 -21 59.3330078125 -15.3330078125 48 -4 c 0
 38 6 33 19 33 35 c 2
 33 41 l 2xba
151 403.00390625 m 2
 151 383.001953125 l 1
 180.333007812 382.334960938 207 381.834960938 231 381.501953125 c 0
 233.398522949 381.468672838 235.762088966 381.452032208 238.09069805 381.452032208 c 0
 259.062519772 381.452032208 277.198953756 382.801768494 292.5 385.501953125 c 0
 309.5 388.501953125 323.666992188 392.334960938 335 397.001953125 c 0
 346.333007812 401.668945312 356.333007812 407.3359375 365 414.002929688 c 0
 373.666992188 420.669921875 380.333984375 427.336914062 385.000976562 434.00390625 c 0
 389.66796875 440.670898438 393.500976562 448.170898438 396.500976562 456.50390625 c 0
 399.500976562 464.836914062 401.66796875 472.336914062 403.000976562 479.00390625 c 0
 404.333984375 485.670898438 405.000976562 492.670898438 405.000976562 500.00390625 c 0
 405.000976562 514.670898438 401.66796875 528.170898438 395.000976562 540.50390625 c 0
 388.333984375 552.836914062 379.833984375 563.00390625 369.500976562 571.00390625 c 0
 359.16796875 579.00390625 347.334960938 585.670898438 334.001953125 591.00390625 c 0
 311.502510964 600.378673817 287.831537997 605.066459903 262.988229625 605.066459903 c 0
 261.331352052 605.066459903 259.669259965 605.045608765 258.001953125 605.00390625 c 0
 223.334960938 605.00390625 189.66796875 602.00390625 157.000976562 596.00390625 c 1
 156.333984375 584.00390625 155.666992188 566.00390625 155 542.00390625 c 0
 152.333007812 493.336914062 151 447.00390625 151 403.00390625 c 2
427.5 165.501953125 m 0
 437.166992188 177.834960938 442 189.004882812 442 199.004882812 c 0
 442 204.337890625 438.666992188 210.670898438 432 218.00390625 c 0
 425.333007812 225.336914062 414.666015625 233.169921875 399.999023438 241.502929688 c 0
 385.33203125 249.8359375 364.33203125 258.002929688 336.999023438 266.002929688 c 0
 309.666015625 274.002929688 278.333007812 280.3359375 243 285.002929688 c 1
 154 285.002929688 l 1
 156.666992188 193.002929688 159 124.669921875 161 80.0029296875 c 1
 168.333007812 80.0029296875 179 80.169921875 193 80.5029296875 c 0x7a
 207 80.8359375 219 81.3359375 229 82.0029296875 c 0
 261 83.3359375 291 88.3359375 319 97.0029296875 c 0
 347 105.669921875 369.666992188 116.169921875 387 128.502929688 c 0
 404.333007812 140.8359375 417.833007812 153.168945312 427.5 165.501953125 c 0
EndSplineSet
Validated: 1
EndChar

StartChar: C
Encoding: 67 67 35
Width: 593
GlyphClass: 2
Flags: W
LayerCount: 2
Fore
SplineSet
570 692 m 0
 576 666 579.001953125 638.338867188 579.001953125 609.005859375 c 0
 579.001953125 589.005859375 578.668945312 577.005859375 578.001953125 573.005859375 c 0
 578.001953125 556.338867188 572.001953125 539.505859375 560.001953125 522.505859375 c 0
 548.001953125 505.505859375 535.001953125 496.338867188 521.001953125 495.005859375 c 0
 518.334960938 494.338867188 515.334960938 494.005859375 512.001953125 494.005859375 c 0
 500.001953125 494.005859375 488.001953125 498.005859375 476.001953125 506.005859375 c 0
 459.334960938 516.672851562 451.001953125 531.005859375 451.001953125 549.005859375 c 0
 451.001953125 553.672851562 451.668945312 565.672851562 453.001953125 585.005859375 c 1
 443.668945312 591.005859375 437.668945312 594.672851562 435.001953125 596.005859375 c 0
 432.334960938 597.338867188 428.66796875 599.338867188 424.000976562 602.005859375 c 0
 415.333984375 606.005859375 406.666992188 608.005859375 398 608.005859375 c 0
 378 608.005859375 356 602.005859375 332 590.005859375 c 0
 308 578.005859375 284.666992188 560.505859375 262 537.505859375 c 0
 239.333007812 514.505859375 218.833007812 488.172851562 200.5 458.505859375 c 0
 182.166992188 428.838867188 167.333984375 395.171875 156.000976562 357.504882812 c 0
 144.66796875 319.837890625 139.000976562 282.004882812 139.000976562 244.004882812 c 0
 139.000976562 217.337890625 145.000976562 191.670898438 157.000976562 167.00390625 c 0
 169.000976562 142.336914062 185.500976562 122.169921875 206.500976562 106.502929688 c 0
 227.500976562 90.8359375 249.333984375 83.0029296875 272.000976562 83.0029296875 c 0
 294.66796875 83.0029296875 316.66796875 85.169921875 338.000976562 89.5029296875 c 0
 359.333984375 93.8359375 378.500976562 99.3359375 395.500976562 106.002929688 c 0
 412.500976562 112.669921875 427.16796875 119.502929688 439.500976562 126.502929688 c 0
 451.833984375 133.502929688 462.666992188 140.669921875 472 148.002929688 c 0
 481.333007812 154.669921875 489.666015625 159.669921875 496.999023438 163.002929688 c 0
 504.999023438 167.002929688 513.83203125 169.002929688 523.499023438 169.002929688 c 0
 533.166015625 169.002929688 542.333007812 166.002929688 551 160.002929688 c 0
 565.666992188 148.669921875 573 135.169921875 573 119.502929688 c 0
 573 103.8359375 564.666992188 86.6689453125 548 68.001953125 c 0
 490 2.001953125 397.333007812 -30.998046875 270 -30.998046875 c 2
 260 -30.998046875 l 2
 228.666992188 -30.998046875 199.333984375 -26.3310546875 172.000976562 -16.998046875 c 0
 144.66796875 -7.6650390625 121.66796875 5.16796875 103.000976562 21.5009765625 c 0
 84.333984375 37.833984375 68.333984375 56.333984375 55.0009765625 77.0009765625 c 0
 41.66796875 97.66796875 31.66796875 119.500976562 25.0009765625 142.500976562 c 0
 18.333984375 165.500976562 15.0009765625 188.66796875 15.0009765625 212.000976562 c 0
 15.0009765625 260.000976562 20.16796875 306.500976562 30.5009765625 351.500976562 c 0
 40.833984375 396.500976562 54.6669921875 437.000976562 72 473.000976562 c 0
 89.3330078125 509.000976562 109.666015625 542.333984375 132.999023438 573.000976562 c 0
 158.33203125 603.66796875 184.999023438 629.000976562 212.999023438 649.000976562 c 0
 240.999023438 669.000976562 270.33203125 684.66796875 300.999023438 696.000976562 c 0
 331.666015625 707.333984375 361.333007812 713.000976562 390 713.000976562 c 0
 413.333007812 713.000976562 435 711.000976562 455 707.000976562 c 1
 459 714.333984375 464 720.666992188 470 726 c 0
 479.333007812 734 489.666015625 738.666992188 500.999023438 740 c 0
 505.666015625 740.666992188 508.333007812 741 509 741 c 2
 510 741 l 2
 520.666992188 741 531.666992188 737.666992188 543 731 c 0
 557 721.666992188 566 708.666992188 570 692 c 0
EndSplineSet
Validated: 1
EndChar

StartChar: D
Encoding: 68 68 36
Width: 593
GlyphClass: 2
Flags: W
HStem: -31 109.998<165.457 390.05> 694 20G<68.3364 88.3364>
VStem: 12.4041 121.477<109.381 166.726 194.179 614.997> 20.0039 125<100.593 519.491> 461.006 119.992<169.195 388.265>
LayerCount: 2
Fore
SplineSet
18 62 m 2xe8
 19.3330078125 84.6669921875 20.00390625 120.331054688 20.00390625 168.998046875 c 0xd8
 20.00390625 256.998046875 18.00390625 361.331054688 14.00390625 481.998046875 c 1
 13.3369140625 517.998046875 12.8369140625 541.831054688 12.50390625 553.498046875 c 0
 12.4373437271 555.830077552 12.4040624657 558.401826953 12.4040624657 561.213295075 c 0
 12.4040624657 572.46741234 12.9373437271 587.562655128 14.00390625 606.499023438 c 0
 15.3369140625 630.166015625 16.00390625 644.666015625 16.00390625 649.999023438 c 1
 16.6708984375 670.666015625 22.6708984375 686.333007812 34.00390625 697 c 0
 45.3369140625 708.333007812 59.669921875 714 77.0029296875 714 c 0
 99.669921875 714 129.669921875 710.666992188 167.002929688 704 c 0
 190.3359375 700 214.168945312 694.5 238.501953125 687.5 c 0
 262.834960938 680.5 289.16796875 670.666992188 317.500976562 658 c 0
 345.833984375 645.333007812 372.666992188 630.833007812 398 614.5 c 0
 423.333007812 598.166992188 447.666015625 577.333984375 470.999023438 552.000976562 c 0
 492.999023438 527.333984375 512.166015625 500.166992188 528.499023438 470.5 c 0
 544.83203125 440.833007812 557.665039062 405.833007812 566.998046875 365.5 c 0
 576.331054688 325.166992188 580.998046875 281.666992188 580.998046875 235 c 0
 580.998046875 211.666992188 577.665039062 187.666992188 570.998046875 163 c 0
 564.331054688 138.333007812 554.331054688 114.666015625 540.998046875 91.9990234375 c 0
 527.665039062 69.33203125 511.83203125 48.83203125 493.499023438 30.4990234375 c 0
 475.166015625 12.166015625 452.333007812 -2.6669921875 425 -14 c 0
 397 -25.3330078125 367.333007812 -31 336 -31 c 2
 326 -31 l 2
 293.333007812 -31 260.333007812 -29.5 227 -26.5 c 0
 193.666992188 -23.5 167 -20 147 -16 c 0
 127 -12 110.5 -8.3330078125 97.5 -5 c 0
 84.5 -1.6669921875 76.6669921875 0 74 0 c 0
 57.3330078125 0 43.3330078125 5.6669921875 32 17 c 0
 22.6252324324 26.3747675676 17.9374463472 38.0934550085 17.9374463472 52.15525772 c 0
 17.9374463472 53.0930831167 17.9582974852 54.0413306229 18 55 c 2
 18 62 l 2xe8
229.50390625 85.9970703125 m 0
 259.836914062 81.330078125 295.005859375 78.998046875 335.005859375 78.998046875 c 0
 352.338867188 78.998046875 368.838867188 84.6650390625 384.505859375 95.998046875 c 0
 400.172851562 107.331054688 413.505859375 122.1640625 424.505859375 140.497070312 c 0
 435.505859375 158.830078125 444.338867188 179.330078125 451.005859375 201.997070312 c 0
 457.672851562 224.6640625 461.005859375 246.6640625 461.005859375 267.997070312 c 0
 461.005859375 388.6640625 407.672851562 480.997070312 301.005859375 544.997070312 c 0
 263.005859375 567.6640625 207.672851562 590.997070312 135.005859375 614.997070312 c 1
 134.25589943 584.498821274 133.880945202 553.484956539 133.880945202 521.955476105 c 0xe8
 133.880945202 469.401851466 134.92266274 415.415716202 137.005859375 359.997070312 c 0
 138.338867188 331.330078125 139.671875 289.497070312 141.004882812 234.497070312 c 0
 142.337890625 179.497070312 143.670898438 137.330078125 145.00390625 107.997070312 c 1
 171.00390625 97.9970703125 199.170898438 90.6640625 229.50390625 85.9970703125 c 0
EndSplineSet
Validated: 1
EndChar

StartChar: E
Encoding: 69 69 37
Width: 593
GlyphClass: 2
Flags: W
HStem: -20 112.001<152.752 496.955> -6 115<236.933 554.529> 301.002 108.999<148.002 421.637> 319.002 106<228.85 541.107> 590 107.999<153.198 556.709>
VStem: 25.001 124.001<95.1892 301.002 410.001 581.907>
LayerCount: 2
Fore
SplineSet
92 704 m 2x8c
 108.666992188 704 122.672851562 698.666015625 134.005859375 687.999023438 c 1
 191.338867188 694.666015625 265.002929688 697.999023438 355.002929688 697.999023438 c 0
 378.335937501 697.999023438 400.005859375 697.666015625 420.005859375 696.999023438 c 0
 461.338867188 695.666015625 493.671875 693.666015625 517.004882812 690.999023438 c 0
 535.671875 688.999023438 549.171875 683.83203125 557.504882812 675.499023438 c 0
 565.837890625 667.166015625 570.337890625 655.999023438 571.004882812 641.999023438 c 0
 571.004882812 634.666015625 570.171875 627.833007812 568.504882812 621.5 c 0
 566.837890625 615.166992188 564.337890625 609.333984375 561.004882812 604.000976562 c 0
 557.004882812 597.333984375 550.671875 592.333984375 542.004882812 589.000976562 c 0
 536.004882812 586.333984375 529.671875 585.000976562 523.004882812 585.000976562 c 0
 520.337890625 585.000976562 517.670898438 585.333984375 515.00390625 586.000976562 c 0
 476.674316401 588.778211832 436.724898656 590.166829468 395.15508804 590.166829468 c 0
 386.836253986 590.166829468 378.452528232 590.111219645 370.00390625 590 c 2
 316.00390625 590 l 2
 252.670898438 588.666992188 197.670898438 585.333984375 151.00390625 580.000976562 c 1
 148.336914062 522.000976562 147.00390625 465.333984375 147.00390625 410.000976562 c 1xac
 198.336914062 410.66796875 267.669921875 413.334960938 355.002929688 418.001953125 c 0
 441.002929688 422.668945312 489.334960937 425.001953125 500.001953125 425.001953125 c 0
 519.334960937 425.001953125 533.168945312 420.334960938 541.501953125 411.001953125 c 0
 549.834960938 401.668945312 554.001953125 390.001953125 554.001953125 376.001953125 c 0
 554.001953125 360.001953125 550.668945312 347.334960938 544.001953125 338.001953125 c 0
 534.668945312 326.001953125 520.001953125 319.668945312 500.001953125 319.001953125 c 0x1c
 488.001953125 319.001953125 436.334960938 316.334960938 345.001953125 311.001953125 c 0
 251.668945312 305.001953125 186.001953125 301.668945312 148.001953125 301.001953125 c 1
 148.668945312 284.334960938 149.001953125 268.16796875 149.001953125 252.500976562 c 2
 149.001953125 203.000976562 l 2
 149.668945312 158.333984375 151.001953125 127.333984375 153.001953125 110.000976562 c 0
 153.668945312 104.000976562 154.3359375 99.0009765625 155.002929688 95.0009765625 c 0
 168.3359375 93.0009765625 188.168945312 92.0009765625 214.501953125 92.0009765625 c 0xac
 240.834960938 92.0009765625 274.001953125 92.66796875 314.001953125 94.0009765625 c 0
 407.334960938 97.333984375 466.001953125 101.666992188 490.001953125 107 c 0
 500.001953125 108.333007812 509.168945312 109 517.501953125 109 c 0
 525.834960938 109 533.16796875 107.333007812 539.500976562 104 c 0
 545.833984375 100.666992188 551.000976562 97.1669921875 555.000976562 93.5 c 0
 559.000976562 89.8330078125 562.16796875 85.3330078125 564.500976562 80 c 0
 566.833984375 74.6669921875 568.500976562 70 569.500976562 66 c 0
 570.500976562 62 571.004882812 57.6669921875 571.004882812 53 c 0
 571.004882812 37 565.66796875 23 555.000976562 11 c 0
 545.000976562 -0.3330078125 531.000976562 -6.3330078125 513.000976562 -7 c 1
 507.66796875 1.6669921875 502.334960938 2 497.001953125 -6 c 1
 494.001953125 -6 l 2x4c
 478.668945312 -6 449.668945312 -7.3330078125 407.001953125 -10 c 0
 363.001953125 -12.6669921875 318.168945312 -15 272.501953125 -17 c 0
 226.834960938 -19 192.334960938 -20 169.001953125 -20 c 0
 146.334960938 -20 127.66796875 -19.3330078125 113.000976562 -18 c 0
 94.333984375 -16.6669921875 76.333984375 -8 59.0009765625 8 c 0
 41.66796875 24 31.66796875 43 29.0009765625 65 c 0
 27.0009765625 81 25.66796875 109 25.0009765625 149 c 0
 25.0009765625 185.666992188 25.333984375 222.5 26.0009765625 259.5 c 0
 26.66796875 296.5 27.0009765625 327.833007812 27.0009765625 353.5 c 0
 27.0009765625 379.166992188 26.333984375 415 25.0009765625 461 c 0
 24.333984375 499.666992188 23.833984375 525.5 23.5009765625 538.5 c 0
 23.4344140396 541.098475967 23.4011327782 543.916694097 23.4011327782 546.954654389 c 0
 23.4011327782 559.11540453 23.9344140396 574.797186401 25.0009765625 594 c 0
 26.333984375 618 27.0009765625 633 27.0009765625 639 c 2
 27.0009765625 640 l 2
 27.66796875 660.666992188 33.66796875 676.5 45.0009765625 687.5 c 0
 56.333984375 698.5 70.6669921875 704 88 704 c 2
 92 704 l 2x8c
EndSplineSet
Validated: 1
EndChar

StartChar: F
Encoding: 70 70 38
Width: 593
GlyphClass: 2
Flags: W
HStem: -22.002 21G<87.3325 95.6655> 313.498 106.502<147.999 504.152> 597 109.099<154.966 556.043> 695 20G<92.6665 101.667>
VStem: 25 121.749<39.4946 142.728 166.745 310.581 416 589> 29 127.999<-3.56058 304.932>
LayerCount: 2
Fore
SplineSet
93 715 m 0xd8
 110.333007812 715 124.333007812 709.33203125 135 697.999023438 c 1
 212.397354935 703.398838899 287.9051027 706.099102549 361.522531453 706.099102549 c 0
 369.705041187 706.099102549 377.864197695 706.065743171 386 705.999023438 c 0
 439.333007812 705.999023438 483 704.666015625 517 701.999023438 c 0
 535.666992188 700.666015625 549.166992188 695.666015625 557.5 686.999023438 c 0
 565.833007812 678.33203125 570.333007812 666.999023438 571 652.999023438 c 2
 571 651.999023438 l 2
 571 636.666015625 566.166992188 623.333007812 556.5 612 c 0
 546.833007812 600.666992188 532.333007812 595 513 595 c 2
 511 595 l 2
 483.500594845 596.499954238 454.688952868 597.250137331 424.565074068 597.250137331 c 0
 414.522555726 597.250137331 404.334197703 597.166763309 394 597 c 0
 316.666992188 597 235.666992188 594.333007812 151 589 c 1
 150.333007812 579 149.666015625 563.666992188 148.999023438 543 c 0
 147.4990692 513.501144129 146.748886107 485.501830545 146.748886107 459.002471199 c 0xe8
 146.748886107 450.168273449 146.832260129 441.500777962 146.999023438 433 c 2
 146.999023438 416 l 1
 174.33203125 418.666992188 203.999023438 420 235.999023438 420 c 0
 244.666015625 420 253.333007812 419.666992188 262 419 c 0
 310 418.333007812 353.333007812 416.666015625 392 413.999023438 c 0
 431.333007812 411.33203125 460.833007812 408.165039062 480.5 404.498046875 c 0
 500.166992188 400.831054688 513.833984375 395.1640625 521.500976562 387.497070312 c 0
 529.16796875 379.830078125 533.66796875 369.330078125 535.000976562 355.997070312 c 0
 535.000976562 341.997070312 531.66796875 329.6640625 525.000976562 318.997070312 c 0
 520.333984375 312.330078125 513.666992188 307.330078125 505 303.997070312 c 0
 499 301.997070312 492.333007812 300.997070312 485 300.997070312 c 2
 478 300.997070312 l 2
 457.333007812 304.330078125 427.333007812 307.330078125 388 309.997070312 c 0
 350.662109368 312.368019422 312.270720841 313.553493977 272.825148295 313.553493977 c 0
 267.899868099 313.553493977 262.958152446 313.53501161 258 313.498046875 c 0
 213.333007812 313.165039062 176.666015625 311.665039062 147.999023438 308.998046875 c 1
 151.33203125 222.331054688 154.33203125 130.998046875 156.999023438 34.998046875 c 0
 154.999023438 16.998046875 146.33203125 2.998046875 130.999023438 -7.001953125 c 0
 117.666015625 -16.3349609375 103.33203125 -21.3349609375 87.9990234375 -22.001953125 c 0
 86.666015625 -22.001953125 85.6669921875 -21.6689453125 85 -21.001953125 c 0
 68.3330078125 -21.001953125 54.3330078125 -15.3349609375 43 -4.001953125 c 0
 33.6252324324 5.3728144426 28.9374463472 17.3841700186 28.9374463472 32.032113603 c 0
 28.9374463472 33.0090305591 28.9582974852 33.9976749832 29 34.998046875 c 2
 29 40.998046875 l 2xe4
 30.3330078125 61.6650390625 31 96.33203125 31 144.999023438 c 0
 31 236.999023438 29 338.999023438 25 450.999023438 c 0
 23.6669921875 494.33203125 23 523.499023438 23 538.499023438 c 0
 23 553.499023438 23.5 573.499023438 24.5 598.499023438 c 0
 25.5 623.499023438 26.3330078125 640.666015625 27 649.999023438 c 0
 27.6669921875 670.666015625 33.6669921875 686.333007812 45 697 c 0
 56.3330078125 708.333007812 70.666015625 714 87.9990234375 714 c 0
 90.666015625 714.666992188 92.3330078125 715 93 715 c 0xd8
EndSplineSet
Validated: 1
EndChar

StartChar: G
Encoding: 71 71 39
Width: 593
GlyphClass: 2
Flags: W
LayerCount: 2
Fore
SplineSet
341 -16 m 0
 314.333007812 -26 287.671875 -30.9951171875 261.004882812 -30.9951171875 c 0
 228.337890625 -30.9951171875 198.004882812 -26.328125 170.004882812 -16.9951171875 c 0
 142.671875 -7.662109375 119.838867188 5.1708984375 101.505859375 21.50390625 c 0
 83.1728515625 37.8369140625 67.1728515625 56.3369140625 53.505859375 77.00390625 c 0
 39.8388671875 97.6708984375 29.671875 119.50390625 23.0048828125 142.50390625 c 0
 16.337890625 165.50390625 13.0048828125 188.670898438 13.0048828125 212.00390625 c 0
 13.0048828125 260.670898438 18.171875 308.00390625 28.5048828125 354.00390625 c 0
 38.837890625 400.00390625 52.6708984375 441.336914062 70.00390625 478.00390625 c 0
 87.3369140625 514.670898438 107.669921875 548.670898438 131.002929688 580.00390625 c 0
 156.3359375 610.670898438 183.168945312 636.50390625 211.501953125 657.50390625 c 0
 239.834960938 678.50390625 269.001953125 694.670898438 299.001953125 706.00390625 c 0
 329.668945312 718.00390625 360.001953125 724.00390625 390.001953125 724.00390625 c 0
 420.001953125 724.00390625 453.668945312 717.336914062 491.001953125 704.00390625 c 0
 527.001953125 690.670898438 550.668945312 678.337890625 562.001953125 667.004882812 c 0
 574.001953125 655.004882812 580.334960938 640.671875 581.001953125 624.004882812 c 0
 581.001953125 616.004882812 579.334960938 607.337890625 576.001953125 598.004882812 c 0
 572.001953125 586.004882812 563.334960938 577.337890625 550.001953125 572.004882812 c 0
 543.334960938 569.337890625 536.66796875 568.004882812 530.000976562 568.004882812 c 0
 522.66796875 568.004882812 516.334960938 569.004882812 511.001953125 571.004882812 c 0
 505.668945312 573.004882812 495.668945312 578.337890625 481.001953125 587.004882812 c 0
 466.334960938 595.671875 451.334960938 603.171875 436.001953125 609.504882812 c 0
 420.668945312 615.837890625 407.3359375 619.004882812 396.002929688 619.004882812 c 0
 376.002929688 619.004882812 354.002929688 612.837890625 330.002929688 600.504882812 c 0
 306.002929688 588.171875 282.8359375 570.171875 260.502929688 546.504882812 c 0
 238.169921875 522.837890625 217.669921875 495.670898438 199.002929688 465.00390625 c 0
 180.3359375 434.336914062 165.3359375 399.669921875 154.002929688 361.002929688 c 0
 142.669921875 322.3359375 137.002929688 283.668945312 137.002929688 245.001953125 c 0
 137.002929688 218.334960938 143.002929688 192.501953125 155.002929688 167.501953125 c 0
 167.002929688 142.501953125 183.502929688 122.168945312 204.502929688 106.501953125 c 0
 225.502929688 90.8349609375 247.669921875 83.001953125 271.002929688 83.001953125 c 0
 286.3359375 83.001953125 302.002929688 87.501953125 318.002929688 96.501953125 c 0
 334.002929688 105.501953125 349.002929688 117.334960938 363.002929688 132.001953125 c 0
 377.002929688 146.668945312 390.3359375 163.3359375 403.002929688 182.002929688 c 0
 422.3359375 210.669921875 437.668945312 240.002929688 449.001953125 270.002929688 c 1
 410.334960938 268.002929688 371.334960938 264.502929688 332.001953125 259.502929688 c 0
 292.668945312 254.502929688 265.3359375 248.3359375 250.002929688 241.002929688 c 0
 242.002929688 237.002929688 234.002929688 235.002929688 226.002929688 235.002929688 c 0
 218.002929688 235.002929688 210.002929688 237.3359375 202.002929688 242.002929688 c 0
 187.3359375 250.002929688 178.668945312 261.3359375 176.001953125 276.002929688 c 0
 175.334960938 279.3359375 175.001953125 282.668945312 175.001953125 286.001953125 c 0
 175.001953125 300.001953125 180.668945312 312.668945312 192.001953125 324.001953125 c 0
 200.001953125 332.001953125 211.001953125 339.001953125 225.001953125 345.001953125 c 0
 247.001953125 355.001953125 292.334960938 362.334960938 361.001953125 367.001953125 c 0
 410.334960938 370.334960938 451.66796875 372.001953125 485.000976562 372.001953125 c 2
 518.000976562 372.001953125 l 2
 537.333984375 370.668945312 551.333984375 366.668945312 560.000976562 360.001953125 c 0
 571.333984375 351.334960938 577.000976562 337.66796875 577.000976562 319.000976562 c 0
 577.000976562 299.000976562 569.66796875 284.66796875 555.000976562 276.000976562 c 0
 555.000976562 274.000976562 554.333984375 270.000976562 553.000976562 264.000976562 c 0
 552.333984375 260.66796875 551.666992188 255.000976562 551 247.000976562 c 0
 547.666992188 218.333984375 534.333984375 181.666992188 511.000976562 137 c 0
 499.66796875 116.333007812 485.66796875 96 469.000976562 76 c 0
 451.66796875 56 432.66796875 38.1669921875 412.000976562 22.5 c 0
 391.333984375 6.8330078125 367.666992188 -6 341 -16 c 0
EndSplineSet
Validated: 1
EndChar

StartChar: H
Encoding: 72 72 40
Width: 593
GlyphClass: 2
Flags: W
HStem: -21.999 21G<92.3335 100.667 484.333 493> 312.001 86.0049<164.997 371.943> 694.003 20G<95.3306 114.997 487.666 507.333>
VStem: 40.498 122.499<-3.04591 184.934 189.06 312.001 398.006 696.499> 424.999 128.001<-5.04489 337.626> 434.999 124<32.915 341.001 420.784 696.468>
LayerCount: 2
Fore
SplineSet
33.998046875 33 m 2xf4
 33.998046875 41.0048828125 l 2
 35.3310546875 59.0048828125 35.998046875 103.671875 35.998046875 175.004882812 c 0
 35.998046875 215.671875 36.8310546875 265.171875 38.498046875 323.504882812 c 0
 40.1650390625 381.837890625 40.998046875 416.837890625 40.998046875 428.504882812 c 2
 40.998046875 463.504882812 l 2
 40.998046875 475.171875 40.8310546875 494.671875 40.498046875 522.004882812 c 0
 40.1650390625 549.337890625 39.998046875 567.504882812 39.998046875 576.504882812 c 0
 39.998046875 585.504882812 40.1650390625 594.671875 40.498046875 604.004882812 c 0
 40.8310546875 613.337890625 40.998046875 619.004882812 40.998046875 621.004882812 c 0
 40.998046875 623.004882812 41.1650390625 625.671875 41.498046875 629.004882812 c 0
 41.8310546875 632.337890625 41.998046875 635.504882812 41.998046875 638.504882812 c 2
 41.998046875 646.504882812 l 1
 41.998046875 650.004882812 l 2
 42.6650390625 670.671875 48.998046875 686.335937501 60.998046875 697.002929688 c 0
 72.3310546875 708.335937501 86.6640625 714.002929688 103.997070312 714.002929688 c 2
 106.997070312 714.002929688 l 2
 122.997070312 714.002929688 136.6640625 709.335937501 147.997070312 700.002929688 c 0
 161.330078125 689.335937501 168.330078125 673.005859375 168.997070312 651.005859375 c 0
 168.997070312 643.672851562 167.997070312 629.005859375 165.997070312 607.005859375 c 0
 163.997070312 585.005859375 162.997070312 565.172851562 162.997070312 547.505859375 c 0
 162.997070312 529.838867188 163.330078125 505.005859375 163.997070312 473.005859375 c 0
 164.6640625 441.005859375 164.997070312 416.005859375 164.997070312 398.005859375 c 1
 222.997070312 399.338867188 293.6640625 405.338867188 376.997070312 416.005859375 c 0
 401.6640625 419.338867188 420.331054688 421.671875 432.998046875 423.004882812 c 0
 432.998046875 425.671875 432.831054688 430.171875 432.498046875 436.504882812 c 0
 432.165039062 442.837890625 431.83203125 457.670898438 431.499023438 481.00390625 c 0
 431.166015625 504.336914062 430.999023438 522.50390625 430.999023438 535.50390625 c 0
 430.999023438 548.50390625 431.498046875 569.00390625 432.498046875 597.00390625 c 0
 433.498046875 625.00390625 434.33203125 642.00390625 434.999023438 648.00390625 c 0
 435.666015625 669.336914062 441.666015625 685.669921875 452.999023438 697.002929688 c 0
 464.999023438 708.3359375 479.33203125 714.002929688 495.999023438 714.002929688 c 2
 498.999023438 714.002929688 l 2
 515.666015625 714.002929688 529.666015625 709.3359375 540.999023438 700.002929688 c 0
 553.666015625 689.3359375 559.999023438 673.668945312 559.999023438 653.001953125 c 0
 559.999023438 640.334960938 559.666015625 615.001953125 558.999023438 577.001953125 c 0
 558.33203125 530.334960938 557.83203125 488.501953125 557.499023438 451.501953125 c 0
 557.388129234 439.180664044 557.332682133 427.709599955 557.332682133 417.088724795 c 0
 557.332682133 395.815828261 557.555121421 377.95366763 558 363.501953125 c 0
 558.666992188 341.834960938 558.999023438 321.66796875 558.999023438 303.000976562 c 0xf4
 558.999023438 266.333984375 558 219.500976562 556 162.500976562 c 0
 554 105.500976562 553 65.66796875 553 43.0009765625 c 2
 553 35.0009765625 l 2
 551 17.0009765625 543 3.0009765625 529 -6.9990234375 c 0
 515.666992188 -16.33203125 501 -21.33203125 485 -21.9990234375 c 0
 483.666992188 -21.9990234375 482.666992188 -21.666015625 482 -20.9990234375 c 0
 465.333007812 -20.9990234375 451.666015625 -15.33203125 440.999023438 -3.9990234375 c 0
 430.33203125 6.0009765625 424.999023438 19.333984375 424.999023438 36.0009765625 c 2
 424.999023438 43.0009765625 l 1xf8
 431.666015625 127.000976562 434.999023438 220.333984375 434.999023438 323.000976562 c 2
 434.999023438 341.000976562 l 1
 412.999023438 339.000976562 370.499023438 333.833984375 307.499023438 325.500976562 c 0
 244.499023438 317.16796875 195.999023438 312.66796875 161.999023438 312.000976562 c 1
 161.999023438 303.000976562 l 2
 159.999023438 269.66796875 158.999023438 231.000976562 158.999023438 187.000976562 c 0
 158.999023438 143.000976562 159.999023438 92.66796875 161.999023438 36.0009765625 c 0
 159.999023438 17.333984375 151.33203125 3.0009765625 135.999023438 -6.9990234375 c 0
 122.666015625 -16.33203125 108.333007812 -21.33203125 93 -21.9990234375 c 0
 91.6669921875 -21.9990234375 90.6669921875 -21.666015625 90 -20.9990234375 c 0
 73.3330078125 -20.9990234375 59.3330078125 -15.33203125 48 -3.9990234375 c 0
 38.6669921875 5.333984375 33.998046875 17.6669921875 33.998046875 33 c 2xf4
EndSplineSet
Validated: 1
EndChar

StartChar: I
Encoding: 73 73 41
Width: 593
GlyphClass: 2
Flags: W
HStem: -11.001 102.999<39.5044 218.311 362 422.94 426.959 513 516 558.104> -7.00098 98.999<362 513 516 558.104> 599.998 110.001<47.0194 232.002>
VStem: 226.002 135.998<92.998 192.728> 233.002 134.999<94.249 597.999>
LayerCount: 2
Fore
SplineSet
176 -12 m 1x70
 132 -13.3330078125 101.66796875 -14.001953125 85.0009765625 -14.001953125 c 0
 65.0009765625 -14.001953125 49.66796875 -9.6689453125 39.0009765625 -1.001953125 c 0
 27.66796875 7.6650390625 22.0009765625 18.998046875 22.0009765625 32.998046875 c 2
 22.0009765625 35.998046875 l 2
 22.0009765625 49.3310546875 26.833984375 60.998046875 36.5009765625 70.998046875 c 0
 46.16796875 80.998046875 61.3349609375 86.3310546875 82.001953125 86.998046875 c 0
 108.668945312 88.3310546875 156.668945312 89.6640625 226.001953125 90.9970703125 c 1x70
 230.668945312 160.330078125 233.001953125 232.330078125 233.001953125 306.997070312 c 0
 233.001953125 346.330078125 232.334960938 386.330078125 231.001953125 426.997070312 c 0
 229.668945312 455.6640625 229.001953125 486.6640625 229.001953125 519.997070312 c 2
 229.001953125 540.997070312 l 2
 229.001953125 547.6640625 229.501953125 557.831054688 230.501953125 571.498046875 c 0
 231.501953125 585.165039062 232.001953125 594.665039062 232.001953125 599.998046875 c 1
 193.334960938 600.665039062 164.66796875 600.998046875 146.000976562 600.998046875 c 0
 128.66796875 600.998046875 111.000976562 600.665039062 93.0009765625 599.998046875 c 2
 91.0009765625 599.998046875 l 2
 72.333984375 599.998046875 57.5009765625 604.665039062 46.5009765625 613.998046875 c 0
 35.5009765625 623.331054688 29.66796875 635.998046875 29.0009765625 651.998046875 c 2
 29.0009765625 653.998046875 l 2
 29.0009765625 667.998046875 34.16796875 680.331054688 44.5009765625 690.998046875 c 0
 54.833984375 701.665039062 70.333984375 707.33203125 91.0009765625 707.999023438 c 0
 148.333984375 709.33203125 203.333984375 709.999023438 256.000976562 709.999023438 c 0
 360.66796875 709.999023438 446.333007813 706.999023438 513 700.999023438 c 0
 528.333007813 699.666015625 540.66796875 695.333007812 550.000976562 688 c 0
 562.66796875 678.666992188 569.334960938 665.666992188 570.001953125 649 c 2
 570.001953125 648 l 2
 570.001953125 633.333007812 565.668945312 619.666015625 557.001953125 606.999023438 c 0
 552.334960938 599.666015625 545.66796875 593.999023438 537.000976562 589.999023438 c 0
 531.66796875 587.33203125 525.66796875 585.999023438 519.000976562 585.999023438 c 0
 515.66796875 585.999023438 511.66796875 586.666015625 507.000976562 587.999023438 c 0
 488.333984375 590.666015625 442.333984375 593.999023438 369.000976562 597.999023438 c 1
 369.000976562 590.666015625 368.333984375 577.333007812 367.000976562 558 c 0
 366.333984375 539.333007812 366.000976562 524.833007812 366.000976562 514.5 c 2
 366.000976562 484 l 2
 366.000976562 444.666992188 366.333984375 412.166992188 367.000976562 386.5 c 0
 367.66796875 360.833007812 368.000976562 334.666015625 368.000976562 307.999023438 c 0x68
 368.000976562 281.33203125 367.16796875 243.665039062 365.500976562 194.998046875 c 0
 363.833984375 146.331054688 362.666992188 112.331054688 362 92.998046875 c 1
 390 92.998046875 413 92.6650390625 431 91.998046875 c 2
 513 91.998046875 l 1xb0
 513 97.3310546875 513.333007812 97.3310546875 514 91.998046875 c 1
 514 97.3310546875 514.33203125 97.3310546875 514.999023438 91.998046875 c 1
 514.999023438 97.3310546875 515.333007812 97.3310546875 516 91.998046875 c 1x70
 516 97.3310546875 516.333007812 97.3310546875 517 91.998046875 c 1
 536.333007812 91.998046875 550.166015625 87.498046875 558.499023438 78.498046875 c 0
 566.83203125 69.498046875 571.33203125 58.3310546875 571.999023438 44.998046875 c 2
 571.999023438 43.9990234375 l 2
 571.999023438 37.33203125 571.334960937 30.9990234375 570.001953125 24.9990234375 c 0
 568.668945312 18.9990234375 566.333007812 12.9990234375 563 6.9990234375 c 0
 558.333007812 -0.333984375 551.666015625 -5.333984375 542.999023438 -8.0009765625 c 0
 537.666015625 -10.0009765625 532.666015625 -11.0009765625 527.999023438 -11.0009765625 c 2
 514.999023438 -11.0009765625 l 2xb0
 496.999023438 -8.333984375 466.999023438 -7.0009765625 424.999023438 -7.0009765625 c 0
 380.999023438 -7.0009765625 341.33203125 -7.333984375 305.999023438 -8.0009765625 c 1
 287.942721904 -5.22292751074 269.886420369 -3.83390298486 251.830118835 -3.83390298486 c 0
 176 -12 l 1x70
EndSplineSet
Validated: 1
EndChar

StartChar: J
Encoding: 74 74 42
Width: 593
GlyphClass: 2
Flags: W
HStem: -35 125.998<191.069 293.459> 599.998 110.002<51.5039 294.002 415 522.844>
VStem: 19.5029 114.499<150.857 256.964> 293.752 121.248<425.658 596.001> 297.002 125.998<103.937 595.189>
LayerCount: 2
Fore
SplineSet
420 217 m 0xe8
 408.666992188 101 385.002929688 26.3330078125 349.002929688 -7 c 0
 329.669921875 -25.6669921875 306.669921875 -35 280.002929688 -35 c 0
 253.3359375 -35 227.502929688 -30.6669921875 202.502929688 -22 c 0
 177.502929688 -13.3330078125 156.002929688 -2.3330078125 138.002929688 11 c 0
 120.669921875 25 104.836914062 40.1669921875 90.50390625 56.5 c 0
 76.1708984375 72.8330078125 64.1708984375 89 54.50390625 105 c 0
 44.8369140625 121 37.169921875 135.666992188 31.5029296875 149 c 0
 25.8359375 162.333007812 22.3359375 173 21.0029296875 181 c 0
 19.0029296875 188.333007812 18.5029296875 196.5 19.5029296875 205.5 c 0
 20.5029296875 214.5 22.0029296875 223 24.0029296875 231 c 0
 26.669921875 240.333007812 32.0029296875 248.666015625 40.0029296875 255.999023438 c 0
 48.0029296875 263.33203125 58.3359375 267.999023438 71.0029296875 269.999023438 c 0
 75.0029296875 270.666015625 79.0029296875 270.999023438 83.0029296875 270.999023438 c 0
 96.3359375 270.999023438 107.668945312 266.999023438 117.001953125 258.999023438 c 0
 128.334960938 248.33203125 134.001953125 234.665039062 134.001953125 217.998046875 c 0
 134.001953125 201.998046875 139.334960938 182.998046875 150.001953125 160.998046875 c 0
 156.668945312 148.331054688 164.668945312 136.998046875 174.001953125 126.998046875 c 0
 183.334960938 116.998046875 196.001953125 108.498046875 212.001953125 101.498046875 c 0
 228.001953125 94.498046875 246.001953125 90.998046875 266.001953125 90.998046875 c 0
 266.668945312 90.998046875 267.3359375 91.3310546875 268.002929688 91.998046875 c 0
 272.669921875 95.3310546875 277.002929688 102.998046875 281.002929688 114.998046875 c 0
 290.3359375 143.665039062 295.668945312 186.998046875 297.001953125 244.998046875 c 2
 297.001953125 246.998046875 l 1
 297.001953125 267.498046875 l 2xe8
 297.001953125 279.831054688 296.668945312 312.998046875 296.001953125 366.998046875 c 0
 294.501998887 426.996216382 293.751815794 485.682149065 293.751815794 543.055432977 c 0
 293.751815794 562.182194828 293.835189817 581.163071215 294.001953125 599.998046875 c 1
 256.335449219 600.998046875 221.085449219 601.498046875 188.252075195 601.498046875 c 0
 155.418701172 601.498046875 125.001953125 600.998046875 97.001953125 599.998046875 c 2
 95.001953125 599.998046875 l 2
 76.3349609375 599.998046875 61.66796875 604.665039062 51.0009765625 613.998046875 c 0
 40.333984375 623.331054688 34.6669921875 635.998046875 34 651.998046875 c 0
 34 652.665039062 33.6669921875 653.33203125 33 653.999023438 c 0
 33 667.999023438 38.3330078125 680.33203125 49 690.999023438 c 0
 59.6669921875 701.666015625 75.333984375 707.333007812 96.0009765625 708 c 0
 154.000976562 709.333007812 209.000976562 710 261.000976562 710 c 0
 365.000976562 710 450.333984375 707 517.000976562 701 c 0
 532.333984375 699.666992188 544.666992188 695.333984375 554 688.000976562 c 0
 566.666992188 678.66796875 573.666992188 665.334960938 575 648.001953125 c 0
 575 633.334960938 570.666992188 619.66796875 562 607.000976562 c 0
 557.333007812 599.66796875 550.333007812 594.000976562 541 590.000976562 c 0
 535.666992188 587.333984375 529.666992188 586.000976562 523 586.000976562 c 0
 519.666992188 586.000976562 516 586.66796875 512 588.000976562 c 0
 491.333007812 591.333984375 459 594.000976562 415 596.000976562 c 1xf0
 415 579.333984375 417.333007812 521.000976562 422 421.000976562 c 0
 423.066562523 399.131365969 423.599843784 380.035693193 423.599843784 363.713958234 c 0
 423.599843784 359.636513827 423.566562523 355.732186603 423.5 352.000976562 c 0
 423.166992188 333.333984375 423 321.666992188 423 317 c 0
 423 275 422 241.666992188 420 217 c 0xe8
EndSplineSet
Validated: 1
EndChar

StartChar: K
Encoding: 75 75 43
Width: 593
GlyphClass: 2
Flags: W
HStem: -22 21G<89.3335 98 513.155 516.004> 694.066 20G<78.67 87.1364 477.667 482.333>
VStem: 33.001 116.999<107.028 271.001 452.999 540.271 541.723 700.529>
LayerCount: 2
Fore
SplineSet
90 -22 m 0
 88.6669921875 -22 87.3349609375 -21.666015625 86.001953125 -20.9990234375 c 0
 69.3349609375 -20.9990234375 55.66796875 -16.666015625 45.0009765625 -7.9990234375 c 0
 35.0009765625 0.0009765625 30.0009765625 10.66796875 30.0009765625 24.0009765625 c 0
 30.0009765625 26.66796875 30.333984375 29.3349609375 31.0009765625 32.001953125 c 0
 32.333984375 53.3349609375 33.0009765625 88.66796875 33.0009765625 138.000976562 c 0
 33.0009765625 233.333984375 31.0009765625 338.666992188 27.0009765625 454 c 0
 25.66796875 496.666992188 25.0009765625 525.666992188 25.0009765625 541 c 0
 25.0009765625 556.333007812 25.66796875 578 27.0009765625 606 c 0
 28.333984375 634.666992188 29.0009765625 652.666992188 29.0009765625 660 c 1
 29.66796875 677.333007812 35.66796875 691 47.0009765625 701 c 0
 57.5780816094 709.710503484 70.7683377018 714.065755225 86.5717448399 714.065755225 c 0
 87.7011502027 714.065755225 88.8439019227 714.043511297 90 713.999023438 c 2
 93 713.999023438 l 2
 109 713.999023438 123 710.33203125 135 702.999023438 c 0
 147.697792667 694.744946683 154.046689001 682.258862858 154.046689001 665.539928432 c 0
 154.046689001 651.198886319 153.410556112 618.120325408 151.999023438 567.999023438 c 0
 150.666015625 521.33203125 149.666015625 482.999023438 148.999023438 452.999023438 c 1
 173.666015625 472.999023438 208.999023438 501.666015625 254.999023438 538.999023438 c 0
 353.666015625 627.666015625 411.999023438 679.333007812 429.999023438 694 c 0
 441.33203125 702.666992188 452.33203125 708.666992188 462.999023438 712 c 0
 469.666015625 714 475.333007812 715 480 715 c 0
 484.666992188 715 489 714.666992188 493 714 c 0
 501.666992188 712 509.333984375 708 516.000976562 702 c 0
 525.333984375 694 530.000976562 685.333007812 530.000976562 676 c 0
 530.000976562 658 522.66796875 638.666992188 508.000976562 618 c 0
 498.000976562 605.333007812 462.000976562 569 400.000976562 509 c 1
 336.000976562 453 279.66796875 404.333007812 231.000976562 363 c 1
 256.333984375 339 296.666992188 303.333007812 352 256 c 0
 407.333007812 211.333007812 455.333007812 171 496 135 c 0
 518.666992188 113 535.333984375 95.6669921875 546.000976562 83 c 0
 557.333984375 67.6669921875 564.000976562 57 566.000976562 51 c 0
 568.66796875 42.3330078125 569.66796875 34 569.000976562 26 c 0
 569.000976562 20.6669921875 568.000976562 15.333984375 566.000976562 10.0009765625 c 0
 561.333984375 0.66796875 553.666992188 -6.6650390625 543 -11.998046875 c 0
 528.455126498 -18.0587067504 518.593343443 -21.0890366881 513.413917217 -21.0890366881 c 0
 512.895746994 -21.0890366881 512.4244415 -21.0587067504 512 -20.998046875 c 2
 511 -20.998046875 l 2
 493 -20.998046875 476 -12.6650390625 460 4.001953125 c 0
 453.333007812 12.001953125 428 35.001953125 384 73.001953125 c 0
 340 110.334960938 292 151.66796875 240 197.000976562 c 0
 202.666992188 226.333984375 172.666992188 251.000976562 150 271.000976562 c 1
 159 25.0009765625 l 2
 157 10.333984375 148.333007812 -1.3330078125 133 -10 c 0
 120.333007812 -18 106 -22 90 -22 c 0
EndSplineSet
Validated: 1
EndChar

StartChar: L
Encoding: 76 76 44
Width: 593
GlyphClass: 2
Flags: W
HStem: -14.999 116.996<153.011 153.996 154.996 437.635>
VStem: 24.999 127.996<95.9971 265.875> 51.998 127.047<172.937 688.982>
LayerCount: 2
Fore
SplineSet
160 209 m 0xa0
 156 161 153.662109375 123.330078125 152.995117188 95.9970703125 c 1
 153.328613281 99.9970703123 153.662109375 101.997070312 153.995605469 101.997070312 c 0
 154.99609375 95.9970703125 l 1
 212.329101562 95.9970703125 279.329101562 99.330078125 355.99609375 105.997070312 c 0
 431.329101562 112.6640625 480.99609375 119.331054688 504.99609375 125.998046875 c 0
 508.730234626 127.064609398 512.464375503 127.59789066 516.198516379 127.59789066 c 0
 518.997070312 127.498046875 l 0
 523.6640625 127.165039062 528.331054688 125.998046875 532.998046875 123.998046875 c 0
 541.665039062 120.665039062 548.998046875 115.33203125 554.998046875 107.999023438 c 0
 559.665039062 101.33203125 562.998046875 94.33203125 564.998046875 86.9990234375 c 0
 567.665039062 78.9990234375 568.998046875 71.9990234375 568.998046875 65.9990234375 c 0
 568.998046875 50.666015625 564.998046875 38.3330078125 556.998046875 29 c 0
 548.998046875 19.6669921875 535.331054688 13.333984375 515.998046875 10.0009765625 c 0
 469.998046875 1.333984375 396.831054688 -4.9990234375 296.498046875 -8.9990234375 c 0
 196.165039062 -12.9990234375 124.33203125 -14.9990234375 80.9990234375 -14.9990234375 c 0
 64.33203125 -14.9990234375 50.33203125 -9.33203125 38.9990234375 2.0009765625 c 0
 29.6242558699 11.3757441301 24.9364697847 23.3870997061 24.9364697847 38.0350432905 c 0
 24.9364697847 39.0119602466 24.9573209227 40.0006046707 24.9990234375 41.0009765625 c 2
 24.9990234375 50.0009765625 l 2xc0
 24.9990234375 54.0009765625 28.83203125 90.333984375 36.4990234375 159.000976562 c 0
 44.166015625 227.66796875 49.666015625 293.66796875 52.9990234375 357.000976562 c 0
 53.8874783516 369.886501789 54.3317058086 384.697301873 54.3317058086 401.433087675 c 0
 54.3317058086 409.807110901 54.2204861641 418.663085937 53.998046875 428.000976562 c 0
 53.998046875 452.66796875 53.3310546875 523.66796875 51.998046875 641.000976562 c 2
 51.998046875 642.000976562 l 2
 52.6650390625 662.66796875 58.83203125 678.500976562 70.4990234375 689.500976562 c 0
 82.166015625 700.500976562 96.3330078125 706.000976562 113 706.000976562 c 2
 116 706.000976562 l 2
 132 706.000976562 146.333007812 701.333984375 159 692.000976562 c 0
 172.363380229 681.819042812 179.045494998 667.081498574 179.045494998 647.788343846 c 0
 179.045494998 647.000391044 179.036421365 618.723946192 178 569 c 0
 176.666992188 525.666992188 175 485 173 447 c 0
 171 405 169.333007812 363 168 321 c 0
 166.666992188 294.333007812 164 257 160 209 c 0xa0
EndSplineSet
Validated: 1
EndChar

StartChar: M
Encoding: 77 77 45
Width: 593
GlyphClass: 2
Flags: W
HStem: -10.001 21G<51.3296 64.3296 280 311>
VStem: 6.99609 108<16.5645 315.532>
LayerCount: 2
Fore
SplineSet
114.99609375 63.9990234375 m 2
 114.99609375 52.9990234375 l 2
 114.99609375 34.9990234375 109.663085938 19.9990234375 98.99609375 7.9990234375 c 0
 86.99609375 -4.0009765625 72.6630859375 -10.0009765625 55.99609375 -10.0009765625 c 2
 54.99609375 -10.0009765625 l 2
 47.6630859375 -10.0009765625 40.99609375 -8.66796875 34.99609375 -6.0009765625 c 0
 26.3291015625 -2.0009765625 19.3291015625 5.33203125 13.99609375 15.9990234375 c 0
 9.3291015625 27.9990234375 6.99609375 43.9990234375 6.99609375 63.9990234375 c 0
 6.99609375 72.666015625 7.99609375 86.9990234375 9.99609375 106.999023438 c 0
 11.99609375 126.33203125 14.3291015625 151.999023438 16.99609375 183.999023438 c 0
 20.3291015625 217.999023438 23.99609375 258.33203125 27.99609375 304.999023438 c 0
 31.99609375 352.33203125 34.99609375 389.665039062 36.99609375 416.998046875 c 0
 45.6630859375 512.998046875 53.330078125 579.331054688 59.9970703125 615.998046875 c 0
 64.6640625 639.331054688 69.6640625 655.6640625 74.9970703125 664.997070312 c 0
 82.9970703125 678.997070312 95.330078125 689.330078125 111.997070312 695.997070312 c 0
 125.997070312 701.330078125 139.997070312 703.998046875 153.997070312 703.998046875 c 2
 159.997070312 703.998046875 l 2
 176.6640625 703.998046875 190.331054688 701.6640625 200.998046875 696.997070312 c 0
 215.665039062 690.997070312 225.665039062 680.997070312 230.998046875 666.997070312 c 0
 239.665039062 637.6640625 248.998046875 589.331054688 258.998046875 521.998046875 c 0
 268.998046875 454.665039062 279.665039062 377.665039062 290.998046875 290.998046875 c 0
 293.665039062 271.665039062 295.665039062 254.33203125 296.998046875 238.999023438 c 1
 301.665039062 286.999023438 306.33203125 331.666015625 310.999023438 372.999023438 c 0
 317.666015625 428.33203125 326.666015625 483.665039062 337.999023438 538.998046875 c 0
 349.33203125 594.331054688 358.999023438 636.997070312 366.999023438 666.997070312 c 0
 370.33203125 676.997070312 377.999023438 685.331054688 389.999023438 691.998046875 c 0
 400.666015625 697.998046875 411.999023438 701.665039062 423.999023438 702.998046875 c 0
 431.33203125 704.331054688 437.499023438 704.831054688 442.499023438 704.498046875 c 0
 447.499023438 704.165039062 451.666015625 703.998046875 454.999023438 703.998046875 c 2
 457.999023438 703.998046875 l 1
 473.499023438 703.998046875 l 2
 477.83203125 703.998046875 483.665039062 702.998046875 490.998046875 700.998046875 c 0
 498.331054688 699.665039062 504.498046875 697.665039062 509.498046875 694.998046875 c 0
 514.498046875 692.331054688 519.331054688 688.331054688 523.998046875 682.998046875 c 0
 528.665039062 676.998046875 531.665039062 669.998046875 532.998046875 661.998046875 c 0
 535.665039062 641.998046875 543.33203125 544.998046875 555.999023438 370.998046875 c 0
 568.666015625 197.665039062 577.666015625 99.6650390625 582.999023438 76.998046875 c 0
 585.666015625 63.6650390625 586.999023438 51.33203125 586.999023438 39.9990234375 c 0
 586.999023438 30.666015625 584.999023438 22.666015625 580.999023438 15.9990234375 c 0
 575.666015625 6.666015625 566.666015625 -0.0009765625 553.999023438 -4.0009765625 c 0
 546.666015625 -6.0009765625 538.999023438 -7.16796875 530.999023438 -7.5009765625 c 0
 522.999023438 -7.833984375 514.666015625 -6.0009765625 505.999023438 -2.0009765625 c 0
 490.666015625 4.666015625 479.333007812 18.3330078125 472 39 c 0
 458.666992188 79 446.666992188 234 436 504 c 1
 427.333007812 452.666992188 421.333007812 404 418 358 c 0
 411.333007812 282 402.333007812 210 391 142 c 0
 379.666992188 74 370.666992188 32.3330078125 364 17 c 0
 354 1 330 -7 292 -7 c 2
 287 -7 l 2
 273 -7 260.666992188 -5 250 -1 c 0
 237.333007812 3.6669921875 229.333007812 10.333984375 226 19.0009765625 c 0
 217.333007812 51.0009765625 203 124.000976562 183 238.000976562 c 0
 169.666992188 316.000976562 157 391.66796875 145 465.000976562 c 1
 143.666992188 451.66796875 142 427.66796875 140 393.000976562 c 2
 136 340.000976562 l 1
 130 253.000976562 l 2
 128 225.66796875 125.666992188 197.000976562 123 167.000976562 c 0
 121 144.333984375 118.666992188 120.666992188 116 96 c 0
 115.333007812 82 114.99609375 71.33203125 114.99609375 63.9990234375 c 2
EndSplineSet
Validated: 1
EndChar

StartChar: N
Encoding: 78 78 46
Width: 593
GlyphClass: 2
Flags: W
HStem: -11.998 21G<66.6665 85 470.667 498.667>
VStem: 26 108<6.53685 180.455> 34 107<79.7041 486> 460.333 106.665<187.325 656.813>
LayerCount: 2
Fore
SplineSet
139 486 m 1xb0
 140.333007812 456 141 431.002929688 141 411.002929688 c 0xb0
 141 389.669921875 140.666992188 359.669921875 140 321.002929688 c 0
 139.333007812 283.669921875 138.333007812 237.669921875 137 183.002929688 c 0
 135 128.3359375 134 93.6689453125 134 79.001953125 c 2
 134 52.001953125 l 1
 134 44.001953125 l 2
 134 26.001953125 128.666992188 12.001953125 118 2.001953125 c 0
 106.666992188 -7.3310546875 93 -11.998046875 77 -11.998046875 c 0
 56.3330078125 -11.998046875 42.3330078125 -5.998046875 35 6.001953125 c 0
 29 17.3349609375 26 33.66796875 26 55.0009765625 c 0xd0
 26 68.333984375 27 120.000976562 29 210.000976562 c 0
 32.3330078125 348.66796875 34 444.000976562 34 496.000976562 c 0
 34 547.333984375 33.3330078125 594.666992188 32 638 c 2
 32 647 l 2
 32 657 33.6669921875 666 37 674 c 0
 42.3330078125 683.333007812 49.666015625 690 58.9990234375 694 c 0
 72.33203125 701.333007812 87.33203125 705 103.999023438 705 c 0
 107.33203125 705 110.999023438 704.666992188 114.999023438 704 c 0
 129.666015625 704 142.333007812 701.666992188 153 697 c 0
 167.666992188 691 178 681 184 667 c 0
 199.333007812 624.333007812 241 545.333007812 309 430 c 0
 367 332.666992188 417 251.333984375 459 186.000976562 c 1
 459.888454914 224.21365025 460.332682371 270.274486961 460.332682371 324.183486695 c 0
 460.332682371 351.157733398 460.221462727 380.096896687 459.999023438 411.000976562 c 0
 458.666015625 529.000976562 455.666015625 607.000976562 450.999023438 645.000976562 c 0
 450.33203125 649.000976562 449.999023438 653.000976562 449.999023438 657.000976562 c 0
 449.999023438 669.000976562 454.33203125 679.66796875 462.999023438 689.000976562 c 0
 473.666015625 699.66796875 487.666015625 705.000976562 504.999023438 705.000976562 c 0
 520.999023438 705.000976562 533.999023438 702.333984375 543.999023438 697.000976562 c 0
 549.33203125 694.333984375 552.999023438 690.333984375 554.999023438 685.000976562 c 0
 556.999023438 679.66796875 558.666015625 675.000976562 559.999023438 671.000976562 c 0
 561.33203125 666.333984375 562.665039062 659.333984375 563.998046875 650.000976562 c 0
 565.998046875 638.66796875 566.998046875 585.334960938 566.998046875 490.001953125 c 2
 566.998046875 448.001953125 l 2
 566.998046875 364.668945312 565.998046875 278.668945312 563.998046875 190.001953125 c 0
 562.665039062 132.668945312 560.33203125 90.001953125 556.999023438 62.001953125 c 0
 554.33203125 35.3349609375 551.33203125 18.3349609375 547.999023438 11.001953125 c 0
 538.666015625 -4.998046875 516.333007812 -13.3310546875 481 -13.998046875 c 2
 477 -13.998046875 l 2
 464.333007812 -13.998046875 453 -11.6650390625 443 -6.998046875 c 0
 431 -1.6650390625 423 5.001953125 419 13.001953125 c 0
 412.333007812 26.3349609375 395 55.66796875 367 101.000976562 c 0
 337.666992188 148.333984375 308.666992188 193.666992188 280 237 c 0
 250 286.333007812 218.333007812 341.333007812 185 402 c 0
 167 432 151.666992188 460 139 486 c 1xb0
EndSplineSet
Validated: 1
EndChar

StartChar: O
Encoding: 79 79 47
Width: 593
GlyphClass: 2
Flags: W
HStem: -23.9951 108<202.632 355.123> 612.006 105.995<237.528 379.954>
VStem: 28.001 120.999<154.456 486.5> 446.5 119.562<179.429 536.395>
LayerCount: 2
Fore
SplineSet
219 94.005859375 m 0
 231 87.3388671875 244.666992188 84.0048828125 260 84.0048828125 c 0
 298 84.0048828125 331.666992188 92.337890625 361 109.004882812 c 0
 376.333007812 117.004882812 390 128.171875 402 142.504882812 c 0
 414 156.837890625 423.333007812 173.337890625 430 192.004882812 c 0
 432.666992188 199.337890625 435.5 217.837890625 438.5 247.504882812 c 0
 441.5 277.171875 444 312.671875 446 354.004882812 c 0
 446.333496094 360.004882812 446.500244141 366.004882812 446.500244141 372.004882812 c 0
 446.500244141 378.004882812 446.333496094 384.004882812 446 390.004882812 c 0
 446 418.671875 444.666992188 447.338867188 442 476.005859375 c 0
 438 515.338867188 423.666992188 548.005859375 399 574.005859375 c 0
 375 599.338867188 345.5 612.005859375 310.5 612.005859375 c 0
 275.5 612.005859375 246 600.672851562 222 578.005859375 c 0
 197.333007812 554.005859375 179.333007812 520.672851562 168 478.005859375 c 0
 155.333007812 430.005859375 149 375.005859375 149 313.005859375 c 0
 149 274.338867188 151 240.338867188 155 211.005859375 c 0
 157.666992188 194.338867188 162 177.838867188 168 161.505859375 c 0
 174 145.172851562 181 131.505859375 189 120.505859375 c 0
 197 109.505859375 207 100.672851562 219 94.005859375 c 0
561 480 m 0
 564.375032185 438.374603049 566.062635184 397.172840124 566.062635184 356.392799292 c 0
 566.062635184 324.675681114 565.041784048 293.213667649 563 262.005859375 c 0
 560.333007812 222.672851562 555.666015625 192.33984375 548.999023438 171.006835938 c 0
 540.33203125 139.673828125 529.33203125 112.673828125 515.999023438 90.0068359375 c 0
 502.666015625 67.33984375 487.833007812 48.6728515625 471.5 34.005859375 c 0
 455.166992188 19.3388671875 435.333984375 7.671875 412.000976562 -0.9951171875 c 0
 388.66796875 -9.662109375 365.16796875 -15.662109375 341.500976562 -18.9951171875 c 0
 317.833984375 -22.328125 290.666992188 -23.9951171875 260 -23.9951171875 c 0
 212.666992188 -23.328125 170.333984375 -10.6611328125 133.000976562 14.005859375 c 0
 98.333984375 39.3388671875 72.0009765625 72.671875 54.0009765625 114.004882812 c 0
 36.66796875 154.004882812 28.0009765625 197.337890625 28.0009765625 244.004882812 c 2
 28.0009765625 249.004882812 l 1
 28.0009765625 266.004882812 l 2
 28.0009765625 295.337890625 28.16796875 318.670898438 28.5009765625 336.00390625 c 0
 28.833984375 353.336914062 30.0009765625 376.669921875 32.0009765625 406.002929688 c 0
 36.0009765625 463.3359375 47.66796875 516.668945312 67.0009765625 566.001953125 c 1
 67.0009765625 567.000976562 l 1
 85.0009765625 611.66796875 116.333984375 648.000976562 161.000976562 676.000976562 c 0
 209.000976562 704.000976562 263.333984375 718.000976562 324.000976562 718.000976562 c 0
 354.66796875 718.000976562 384.000976562 712.333984375 412.000976562 701.000976562 c 0
 440.000976562 690.333984375 464.333984375 675.166992188 485.000976562 655.5 c 0
 505.66796875 635.833007812 522.66796875 611 536.000976562 581 c 0
 549.333984375 551 557.666992188 517.333007812 561 480 c 0
EndSplineSet
Validated: 1
EndChar

StartChar: P
Encoding: 80 80 48
Width: 593
GlyphClass: 2
Flags: W
HStem: -18.9971 21G<104.67 121.67> 218 105.918<167.506 370.255> 605.004 105.999<171.133 387.458>
VStem: 52.0039 129.999<-2.55739 224.218> 52.0039 113.996<32.1765 93.9443 96.7622 226 328.472 599.255> 441.005 115.995<391.836 558.239>
LayerCount: 2
Fore
SplineSet
175 109 m 0xec
 179.666992188 61 182.002929688 35.3369140625 182.002929688 32.00390625 c 0
 182.002929688 15.3369140625 173.669921875 2.669921875 157.002929688 -5.9970703125 c 0
 143.669921875 -14.6640625 129.336914062 -18.9970703125 114.00390625 -18.9970703125 c 0
 95.3369140625 -18.9970703125 80.00390625 -13.6640625 68.00390625 -2.9970703125 c 0
 57.3369140625 6.3359375 52.00390625 18.6689453125 52.00390625 34.001953125 c 0xf4
 52.00390625 36.6689453125 52.3369140625 41.001953125 53.00390625 47.001953125 c 0
 53.6708984375 56.3349609375 54.00390625 72.3349609375 54.00390625 95.001953125 c 0
 54.00390625 132.334960938 53.3369140625 183.66796875 52.00390625 249.000976562 c 0
 49.3369140625 359.66796875 47.669921875 425.334960938 47.0029296875 446.001953125 c 0
 46.7804903984 463.566189289 46.6692707539 481.538158408 46.6692707539 499.917896703 c 0
 46.6692707539 536.650462989 47.1134982109 575.01171875 48.001953125 615.001953125 c 1
 47.3349609375 609.668945312 46.66796875 610.3359375 46.0009765625 617.002929688 c 1
 46.0009765625 611.669921875 45.66796875 611.669921875 45.0009765625 617.002929688 c 0
 39.0009765625 625.669921875 36.333984375 634.336914062 37.0009765625 643.00390625 c 2
 37.0009765625 651.00390625 l 2
 39.0009765625 661.00390625 43.66796875 670.00390625 51.0009765625 678.00390625 c 0
 58.333984375 686.00390625 66.6669921875 691.00390625 76 693.00390625 c 0
 100.666992188 698.336914062 137.333984375 702.669921875 186.000976562 706.002929688 c 0
 237.333984375 709.3359375 273.333984375 711.002929688 294.000976562 711.002929688 c 0
 346.000976562 711.002929688 392.333984375 703.002929688 433.000976562 687.002929688 c 0
 470.333984375 670.3359375 500.166992188 645.168945312 522.5 611.501953125 c 0
 544.833007812 577.834960938 556.333007812 538.001953125 557 492.001953125 c 1
 557 454.668945312 550.666992188 419.168945312 538 385.501953125 c 0
 525.333007812 351.834960938 508 322.66796875 486 298.000976562 c 0
 464 273.333984375 435.666992188 253.666992188 401 239 c 0
 367.203894771 224.970987411 330.967767036 217.956481117 292.291616795 217.956481117 c 0
 290.532790599 217.956481117 288.768918334 217.970987411 287 218 c 0
 238.333007812 218 198 220.666992188 166 226 c 1
 168 188 171 149 175 109 c 0xec
163.002929688 334.00390625 m 1
 186.837143925 327.281733973 214.317481354 323.917638694 245.435666837 323.917638694 c 0
 248.263338118 323.917638694 251.121047596 323.945416478 254.008789062 324.000976562 c 0
 274.008789062 324.000976562 292.341796875 325.333984375 309.008789062 328.000976562 c 0
 325.67578125 330.66796875 340.008789062 334.000976562 352.008789062 338.000976562 c 0
 364.008789062 342.000976562 374.508789062 347.333984375 383.508789062 354.000976562 c 0
 392.508789062 360.66796875 400.17578125 367.334960938 406.508789062 374.001953125 c 0
 412.841796875 380.668945312 418.174804688 388.501953125 422.5078125 397.501953125 c 0
 426.840820312 406.501953125 430.173828125 414.668945312 432.506835938 422.001953125 c 0
 434.83984375 429.334960938 436.672851562 438.16796875 438.005859375 448.500976562 c 0
 439.338867188 458.833984375 440.171875 467.333984375 440.504882812 474.000976562 c 0
 440.837890625 480.66796875 441.004882812 488.334960938 441.004882812 497.001953125 c 0
 441.004882812 513.668945312 437.671875 528.3359375 431.004882812 541.002929688 c 0
 424.337890625 553.669921875 416.004882812 563.836914062 406.004882812 571.50390625 c 0
 396.004882812 579.170898438 384.171875 585.670898438 370.504882812 591.00390625 c 0
 356.837890625 596.336914062 343.670898438 600.00390625 331.00390625 602.00390625 c 0
 318.336914062 604.00390625 306.00390625 605.00390625 294.00390625 605.00390625 c 0
 270.670898438 605.00390625 229.00390625 602.670898438 169.00390625 598.00390625 c 1
 166.336914062 518.00390625 164.669921875 464.336914062 164.002929688 437.00390625 c 0
 163.3359375 400.336914062 163.002929688 366.00390625 163.002929688 334.00390625 c 1
EndSplineSet
Validated: 1
EndChar

StartChar: Q
Encoding: 81 81 49
Width: 593
GlyphClass: 2
Flags: W
HStem: -24 21G<266.998 293.998> 612 106<233.16 376.666>
VStem: 22.9971 120.952<161.037 483.098> 234.997 106<138.764 207.502> 444.997 118.002<137.38 526.522>
LayerCount: 2
Fore
SplineSet
541 -204 m 0
 532.333007812 -209.333007812 522.998046875 -212 512.998046875 -212 c 0
 508.331054688 -212 502.998046875 -211.333007812 496.998046875 -210 c 0
 481.665039062 -206 469.33203125 -197.666992188 459.999023438 -185 c 0
 449.33203125 -172.333007812 432.165039062 -150 408.498046875 -118 c 0
 384.831054688 -86 361.998046875 -53.6669921875 339.998046875 -21 c 1
 322.665039062 -23 303.998046875 -24 283.998046875 -24 c 0
 249.998046875 -24 218.665039062 -19 189.998046875 -9 c 0
 161.331054688 0.3330078125 137.331054688 13.666015625 117.998046875 30.9990234375 c 0
 98.6650390625 48.33203125 81.998046875 68.33203125 67.998046875 90.9990234375 c 0
 41.3310546875 134.999023438 26.6640625 187.666015625 23.9970703125 248.999023438 c 0
 23.330078125 266.33203125 22.9970703125 282.999023438 22.9970703125 298.999023438 c 0
 22.9970703125 403.666015625 36.6640625 491.333007812 63.9970703125 562 c 1
 81.9970703125 606.666992188 113.6640625 644 158.997070312 674 c 0
 206.997070312 703.333007812 260.6640625 718 319.997070312 718 c 0
 383.330078125 718 436.330078125 699 478.997070312 661 c 0
 499.6640625 642.333007812 516.831054688 617.5 530.498046875 586.5 c 0
 544.165039062 555.5 553.33203125 520 557.999023438 480 c 0
 561.427458235 449.144086828 563.141983085 413.880361722 563.141983085 374.208824682 c 0
 563.141983085 367.595057331 563.094330819 360.858782437 562.999023438 354 c 0
 562.999023438 269.333007812 558.666015625 206.333007812 549.999023438 165 c 0
 535.999023438 97 504.999023438 47 456.999023438 15 c 1
 478.33203125 -14.3330078125 504.33203125 -48 534.999023438 -86 c 0
 553.666015625 -109.333007812 562.999023438 -121.333007812 562.999023438 -122 c 0
 568.33203125 -130 570.999023438 -138.333007812 570.999023438 -147 c 0
 570.999023438 -149.666992188 570.666015625 -152 569.999023438 -154 c 0
 568.666015625 -164 565.333007812 -173.666992188 560 -183 c 0
 554 -192.333007812 547.666992188 -199.333007812 541 -204 c 0
245.998046875 114 m 0
 238.665039062 131.333007812 234.997070312 147 234.997070312 161 c 0
 234.997070312 182.333007812 243.6640625 199 260.997070312 211 c 0
 270.997070312 218.333007812 281.6640625 222.333007812 292.997070312 223 c 0
 302.330078125 223 311.330078125 220 319.997070312 214 c 0
 328.6640625 208 335.6640625 198.666992188 340.997070312 186 c 0
 352.330078125 156.666992188 368.330078125 125 388.997070312 91 c 1
 410.997070312 108.333007812 425.997070312 134 433.997070312 168 c 0
 435.997070312 177.333007812 438.1640625 197 440.497070312 227 c 0
 442.830078125 257 444.330078125 294.666992188 444.997070312 340 c 2
 444.997070312 356 l 2
 444.997070312 395.333007812 442.6640625 433 437.997070312 469 c 0
 431.997070312 513.666992188 417.330078125 549 393.997070312 575 c 0
 371.330078125 599.666992188 342.163085938 612 306.49609375 612 c 0
 270.829101562 612 240.99609375 600.333007812 216.99609375 577 c 0
 192.329101562 553 174.329101562 518.666992188 162.99609375 474 c 0
 150.298301083 425.112614695 143.949404749 374.108340126 143.949404749 320.988019824 c 0
 143.949404749 318.330642054 143.96529327 315.667968744 143.997070312 313 c 0
 143.997070312 293 144.6640625 272.333007812 145.997070312 251 c 1
 148.6640625 214.333007812 156.331054688 181.5 168.998046875 152.5 c 0
 181.665039062 123.5 197.998046875 100.666992188 217.998046875 84 c 0
 234.665039062 70.6669921875 252.998046875 63 272.998046875 61 c 1
 260.998046875 82.3330078125 251.998046875 100 245.998046875 114 c 0
EndSplineSet
Validated: 1
EndChar

StartChar: R
Encoding: 82 82 50
Width: 593
GlyphClass: 2
Flags: W
HStem: -18.9961 21G<82.6675 103.001 498.001 513.667> 694.002 20G<80.3325 96.999>
VStem: 33.001 118.999<129 609.003> 33.001 107.999<34.426 251 369.005 497.376> 37.6673 123.334<-2.55641 249.432> 39.5 113.501<371.653 607.007> 438.001 116.998<408.488 493.809>
LayerCount: 2
Fore
SplineSet
150.000976562 449.00390625 m 0xc6
 148.66796875 431.670898438 146.33203125 405.3359375 142.999023438 370.002929688 c 1
 148.33203125 369.3359375 155.33203125 369.002929688 163.999023438 369.002929688 c 0
 172.666015625 369.002929688 183.333007812 369.669921875 196 371.002929688 c 0
 225.333007812 372.3359375 250 373.668945312 270 375.001953125 c 0
 320.666992188 379.001953125 357.333984375 384.334960938 380.000976562 391.001953125 c 0
 392.000976562 395.001953125 402.66796875 399.668945312 412.000976562 405.001953125 c 0
 421.333984375 410.334960938 428.000976562 416.16796875 432.000976562 422.500976562 c 0
 436.000976562 428.833984375 438.000976562 436.333984375 438.000976562 445.000976562 c 0
 438.000976562 461.000976562 431.16796875 476.833984375 417.500976562 492.500976562 c 0
 403.833984375 508.16796875 386.000976562 522.334960938 364.000976562 535.001953125 c 0
 342.000976562 547.668945312 316.833984375 559.3359375 288.500976562 570.002929688 c 0
 260.16796875 580.669921875 234.334960938 589.002929688 211.001953125 595.002929688 c 0
 187.668945312 601.002929688 167.001953125 605.669921875 149.001953125 609.002929688 c 1
 150.334960938 566.3359375 151.66796875 529.3359375 153.000976562 498.002929688 c 0
 153.000976562 484.669921875 152.000976562 468.336914062 150.000976562 449.00390625 c 0xc6
152 129 m 0xe2
 158 74.3330078125 161.000976562 42.669921875 161.000976562 34.0029296875 c 0xca
 161.000976562 16.669921875 153.333984375 3.3369140625 138.000976562 -5.99609375 c 0
 125.333984375 -14.6630859375 111.000976562 -18.99609375 95.0009765625 -18.99609375 c 2
 91.0009765625 -18.99609375 l 2
 74.333984375 -18.3291015625 60.333984375 -12.99609375 49.0009765625 -2.99609375 c 0
 38.333984375 6.3369140625 33.0009765625 18.669921875 33.0009765625 34.0029296875 c 2
 33.0009765625 42.0029296875 l 2xd2
 35.66796875 75.3359375 37 103.3359375 37 126.002929688 c 0
 37 132.002929688 37.16796875 145.169921875 37.5009765625 165.502929688 c 0
 37.6118707657 172.273980141 37.6673178673 179.895255584 37.6673178673 188.366756016 c 0xca
 37.6673178673 205.33459999 37.4448785782 225.713324547 37 249.502929688 c 0
 36.3330078125 285.169921875 36 307.502929688 36 316.502929688 c 0
 36 325.502929688 36.6669921875 343.3359375 38 370.002929688 c 0
 39 393.002929688 39.5 414.752929688 39.5 435.252929688 c 0xc6
 39.5 455.752929688 39 475.002929688 38 493.002929688 c 0
 37.3330078125 515.002929688 35.66796875 544.667968749 33.0009765625 582.000976562 c 0xe2
 30.333984375 619.333984374 28.9990234375 642.002929688 28.9990234375 650.002929688 c 2
 28.9990234375 655.002929688 l 2
 28.9990234375 656.3359375 28.666015625 657.668945312 27.9990234375 659.001953125 c 0
 27.9990234375 671.001953125 33.4990234375 683.168945312 44.4990234375 695.501953125 c 0
 55.4990234375 707.834960938 70.666015625 714.001953125 89.9990234375 714.001953125 c 0
 103.999023438 714.001953125 115.666015625 711.334960938 124.999023438 706.001953125 c 1
 182.999023438 703.334960938 236.999023438 696.16796875 286.999023438 684.500976562 c 0
 336.999023438 672.833984375 378.999023438 658.333984375 412.999023438 641.000976562 c 0
 445.666015625 623.66796875 472.666015625 604.000976562 493.999023438 582.000976562 c 0
 515.33203125 560.000976562 530.83203125 537.66796875 540.499023438 515.000976562 c 0
 550.166015625 492.333984375 554.999023438 469.333984375 554.999023438 446.000976562 c 0
 554.999023438 394.000976562 534.33203125 355.000976562 492.999023438 329.000976562 c 0
 479.666015625 321.000976562 465.333007812 314.000976562 450 308.000976562 c 0
 434 302.66796875 415.166992188 297.834960938 393.5 293.501953125 c 0
 371.833007812 289.168945312 353.333007812 286.168945312 338 284.501953125 c 0
 322.666992188 282.834960938 310 281.66796875 300 281.000976562 c 1
 358.666992188 251.000976562 411 217.333984375 457 180.000976562 c 0
 509.666992188 134.66796875 544.333984375 95.0009765625 561.000976562 61.0009765625 c 0
 563.66796875 53.66796875 565.000976562 46.66796875 565.000976562 40.0009765625 c 0
 565.000976562 33.333984375 564.000976562 27.0009765625 562.000976562 21.0009765625 c 0
 557.333984375 9.0009765625 549.666992188 -0.666015625 539 -7.9990234375 c 0
 529.666992188 -14.666015625 519.333984375 -17.9990234375 508.000976562 -17.9990234375 c 0
 488.000976562 -17.9990234375 470.66796875 -7.9990234375 456.000976562 12.0009765625 c 0
 445.333984375 25.333984375 429.500976562 42.1669921875 408.500976562 62.5 c 0
 387.500976562 82.8330078125 362.000976562 105.333007812 332.000976562 130 c 0
 302.000976562 154.666992188 268.000976562 179 230.000976562 203 c 0
 199.333984375 222.333007812 169.666992188 238.333007812 141 251 c 1xd2
 143 217.666992188 146.666992188 177 152 129 c 0xe2
EndSplineSet
Validated: 1
EndChar

StartChar: S
Encoding: 83 83 51
Width: 593
GlyphClass: 2
Flags: W
HStem: -29 108.995<171.616 352.45> 620.998 102.998<247.813 512.845>
VStem: 21.9195 10.0805<80.1223 81> 52.0039 127.998<475.646 569.182> 448.005 123.995<155.55 280.464>
LayerCount: 2
Fore
SplineSet
32 73 m 1
 25.2786483013 87.0540608632 21.9194764714 99.7051623374 21.9194764714 110.958568491 c 0
 21.9194764714 115.769689778 22.1775186147 120.871455403 23.0029296875 124.99609375 c 0
 27.0029296875 140.329101562 36.3359375 151.662109375 51.0029296875 158.995117188 c 0
 59.669921875 162.995117188 66.3369140625 165.495117188 71.00390625 166.495117188 c 0
 75.6708984375 167.495117188 79.837890625 167.995117188 83.5048828125 167.995117188 c 2
 92.0048828125 167.995117188 l 2
 100.004882812 167.328125 107.504882812 163.995117188 114.504882812 157.995117188 c 0
 121.504882812 151.995117188 128.337890625 144.328125 135.004882812 134.995117188 c 0
 146.337890625 118.328125 162.504882812 104.995117188 183.504882812 94.9951171875 c 0
 204.504882812 84.9951171875 228.337890625 79.9951171875 255.004882812 79.9951171875 c 0
 271.004882812 79.9951171875 288.004882812 81.9951171875 306.004882812 85.9951171875 c 0
 324.004882812 89.9951171875 341.504882812 96.162109375 358.504882812 104.495117188 c 0
 375.504882812 112.828125 390.671875 122.328125 404.004882812 132.995117188 c 0
 417.337890625 143.662109375 428.004882812 155.995117188 436.004882812 169.995117188 c 0
 444.004882812 183.995117188 448.004882812 198.995117188 448.004882812 214.995117188 c 0
 448.004882812 223.662109375 447.337890625 231.495117188 446.004882812 238.495117188 c 0
 444.671875 245.495117188 442.171875 252.995117188 438.504882812 260.995117188 c 0
 434.837890625 268.995117188 430.004882812 276.328125 424.004882812 282.995117188 c 0
 418.004882812 289.662109375 409.337890625 296.495117188 398.004882812 303.495117188 c 0
 386.671875 310.495117188 373.171875 316.662109375 357.504882812 321.995117188 c 0
 341.837890625 327.328125 322.170898438 332.328125 298.50390625 336.995117188 c 0
 274.836914062 341.662109375 248.836914062 345.329101562 220.50390625 347.99609375 c 0
 192.170898438 350.663085938 166.670898438 356.99609375 144.00390625 366.99609375 c 0
 122.670898438 376.99609375 105.50390625 389.49609375 92.50390625 404.49609375 c 0
 79.50390625 419.49609375 69.50390625 435.329101562 62.50390625 451.99609375 c 0
 55.50390625 468.663085938 52.00390625 485.330078125 52.00390625 501.997070312 c 0
 52.00390625 525.330078125 56.1708984375 547.663085938 64.50390625 568.99609375 c 0
 72.8369140625 590.329101562 85.50390625 610.49609375 102.50390625 629.49609375 c 0
 119.50390625 648.49609375 140.336914062 664.99609375 165.00390625 678.99609375 c 0
 190.336914062 692.99609375 220.669921875 703.99609375 256.002929688 711.99609375 c 0
 291.3359375 719.99609375 329.3359375 723.99609375 370.002929688 723.99609375 c 0
 390.002929688 723.99609375 417.3359375 722.329101562 452.002929688 718.99609375 c 0
 484.002929688 715.663085938 506.3359375 711.663085938 519.002929688 706.99609375 c 0
 534.3359375 701.663085938 545.668945312 692.663085938 553.001953125 679.99609375 c 0
 558.334960938 670.663085938 561.001953125 660.330078125 561.001953125 648.997070312 c 0
 561.001953125 634.330078125 557.001953125 622.997070312 549.001953125 614.997070312 c 0
 542.334960938 608.330078125 534.334960938 604.330078125 525.001953125 602.997070312 c 0
 520.334960938 602.330078125 516.334960938 601.997070312 513.001953125 601.997070312 c 0
 509.668945312 601.997070312 506.001953125 602.330078125 502.001953125 602.997070312 c 0
 494.668945312 603.6640625 487.001953125 605.331054688 479.001953125 607.998046875 c 0
 467.668945312 610.665039062 458.668945312 612.665039062 452.001953125 613.998046875 c 0
 444.668945312 615.331054688 433.001953125 616.831054688 417.001953125 618.498046875 c 0
 401.001953125 620.165039062 382.334960938 620.998046875 361.001953125 620.998046875 c 0
 329.001953125 620.998046875 299.334960938 616.831054688 272.001953125 608.498046875 c 0
 244.668945312 600.165039062 222.501953125 588.33203125 205.501953125 572.999023438 c 0
 188.501953125 557.666015625 180.001953125 540.666015625 180.001953125 521.999023438 c 0
 180.001953125 500.666015625 190.334960938 482.666015625 211.001953125 467.999023438 c 0
 233.668945312 452.666015625 266.001953125 443.999023438 308.001953125 441.999023438 c 0
 349.334960938 439.999023438 386.334960938 434.33203125 419.001953125 424.999023438 c 0
 451.001953125 415.666015625 476.168945312 403.999023438 494.501953125 389.999023438 c 0
 512.834960938 375.999023438 528.16796875 359.499023438 540.500976562 340.499023438 c 0
 552.833984375 321.499023438 561.166992188 302.999023438 565.5 284.999023438 c 0
 569.833007812 266.999023438 572 247.666015625 572 226.999023438 c 0
 572 196.33203125 566.5 167.33203125 555.5 139.999023438 c 0
 544.5 112.666015625 529.333007812 88.8330078125 510 68.5 c 0
 490.666992188 48.1669921875 468 30.6669921875 442 16 c 0
 414 1.3330078125 384 -9.6669921875 352 -17 c 0
 319.333007812 -24.3330078125 285.666015625 -28.3330078125 250.999023438 -29 c 0
 197.666015625 -29 151.333007812 -19 112 1 c 0
 74 20.3330078125 47.6669921875 44.3330078125 33 73 c 0
 32.3330078125 81 32 81 32 73 c 1
EndSplineSet
Validated: 1
EndChar

StartChar: T
Encoding: 84 84 52
Width: 593
GlyphClass: 2
Flags: W
LayerCount: 2
Fore
SplineSet
353 1 m 0
 339 -8.3330078125 323.334960938 -13.001953125 306.001953125 -13.001953125 c 2
 302.001953125 -13.001953125 l 2
 284.001953125 -13.001953125 269.001953125 -7.3349609375 257.001953125 3.998046875 c 0
 246.334960938 13.3310546875 241.001953125 25.998046875 241.001953125 41.998046875 c 0
 241.001953125 44.6650390625 241.334960938 48.83203125 242.001953125 54.4990234375 c 0
 242.668945312 60.166015625 243.001953125 73.3330078125 243.001953125 94 c 0
 243.001953125 140 240.834960938 222.333007812 236.501953125 341 c 0
 232.168945312 459.666992188 230.001953125 544 230.001953125 594 c 2
 230.001953125 600 l 1
 144.668945312 604 95.6689453125 607 83.001953125 609 c 0
 66.3349609375 611.666992188 52.66796875 616 42.0009765625 622 c 0
 28.0009765625 630.666992188 21.0009765625 642.666992188 21.0009765625 658 c 2
 21.0009765625 661 l 2
 21.0009765625 675 26.0009765625 687.666992188 36.0009765625 699 c 0
 45.333984375 709 57.6669921875 714 73 714 c 0
 77 714 81.3330078125 713.666992188 86 713 c 0
 122 707 264.666992188 703 514 701 c 0
 533.333007812 701 548 696 558 686 c 0
 568 676 573 664 573 650 c 0
 573 634.666992188 568 621 558 609 c 0
 548 597 534 591 516 591 c 0
 515.333007812 591 465.333007812 592.666992188 366 596 c 1
 367.333007812 465.333007812 372 281.333007812 380 44 c 0
 378 25.3330078125 369 11 353 1 c 0
EndSplineSet
Validated: 1
EndChar

StartChar: U
Encoding: 85 85 53
Width: 593
GlyphClass: 2
Flags: W
HStem: -28.9971 114.999<208.683 375.941> 689.002 20G<72.6655 90.999 512 524.333>
VStem: 16.4546 118.544<176.994 688.531> 459.499 117.501<180.084 691.435>
LayerCount: 2
Fore
SplineSet
447 17 m 0
 429 7 409.99609375 -1.6640625 389.99609375 -8.9970703125 c 0
 370.663085938 -16.330078125 351.830078125 -21.4970703125 333.497070312 -24.4970703125 c 0
 315.1640625 -27.4970703125 295.831054688 -28.9970703125 275.498046875 -28.9970703125 c 0
 255.165039062 -28.9970703125 233.665039062 -26.1640625 210.998046875 -20.4970703125 c 0
 188.331054688 -14.830078125 165.331054688 -5.330078125 141.998046875 8.0029296875 c 0
 119.998046875 21.3359375 100.331054688 38.1689453125 82.998046875 58.501953125 c 0
 65.6650390625 78.8349609375 51.33203125 104.834960938 39.9990234375 136.501953125 c 0
 28.666015625 168.168945312 22.3330078125 203.668945312 21 243.001953125 c 0
 17.9697507554 352.70798518 16.4546261332 437.065344612 16.4546261332 496.074031422 c 0
 16.4546261332 501.969713286 16.4697507554 507.612353854 16.5 513.001953125 c 0
 16.8330078125 572.334960938 17.666015625 615.66796875 18.9990234375 643.000976562 c 0
 19.666015625 663.66796875 25.9990234375 679.834960938 37.9990234375 691.501953125 c 0
 49.9990234375 703.168945312 64.33203125 709.001953125 80.9990234375 709.001953125 c 0
 100.999023438 709.001953125 115.666015625 702.334960938 124.999023438 689.001953125 c 0
 131.666015625 679.001953125 134.999023438 665.334960938 134.999023438 648.001953125 c 0
 134.999023438 430.668945312 136.666015625 299.668945312 139.999023438 255.001953125 c 0
 141.33203125 236.334960938 143.83203125 219.66796875 147.499023438 205.000976562 c 0
 151.166015625 190.333984375 156.666015625 175.333984375 163.999023438 160.000976562 c 0
 171.33203125 144.66796875 180.33203125 131.834960938 190.999023438 121.501953125 c 0
 201.666015625 111.168945312 215.166015625 102.668945312 231.499023438 96.001953125 c 0
 247.83203125 89.3349609375 266.33203125 86.001953125 286.999023438 86.001953125 c 0
 334.999023438 86.001953125 373.83203125 100.168945312 403.499023438 128.501953125 c 0
 433.166015625 156.168945312 449.999023438 200.001953125 453.999023438 260.001953125 c 0
 455.999023438 287.334960938 457.666015625 318.334960938 458.999023438 353.001953125 c 0
 459.332519531 376.335449219 459.499267578 397.835449219 459.499267578 417.502075195 c 0
 459.499267578 437.168701172 459.332519531 455.001953125 458.999023438 471.001953125 c 0
 458.33203125 538.334960938 457.999023438 577.16796875 457.999023438 587.500976562 c 2
 457.999023438 634.000976562 l 2
 457.999023438 649.333984375 459.33203125 662.500976562 461.999023438 673.500976562 c 0
 464.666015625 684.500976562 469.333007812 692.66796875 476 698.000976562 c 0
 482.666992188 703.333984375 489 706.666992188 495 708 c 0
 501 709.333007812 508 710 516 710 c 0
 532.666992188 710 546.166992188 704 556.5 692 c 0
 566.833007812 680 572.333007812 664.333007812 573 645 c 0
 575.666992188 594.333007812 577 537.166015625 577 473.499023438 c 0
 577 409.83203125 575.666992188 339.33203125 573 261.999023438 c 0
 571.666992188 231.999023438 567.5 203.83203125 560.5 177.499023438 c 0
 553.5 151.166015625 544.5 128.333007812 533.5 109 c 0
 522.5 89.6669921875 509.666992188 72 495 56 c 0
 480.333007812 40 464.333007812 27 447 17 c 0
EndSplineSet
Validated: 1
EndChar

StartChar: V
Encoding: 86 86 54
Width: 593
GlyphClass: 2
Flags: W
LayerCount: 2
Fore
SplineSet
303 -12 m 2
 295.00390625 -11.9990234375 l 2
 279.00390625 -11.9990234375 265.336914062 -9.666015625 254.00390625 -4.9990234375 c 0
 238.670898438 1.0009765625 227.670898438 11.0009765625 221.00390625 25.0009765625 c 0
 191.00390625 95.66796875 149.670898438 205.000976562 97.00390625 353.000976562 c 0
 46.3369140625 502.333984375 17.669921875 593.333984375 11.0029296875 626.000976562 c 0
 8.3359375 639.333984375 6.6689453125 651.666992188 6.001953125 663 c 0
 6.001953125 671.666992188 8.3349609375 679.666992188 13.001953125 687 c 0
 18.3349609375 695.666992188 27.001953125 702.333984375 39.001953125 707.000976562 c 0
 46.3349609375 709.66796875 54.001953125 711.000976562 62.001953125 711.000976562 c 0
 70.001953125 711.000976562 78.3349609375 709.333984375 87.001953125 706.000976562 c 0
 102.334960938 699.333984375 113.66796875 685.333984375 121.000976562 664.000976562 c 0
 125.000976562 649.333984375 158.66796875 549.000976562 222.000976562 363.000976562 c 0
 251.333984375 278.333984375 274.000976562 214.000976562 290.000976562 170.000976562 c 1
 316.000976562 240.66796875 350.000976562 335.66796875 392.000976562 455.000976562 c 2
 466.000976562 664.000976562 l 2
 474.000976562 684.66796875 486.000976562 698.334960938 502.000976562 705.001953125 c 0
 510.66796875 708.334960938 519.16796875 710.16796875 527.500976562 710.500976562 c 0
 535.833984375 710.833984375 543.666992188 709.666992188 551 707 c 0
 560.333007812 703.666992188 568.333007812 698.666992188 575 692 c 0
 581 684.666992188 585 676 587 666 c 2
 587 660 l 2
 587 648 584.333007812 635 579 621 c 0
 564.333007812 587 530 494 476 342 c 0
 418.666992188 188 382 83 366 27 c 0
 362 15.6669921875 355.666992188 6.6669921875 347 0 c 0
 335.666992188 -8 321 -12 303 -12 c 2
EndSplineSet
Validated: 1
EndChar

